<svg width="496" height="379" viewBox="0 0 496 379" fill="none" xmlns="http://www.w3.org/2000/svg">
<path d="M185.598 174.933V172.332C185.598 171.636 185.032 171.044 184.31 171.044H174.007C173.286 171.044 172.719 171.636 172.719 172.332V174.933C172.719 175.629 173.286 176.221 174.007 176.221H176.583C177.304 176.221 177.871 176.788 177.871 177.483V182.635C177.871 183.356 177.304 183.922 176.583 183.922H174.007C173.286 183.922 172.719 184.515 172.719 185.21V187.812C172.719 188.507 173.286 189.074 174.007 189.074H184.31C185.032 189.074 185.598 188.507 185.598 187.812V185.21C185.598 184.515 185.032 183.922 184.31 183.922H181.735C181.013 183.922 180.447 183.356 180.447 182.635V177.483C180.447 176.788 181.013 176.221 181.735 176.221H184.31C185.032 176.221 185.598 175.629 185.598 174.933ZM197.179 176.195H194.603C193.882 176.195 193.315 176.788 193.315 177.483V177.509C193.315 178.204 192.749 178.771 192.028 178.771C191.306 178.771 190.74 178.204 190.74 177.509V177.483C190.74 176.788 190.173 176.195 189.452 176.195C188.731 176.195 188.164 176.788 188.164 177.483V187.812C188.164 188.507 188.731 189.074 189.452 189.074H192.028C192.749 189.074 193.315 188.507 193.315 187.812V180.059C193.315 179.363 193.882 178.797 194.603 178.797C195.325 178.797 195.891 179.363 195.891 180.059V187.812C195.891 188.507 196.458 189.074 197.179 189.074H199.755C200.476 189.074 201.043 188.507 201.043 187.812V180.059C201.043 179.363 200.476 178.771 199.755 178.771C199.034 178.771 198.467 178.204 198.467 177.509V177.483C198.467 176.788 197.9 176.195 197.179 176.195ZM210.048 178.797C210.769 178.797 211.336 178.204 211.336 177.509V177.483C211.336 176.788 210.769 176.195 210.048 176.195C209.327 176.195 208.76 175.629 208.76 174.907C208.76 174.212 209.327 173.645 210.048 173.645H212.624C213.345 173.645 213.911 173.053 213.911 172.357V172.332C213.911 171.636 213.345 171.044 212.624 171.044H207.472C206.751 171.044 206.184 171.636 206.184 172.332V172.357C206.184 173.053 205.618 173.619 204.896 173.619C204.175 173.619 203.608 174.212 203.608 174.907V187.812C203.608 188.507 204.175 189.074 204.896 189.074H207.472C208.193 189.074 208.76 188.507 208.76 187.812V180.059C208.76 179.363 209.327 178.797 210.048 178.797ZM218.942 189.074H221.518C222.239 189.074 222.806 188.507 222.806 187.812V187.786C222.806 187.091 222.239 186.498 221.518 186.498C220.797 186.498 220.23 185.932 220.23 185.21V172.332C220.23 171.636 219.663 171.044 218.942 171.044H216.366C215.645 171.044 215.079 171.636 215.079 172.332V185.236C215.079 185.932 215.645 186.498 216.366 186.498C217.088 186.498 217.654 187.091 217.654 187.786V187.812C217.654 188.507 218.221 189.074 218.942 189.074ZM228.601 189.074H233.753C234.474 189.074 235.041 188.507 235.041 187.812V187.786C235.041 187.091 235.607 186.498 236.329 186.498C237.05 186.498 237.616 185.932 237.616 185.236V177.483C237.616 176.788 237.05 176.195 236.329 176.195H233.753C233.032 176.195 232.465 176.788 232.465 177.483V185.21C232.465 185.932 231.898 186.498 231.177 186.498C230.456 186.498 229.889 185.932 229.889 185.21V177.483C229.889 176.788 229.323 176.195 228.601 176.195H226.026C225.304 176.195 224.738 176.788 224.738 177.483V185.236C224.738 185.932 225.304 186.498 226.026 186.498C226.747 186.498 227.313 187.091 227.313 187.786V187.812C227.313 188.507 227.88 189.074 228.601 189.074ZM249.197 176.195H244.046C243.325 176.195 242.758 176.788 242.758 177.483V177.509C242.758 178.204 242.191 178.771 241.47 178.771C240.749 178.771 240.182 179.363 240.182 180.059V185.236C240.182 185.932 240.749 186.498 241.47 186.498C242.191 186.498 242.758 187.091 242.758 187.786V187.812C242.758 188.507 243.325 189.074 244.046 189.074H251.773C252.494 189.074 253.061 188.507 253.061 187.812V187.786C253.061 187.091 252.494 186.498 251.773 186.498H246.622C245.9 186.498 245.334 185.932 245.334 185.21C245.334 184.515 245.9 183.948 246.622 183.948H251.773C252.494 183.948 253.061 183.356 253.061 182.66V180.059C253.061 179.363 252.494 178.771 251.773 178.771C251.052 178.771 250.485 178.204 250.485 177.509V177.483C250.485 176.788 249.919 176.195 249.197 176.195ZM247.909 180.059C247.909 180.78 247.343 181.347 246.622 181.347C245.9 181.347 245.334 180.78 245.334 180.059C245.334 179.363 245.9 178.797 246.622 178.797C247.343 178.797 247.909 179.363 247.909 180.059ZM264.642 176.195H262.066C261.345 176.195 260.778 176.788 260.778 177.483V177.509C260.778 178.204 260.212 178.771 259.49 178.771C258.769 178.771 258.202 178.204 258.202 177.509V177.483C258.202 176.788 257.636 176.195 256.915 176.195C256.193 176.195 255.627 176.788 255.627 177.483V187.812C255.627 188.507 256.193 189.074 256.915 189.074H259.49C260.212 189.074 260.778 188.507 260.778 187.812V180.059C260.778 179.363 261.345 178.797 262.066 178.797C262.787 178.797 263.354 179.363 263.354 180.059V187.812C263.354 188.507 263.921 189.074 264.642 189.074H267.218C267.939 189.074 268.505 188.507 268.505 187.812V180.059C268.505 179.363 267.939 178.771 267.218 178.771C266.496 178.771 265.93 178.204 265.93 177.509V177.483C265.93 176.788 265.363 176.195 264.642 176.195ZM274.239 189.074H279.391C280.112 189.074 280.679 188.507 280.679 187.812V187.786C280.679 187.091 281.245 186.498 281.967 186.498C282.688 186.498 283.254 185.932 283.254 185.236V185.21C283.254 184.515 282.688 183.922 281.967 183.922H279.391C278.67 183.922 278.103 184.515 278.103 185.21C278.103 185.932 277.536 186.498 276.815 186.498C276.094 186.498 275.527 185.932 275.527 185.21V180.059C275.527 179.363 276.094 178.797 276.815 178.797C277.536 178.797 278.103 179.363 278.103 180.059V180.085C278.103 180.78 278.67 181.372 279.391 181.372H281.967C282.688 181.372 283.254 180.78 283.254 180.085V180.059C283.254 179.363 282.688 178.771 281.967 178.771C281.245 178.771 280.679 178.204 280.679 177.509V177.483C280.679 176.788 280.112 176.195 279.391 176.195H274.239C273.518 176.195 272.951 176.788 272.951 177.483V177.509C272.951 178.204 272.385 178.771 271.664 178.771C270.942 178.771 270.376 179.363 270.376 180.059V185.236C270.376 185.932 270.942 186.498 271.664 186.498C272.385 186.498 272.951 187.091 272.951 187.786V187.812C272.951 188.507 273.518 189.074 274.239 189.074ZM294.399 176.195H289.247C288.526 176.195 287.959 176.788 287.959 177.483V177.509C287.959 178.204 287.393 178.771 286.672 178.771C285.95 178.771 285.384 179.363 285.384 180.059V185.236C285.384 185.932 285.95 186.498 286.672 186.498C287.393 186.498 287.959 187.091 287.959 187.786V187.812C287.959 188.507 288.526 189.074 289.247 189.074H296.975C297.696 189.074 298.262 188.507 298.262 187.812V187.786C298.262 187.091 297.696 186.498 296.975 186.498H291.823C291.102 186.498 290.535 185.932 290.535 185.21C290.535 184.515 291.102 183.948 291.823 183.948H296.975C297.696 183.948 298.262 183.356 298.262 182.66V180.059C298.262 179.363 297.696 178.771 296.975 178.771C296.253 178.771 295.687 178.204 295.687 177.509V177.483C295.687 176.788 295.12 176.195 294.399 176.195ZM293.111 180.059C293.111 180.78 292.544 181.347 291.823 181.347C291.102 181.347 290.535 180.78 290.535 180.059C290.535 179.363 291.102 178.797 291.823 178.797C292.544 178.797 293.111 179.363 293.111 180.059ZM305.98 187.812V180.059C305.98 179.363 306.546 178.797 307.268 178.797C307.989 178.797 308.555 179.363 308.555 180.059V180.085C308.555 180.78 309.122 181.372 309.843 181.372C310.565 181.372 311.131 180.78 311.131 180.085V177.483C311.131 176.788 310.565 176.195 309.843 176.195H307.268C306.546 176.195 305.98 176.788 305.98 177.483V177.509C305.98 178.204 305.413 178.771 304.692 178.771C303.971 178.771 303.404 178.204 303.404 177.509V177.483C303.404 176.788 302.837 176.195 302.116 176.195C301.395 176.195 300.828 176.788 300.828 177.483V187.812C300.828 188.507 301.395 189.074 302.116 189.074H304.692C305.413 189.074 305.98 188.507 305.98 187.812ZM321.993 186.498C322.714 186.498 323.281 185.932 323.281 185.236V182.635C323.281 181.939 322.714 181.347 321.993 181.347H319.417C318.696 181.347 318.129 180.78 318.129 180.085V180.059C318.129 179.363 318.696 178.797 319.417 178.797H321.993C322.714 178.797 323.281 178.204 323.281 177.509V177.483C323.281 176.788 322.714 176.195 321.993 176.195H316.841C316.12 176.195 315.553 176.788 315.553 177.483V177.509C315.553 178.204 314.987 178.771 314.265 178.771C313.544 178.771 312.978 179.363 312.978 180.059V182.66C312.978 183.356 313.544 183.948 314.265 183.948H316.841C317.562 183.948 318.129 184.515 318.129 185.21C318.129 185.932 317.562 186.498 316.841 186.498H314.265C313.544 186.498 312.978 187.091 312.978 187.786V187.812C312.978 188.507 313.544 189.074 314.265 189.074H319.417C320.138 189.074 320.705 188.507 320.705 187.812V187.786C320.705 187.091 321.271 186.498 321.993 186.498Z" fill="white"/>
<path d="M36.2991 362.59L31.1303 369.285V370.798H36.2404V373.074H37.7675V370.798H39.3534V369.52H37.7675V362.59H36.2991ZM36.1963 364.616H36.2404V369.52H32.4372L36.1963 364.616ZM45.5591 362.59V373.074H47.1597V365.585H47.2184L50.4343 373.074H51.8146L55.0304 365.585H55.0891V373.074H56.6897V362.59H54.7954L51.1538 370.989H51.1097L47.4534 362.59H45.5591ZM62.0999 365.277C60.9545 365.277 60.0294 365.659 59.3392 366.422C58.6491 367.171 58.3114 368.125 58.3114 369.285C58.3114 370.431 58.6491 371.385 59.3246 372.12C60.0294 372.883 60.9545 373.28 62.0999 373.28C63.2452 373.28 64.1703 372.883 64.8751 372.12C65.5506 371.385 65.8883 370.431 65.8883 369.285C65.8883 368.125 65.5359 367.171 64.8605 366.422C64.1703 365.659 63.2452 365.277 62.0999 365.277ZM62.0999 366.554C62.8194 366.554 63.3774 366.833 63.7885 367.406C64.1409 367.89 64.3172 368.522 64.3172 369.285C64.3172 370.034 64.1409 370.651 63.7885 371.15C63.3774 371.708 62.8194 372.002 62.0999 372.002C61.3803 372.002 60.8223 371.708 60.4259 371.15C60.0734 370.666 59.9119 370.049 59.9119 369.285C59.9119 368.522 60.0734 367.89 60.4259 367.406C60.8223 366.833 61.3803 366.554 62.0999 366.554ZM71.214 365.277C70.7441 365.277 70.3182 365.365 69.9365 365.57C69.5547 365.761 69.2169 366.04 68.9233 366.422V365.482H67.3667V373.074H68.9233V368.507C68.982 367.89 69.2022 367.406 69.5547 367.053C69.8777 366.73 70.2742 366.584 70.7147 366.584C71.8894 366.584 72.4915 367.23 72.4915 368.522V373.074H74.048V368.39C74.048 366.305 73.0935 365.277 71.214 365.277ZM78.1327 363.03L76.5762 363.676V365.482H75.1665V366.774H76.5762V371.18C76.5762 371.782 76.7083 372.237 77.002 372.56C77.2957 372.898 77.7803 373.074 78.4264 373.074H79.6745V371.782H78.676C78.4851 371.782 78.353 371.723 78.2649 371.635C78.1768 371.532 78.1327 371.385 78.1327 371.18V366.774H79.8654V365.482H78.1327V363.03ZM81.1187 362.384V373.074H82.6752V368.816C82.6752 368.155 82.8368 367.611 83.1745 367.186C83.4976 366.76 83.9234 366.554 84.452 366.554C85.0394 366.554 85.4946 366.73 85.7883 367.098C86.0526 367.45 86.1994 367.949 86.1994 368.625V373.074H87.7559V368.36C87.7559 367.362 87.5357 366.598 87.0952 366.084C86.6253 365.541 85.9351 365.277 85.0247 365.277C84.5401 365.277 84.1143 365.365 83.7325 365.57C83.3067 365.776 82.9542 366.114 82.6752 366.554V362.384H81.1187ZM92.356 365.277C91.4456 365.277 90.6967 365.468 90.124 365.864C89.5513 366.246 89.2723 366.789 89.2723 367.479C89.2723 368.125 89.566 368.639 90.1534 369.006C90.5058 369.241 91.1372 369.462 92.0329 369.667C92.8112 369.843 93.3251 369.99 93.5601 370.108C94.0006 370.313 94.2355 370.607 94.2355 370.974C94.2355 371.65 93.6188 372.002 92.4147 372.002C91.8273 372.002 91.4162 371.899 91.1519 371.708C90.8876 371.503 90.6967 371.136 90.6086 370.622H89.0814C89.2576 372.384 90.3736 373.28 92.4588 373.28C94.7054 373.28 95.8361 372.472 95.8361 370.871C95.8361 370.196 95.5277 369.667 94.9257 369.285C94.5145 369.021 93.8684 368.772 93.0021 368.566C92.2385 368.375 91.7392 368.228 91.4749 368.111C91.0638 367.92 90.8582 367.7 90.8582 367.435C90.8582 367.142 90.9904 366.907 91.2693 366.76C91.5043 366.613 91.8567 366.554 92.3266 366.554C92.8552 366.554 93.2664 366.642 93.5307 366.819C93.7803 366.98 93.9565 367.259 94.074 367.67H95.5865C95.4103 366.07 94.3236 365.277 92.356 365.277Z" fill="#00BFF9"/>
<path d="M105.668 362.384C104.64 362.384 103.803 362.663 103.157 363.25C102.467 363.838 102.085 364.645 101.997 365.688H103.568C103.627 365.042 103.847 364.557 104.199 364.234C104.552 363.911 105.051 363.75 105.682 363.75C106.299 363.75 106.784 363.882 107.107 364.175C107.4 364.454 107.562 364.851 107.562 365.38C107.562 365.908 107.386 366.319 107.063 366.598C106.74 366.877 106.255 367.024 105.609 367.024H104.86V368.228H105.624C106.314 368.228 106.842 368.375 107.195 368.669C107.577 368.962 107.768 369.418 107.768 370.034C107.768 370.563 107.577 370.989 107.224 371.341C106.813 371.723 106.27 371.929 105.594 371.929C104.978 371.929 104.478 371.752 104.096 371.4C103.656 371.018 103.436 370.475 103.406 369.77H101.791C101.879 370.945 102.29 371.841 103.025 372.457C103.671 373.001 104.537 373.28 105.609 373.28C106.725 373.28 107.65 372.957 108.355 372.34C109.016 371.723 109.353 370.93 109.353 369.961C109.353 369.344 109.177 368.83 108.825 368.434C108.502 368.052 108.032 367.758 107.415 367.567C108.56 367.186 109.148 366.407 109.148 365.262C109.148 364.366 108.825 363.661 108.208 363.148C107.562 362.634 106.725 362.384 105.668 362.384ZM114.37 362.384C113.136 362.384 112.182 362.898 111.506 363.94C110.889 364.895 110.581 366.187 110.581 367.832C110.581 369.462 110.889 370.754 111.506 371.723C112.182 372.751 113.136 373.28 114.37 373.28C115.603 373.28 116.558 372.751 117.233 371.723C117.85 370.754 118.158 369.447 118.158 367.832C118.158 366.202 117.85 364.91 117.233 363.94C116.558 362.898 115.603 362.384 114.37 362.384ZM114.37 363.735C115.221 363.735 115.838 364.205 116.19 365.159C116.44 365.805 116.572 366.701 116.572 367.832C116.572 368.948 116.44 369.843 116.19 370.504C115.838 371.444 115.221 371.929 114.37 371.929C113.503 371.929 112.901 371.444 112.549 370.504C112.284 369.843 112.167 368.948 112.167 367.832C112.167 366.701 112.284 365.805 112.549 365.159C112.901 364.205 113.503 363.735 114.37 363.735ZM129.826 367.332C129.004 367.332 128.373 367.611 127.932 368.199C127.536 368.698 127.345 369.374 127.345 370.211C127.345 371.033 127.536 371.694 127.932 372.222C128.373 372.78 129.004 373.074 129.826 373.074C130.634 373.074 131.251 372.78 131.691 372.222C132.073 371.708 132.278 371.033 132.278 370.211C132.278 369.374 132.073 368.698 131.691 368.199C131.251 367.611 130.634 367.332 129.826 367.332ZM128.373 362.384L122.499 373.28H123.688L129.577 362.384H128.373ZM122.279 362.59C121.456 362.59 120.825 362.869 120.384 363.456C119.988 363.955 119.797 364.631 119.797 365.468C119.797 366.29 119.988 366.951 120.384 367.479C120.825 368.037 121.456 368.331 122.279 368.331C123.086 368.331 123.703 368.037 124.143 367.479C124.525 366.965 124.731 366.29 124.731 365.468C124.731 364.631 124.525 363.955 124.143 363.456C123.703 362.869 123.086 362.59 122.279 362.59ZM129.826 368.346C130.193 368.346 130.458 368.537 130.619 368.933C130.751 369.241 130.825 369.667 130.825 370.211C130.825 370.739 130.751 371.15 130.634 371.459C130.458 371.855 130.193 372.061 129.826 372.061C129.444 372.061 129.165 371.87 128.989 371.488C128.857 371.165 128.798 370.739 128.798 370.211C128.798 369.653 128.857 369.227 128.989 368.918C129.165 368.537 129.444 368.346 129.826 368.346ZM122.279 363.603C122.646 363.603 122.91 363.794 123.072 364.19C123.204 364.498 123.277 364.924 123.277 365.468C123.277 365.996 123.204 366.407 123.086 366.716C122.91 367.112 122.646 367.318 122.279 367.318C121.897 367.318 121.618 367.127 121.442 366.745C121.309 366.422 121.251 365.996 121.251 365.468C121.251 364.91 121.309 364.484 121.442 364.175C121.618 363.794 121.897 363.603 122.279 363.603Z" fill="white"/>
<rect y="358.542" width="17.6209" height="17.6209" rx="8.81046" fill="#00BFF9"/>
<path d="M213.078 362.384C211.962 362.384 211.067 362.678 210.421 363.265C209.833 363.794 209.54 364.454 209.54 365.233C209.54 365.776 209.657 366.231 209.892 366.598C210.156 366.995 210.553 367.288 211.081 367.494V367.538C210.567 367.656 210.142 367.949 209.789 368.419C209.378 368.918 209.172 369.491 209.172 370.152C209.172 371.077 209.51 371.826 210.186 372.413C210.861 372.986 211.83 373.28 213.078 373.28C214.312 373.28 215.281 372.986 215.971 372.413C216.647 371.826 216.984 371.077 216.984 370.152C216.984 369.491 216.779 368.918 216.368 368.419C216.015 367.949 215.575 367.656 215.075 367.538V367.494C215.604 367.288 216.001 366.995 216.265 366.598C216.5 366.231 216.617 365.776 216.617 365.233C216.617 364.454 216.324 363.794 215.736 363.265C215.075 362.678 214.194 362.384 213.078 362.384ZM213.078 363.661C213.724 363.661 214.238 363.823 214.62 364.175C214.943 364.469 215.119 364.851 215.119 365.291C215.119 365.791 214.973 366.187 214.708 366.481C214.356 366.833 213.813 367.009 213.078 367.009C212.329 367.009 211.786 366.833 211.448 366.481C211.169 366.187 211.037 365.791 211.037 365.291C211.037 364.851 211.199 364.469 211.537 364.175C211.918 363.823 212.432 363.661 213.078 363.661ZM213.078 368.199C213.842 368.199 214.415 368.39 214.826 368.772C215.208 369.109 215.398 369.564 215.398 370.152C215.398 370.695 215.208 371.136 214.826 371.473C214.4 371.811 213.813 371.987 213.078 371.987C212.329 371.987 211.757 371.811 211.36 371.473C210.949 371.136 210.758 370.695 210.758 370.152C210.758 369.564 210.949 369.109 211.346 368.757C211.727 368.375 212.315 368.199 213.078 368.199ZM223.396 362.59V373.074H224.996V365.585H225.055L228.271 373.074H229.651L232.867 365.585H232.926V373.074H234.526V362.59H232.632L228.99 370.989H228.946L225.29 362.59H223.396ZM239.936 365.277C238.791 365.277 237.866 365.659 237.176 366.422C236.486 367.171 236.148 368.125 236.148 369.285C236.148 370.431 236.486 371.385 237.161 372.12C237.866 372.883 238.791 373.28 239.936 373.28C241.082 373.28 242.007 372.883 242.712 372.12C243.387 371.385 243.725 370.431 243.725 369.285C243.725 368.125 243.372 367.171 242.697 366.422C242.007 365.659 241.082 365.277 239.936 365.277ZM239.936 366.554C240.656 366.554 241.214 366.833 241.625 367.406C241.977 367.89 242.154 368.522 242.154 369.285C242.154 370.034 241.977 370.651 241.625 371.15C241.214 371.708 240.656 372.002 239.936 372.002C239.217 372.002 238.659 371.708 238.262 371.15C237.91 370.666 237.748 370.049 237.748 369.285C237.748 368.522 237.91 367.89 238.262 367.406C238.659 366.833 239.217 366.554 239.936 366.554ZM249.051 365.277C248.581 365.277 248.155 365.365 247.773 365.57C247.391 365.761 247.053 366.04 246.76 366.422V365.482H245.203V373.074H246.76V368.507C246.819 367.89 247.039 367.406 247.391 367.053C247.714 366.73 248.111 366.584 248.551 366.584C249.726 366.584 250.328 367.23 250.328 368.522V373.074H251.885V368.39C251.885 366.305 250.93 365.277 249.051 365.277ZM255.969 363.03L254.413 363.676V365.482H253.003V366.774H254.413V371.18C254.413 371.782 254.545 372.237 254.839 372.56C255.132 372.898 255.617 373.074 256.263 373.074H257.511V371.782H256.513C256.322 371.782 256.19 371.723 256.101 371.635C256.013 371.532 255.969 371.385 255.969 371.18V366.774H257.702V365.482H255.969V363.03ZM258.955 362.384V373.074H260.512V368.816C260.512 368.155 260.673 367.611 261.011 367.186C261.334 366.76 261.76 366.554 262.289 366.554C262.876 366.554 263.331 366.73 263.625 367.098C263.889 367.45 264.036 367.949 264.036 368.625V373.074H265.592V368.36C265.592 367.362 265.372 366.598 264.932 366.084C264.462 365.541 263.772 365.277 262.861 365.277C262.377 365.277 261.951 365.365 261.569 365.57C261.143 365.776 260.791 366.114 260.512 366.554V362.384H258.955ZM270.193 365.277C269.282 365.277 268.533 365.468 267.961 365.864C267.388 366.246 267.109 366.789 267.109 367.479C267.109 368.125 267.403 368.639 267.99 369.006C268.342 369.241 268.974 369.462 269.869 369.667C270.648 369.843 271.162 369.99 271.397 370.108C271.837 370.313 272.072 370.607 272.072 370.974C272.072 371.65 271.455 372.002 270.251 372.002C269.664 372.002 269.253 371.899 268.988 371.708C268.724 371.503 268.533 371.136 268.445 370.622H266.918C267.094 372.384 268.21 373.28 270.295 373.28C272.542 373.28 273.673 372.472 273.673 370.871C273.673 370.196 273.364 369.667 272.762 369.285C272.351 369.021 271.705 368.772 270.839 368.566C270.075 368.375 269.576 368.228 269.311 368.111C268.9 367.92 268.695 367.7 268.695 367.435C268.695 367.142 268.827 366.907 269.106 366.76C269.341 366.613 269.693 366.554 270.163 366.554C270.692 366.554 271.103 366.642 271.367 366.819C271.617 366.98 271.793 367.259 271.911 367.67H273.423C273.247 366.07 272.16 365.277 270.193 365.277Z" fill="#FF5757"/>
<path d="M283.504 362.384C282.476 362.384 281.639 362.663 280.993 363.25C280.303 363.838 279.921 364.645 279.833 365.688H281.404C281.463 365.042 281.683 364.557 282.036 364.234C282.388 363.911 282.887 363.75 283.519 363.75C284.136 363.75 284.62 363.882 284.943 364.175C285.237 364.454 285.398 364.851 285.398 365.38C285.398 365.908 285.222 366.319 284.899 366.598C284.576 366.877 284.092 367.024 283.445 367.024H282.697V368.228H283.46C284.15 368.228 284.679 368.375 285.031 368.669C285.413 368.962 285.604 369.418 285.604 370.034C285.604 370.563 285.413 370.989 285.061 371.341C284.65 371.723 284.106 371.929 283.431 371.929C282.814 371.929 282.315 371.752 281.933 371.4C281.493 371.018 281.272 370.475 281.243 369.77H279.628C279.716 370.945 280.127 371.841 280.861 372.457C281.507 373.001 282.374 373.28 283.445 373.28C284.561 373.28 285.487 372.957 286.191 372.34C286.852 371.723 287.19 370.93 287.19 369.961C287.19 369.344 287.014 368.83 286.661 368.434C286.338 368.052 285.868 367.758 285.252 367.567C286.397 367.186 286.984 366.407 286.984 365.262C286.984 364.366 286.661 363.661 286.045 363.148C285.398 362.634 284.561 362.384 283.504 362.384ZM292.206 362.384C290.973 362.384 290.018 362.898 289.343 363.94C288.726 364.895 288.418 366.187 288.418 367.832C288.418 369.462 288.726 370.754 289.343 371.723C290.018 372.751 290.973 373.28 292.206 373.28C293.44 373.28 294.394 372.751 295.07 371.723C295.686 370.754 295.995 369.447 295.995 367.832C295.995 366.202 295.686 364.91 295.07 363.94C294.394 362.898 293.44 362.384 292.206 362.384ZM292.206 363.735C293.058 363.735 293.675 364.205 294.027 365.159C294.277 365.805 294.409 366.701 294.409 367.832C294.409 368.948 294.277 369.843 294.027 370.504C293.675 371.444 293.058 371.929 292.206 371.929C291.34 371.929 290.738 371.444 290.385 370.504C290.121 369.843 290.004 368.948 290.004 367.832C290.004 366.701 290.121 365.805 290.385 365.159C290.738 364.205 291.34 363.735 292.206 363.735ZM307.663 367.332C306.84 367.332 306.209 367.611 305.769 368.199C305.372 368.698 305.181 369.374 305.181 370.211C305.181 371.033 305.372 371.694 305.769 372.222C306.209 372.78 306.84 373.074 307.663 373.074C308.47 373.074 309.087 372.78 309.528 372.222C309.909 371.708 310.115 371.033 310.115 370.211C310.115 369.374 309.909 368.698 309.528 368.199C309.087 367.611 308.47 367.332 307.663 367.332ZM306.209 362.384L300.335 373.28H301.525L307.413 362.384H306.209ZM300.115 362.59C299.293 362.59 298.661 362.869 298.221 363.456C297.824 363.955 297.634 364.631 297.634 365.468C297.634 366.29 297.824 366.951 298.221 367.479C298.661 368.037 299.293 368.331 300.115 368.331C300.923 368.331 301.54 368.037 301.98 367.479C302.362 366.965 302.567 366.29 302.567 365.468C302.567 364.631 302.362 363.955 301.98 363.456C301.54 362.869 300.923 362.59 300.115 362.59ZM307.663 368.346C308.03 368.346 308.294 368.537 308.456 368.933C308.588 369.241 308.661 369.667 308.661 370.211C308.661 370.739 308.588 371.15 308.47 371.459C308.294 371.855 308.03 372.061 307.663 372.061C307.281 372.061 307.002 371.87 306.826 371.488C306.694 371.165 306.635 370.739 306.635 370.211C306.635 369.653 306.694 369.227 306.826 368.918C307.002 368.537 307.281 368.346 307.663 368.346ZM300.115 363.603C300.482 363.603 300.747 363.794 300.908 364.19C301.04 364.498 301.114 364.924 301.114 365.468C301.114 365.996 301.04 366.407 300.923 366.716C300.747 367.112 300.482 367.318 300.115 367.318C299.733 367.318 299.454 367.127 299.278 366.745C299.146 366.422 299.087 365.996 299.087 365.468C299.087 364.91 299.146 364.484 299.278 364.175C299.454 363.794 299.733 363.603 300.115 363.603Z" fill="white"/>
<rect x="177.837" y="358.542" width="17.6209" height="17.6209" rx="8.81046" fill="#FF5757"/>
<path d="M389.916 362.59C389.564 362.971 389.124 363.309 388.595 363.632C388.066 363.926 387.582 364.131 387.112 364.249V365.835C388.081 365.556 388.889 365.115 389.52 364.513V373.074H391.121V362.59H389.916ZM397.071 362.384C395.955 362.384 395.044 362.751 394.369 363.515C393.708 364.219 393.37 365.159 393.356 366.334H394.956C394.985 365.482 395.162 364.851 395.514 364.41C395.852 363.955 396.351 363.735 397.012 363.735C397.629 363.735 398.113 363.882 398.436 364.175C398.759 364.469 398.921 364.91 398.921 365.497C398.921 366.114 398.671 366.686 398.201 367.215C397.908 367.523 397.408 367.92 396.703 368.419C395.514 369.241 394.721 369.873 394.339 370.328C393.635 371.121 393.297 372.031 393.297 373.074H400.521V371.664H395.279C395.499 371.092 396.175 370.431 397.306 369.682C398.348 368.977 399.068 368.419 399.479 367.993C400.154 367.244 400.507 366.422 400.507 365.512C400.507 364.587 400.184 363.838 399.552 363.25C398.906 362.663 398.069 362.384 397.071 362.384ZM407.226 362.59V373.074H408.827V365.585H408.886L412.101 373.074H413.482L416.698 365.585H416.756V373.074H418.357V362.59H416.463L412.821 370.989H412.777L409.121 362.59H407.226ZM423.767 365.277C422.622 365.277 421.697 365.659 421.006 366.422C420.316 367.171 419.979 368.125 419.979 369.285C419.979 370.431 420.316 371.385 420.992 372.12C421.697 372.883 422.622 373.28 423.767 373.28C424.912 373.28 425.838 372.883 426.542 372.12C427.218 371.385 427.556 370.431 427.556 369.285C427.556 368.125 427.203 367.171 426.528 366.422C425.838 365.659 424.912 365.277 423.767 365.277ZM423.767 366.554C424.487 366.554 425.045 366.833 425.456 367.406C425.808 367.89 425.984 368.522 425.984 369.285C425.984 370.034 425.808 370.651 425.456 371.15C425.045 371.708 424.487 372.002 423.767 372.002C423.048 372.002 422.49 371.708 422.093 371.15C421.741 370.666 421.579 370.049 421.579 369.285C421.579 368.522 421.741 367.89 422.093 367.406C422.49 366.833 423.048 366.554 423.767 366.554ZM432.881 365.277C432.411 365.277 431.985 365.365 431.604 365.57C431.222 365.761 430.884 366.04 430.59 366.422V365.482H429.034V373.074H430.59V368.507C430.649 367.89 430.869 367.406 431.222 367.053C431.545 366.73 431.941 366.584 432.382 366.584C433.557 366.584 434.159 367.23 434.159 368.522V373.074H435.715V368.39C435.715 366.305 434.761 365.277 432.881 365.277ZM439.8 363.03L438.243 363.676V365.482H436.834V366.774H438.243V371.18C438.243 371.782 438.376 372.237 438.669 372.56C438.963 372.898 439.448 373.074 440.094 373.074H441.342V371.782H440.343C440.152 371.782 440.02 371.723 439.932 371.635C439.844 371.532 439.8 371.385 439.8 371.18V366.774H441.533V365.482H439.8V363.03ZM442.786 362.384V373.074H444.342V368.816C444.342 368.155 444.504 367.611 444.842 367.186C445.165 366.76 445.591 366.554 446.119 366.554C446.707 366.554 447.162 366.73 447.455 367.098C447.72 367.45 447.867 367.949 447.867 368.625V373.074H449.423V368.36C449.423 367.362 449.203 366.598 448.762 366.084C448.292 365.541 447.602 365.277 446.692 365.277C446.207 365.277 445.782 365.365 445.4 365.57C444.974 365.776 444.621 366.114 444.342 366.554V362.384H442.786ZM454.023 365.277C453.113 365.277 452.364 365.468 451.791 365.864C451.219 366.246 450.94 366.789 450.94 367.479C450.94 368.125 451.233 368.639 451.821 369.006C452.173 369.241 452.804 369.462 453.7 369.667C454.478 369.843 454.992 369.99 455.227 370.108C455.668 370.313 455.903 370.607 455.903 370.974C455.903 371.65 455.286 372.002 454.082 372.002C453.495 372.002 453.083 371.899 452.819 371.708C452.555 371.503 452.364 371.136 452.276 370.622H450.749C450.925 372.384 452.041 373.28 454.126 373.28C456.373 373.28 457.503 372.472 457.503 370.871C457.503 370.196 457.195 369.667 456.593 369.285C456.182 369.021 455.536 368.772 454.669 368.566C453.906 368.375 453.406 368.228 453.142 368.111C452.731 367.92 452.525 367.7 452.525 367.435C452.525 367.142 452.658 366.907 452.937 366.76C453.172 366.613 453.524 366.554 453.994 366.554C454.522 366.554 454.934 366.642 455.198 366.819C455.448 366.98 455.624 367.259 455.741 367.67H457.254C457.077 366.07 455.991 365.277 454.023 365.277Z" fill="#FF00E5"/>
<path d="M468.289 362.59L463.121 369.285V370.798H468.231V373.074H469.758V370.798H471.344V369.52H469.758V362.59H468.289ZM468.187 364.616H468.231V369.52H464.427L468.187 364.616ZM476.037 362.384C474.803 362.384 473.849 362.898 473.173 363.94C472.557 364.895 472.248 366.187 472.248 367.832C472.248 369.462 472.557 370.754 473.173 371.723C473.849 372.751 474.803 373.28 476.037 373.28C477.27 373.28 478.225 372.751 478.9 371.723C479.517 370.754 479.825 369.447 479.825 367.832C479.825 366.202 479.517 364.91 478.9 363.94C478.225 362.898 477.27 362.384 476.037 362.384ZM476.037 363.735C476.889 363.735 477.505 364.205 477.858 365.159C478.107 365.805 478.239 366.701 478.239 367.832C478.239 368.948 478.107 369.843 477.858 370.504C477.505 371.444 476.889 371.929 476.037 371.929C475.17 371.929 474.568 371.444 474.216 370.504C473.952 369.843 473.834 368.948 473.834 367.832C473.834 366.701 473.952 365.805 474.216 365.159C474.568 364.205 475.17 363.735 476.037 363.735ZM491.493 367.332C490.671 367.332 490.04 367.611 489.599 368.199C489.203 368.698 489.012 369.374 489.012 370.211C489.012 371.033 489.203 371.694 489.599 372.222C490.04 372.78 490.671 373.074 491.493 373.074C492.301 373.074 492.918 372.78 493.358 372.222C493.74 371.708 493.946 371.033 493.946 370.211C493.946 369.374 493.74 368.698 493.358 368.199C492.918 367.611 492.301 367.332 491.493 367.332ZM490.04 362.384L484.166 373.28H485.355L491.244 362.384H490.04ZM483.946 362.59C483.124 362.59 482.492 362.869 482.052 363.456C481.655 363.955 481.464 364.631 481.464 365.468C481.464 366.29 481.655 366.951 482.052 367.479C482.492 368.037 483.124 368.331 483.946 368.331C484.753 368.331 485.37 368.037 485.811 367.479C486.192 366.965 486.398 366.29 486.398 365.468C486.398 364.631 486.192 363.955 485.811 363.456C485.37 362.869 484.753 362.59 483.946 362.59ZM491.493 368.346C491.861 368.346 492.125 368.537 492.286 368.933C492.419 369.241 492.492 369.667 492.492 370.211C492.492 370.739 492.419 371.15 492.301 371.459C492.125 371.855 491.861 372.061 491.493 372.061C491.112 372.061 490.833 371.87 490.656 371.488C490.524 371.165 490.466 370.739 490.466 370.211C490.466 369.653 490.524 369.227 490.656 368.918C490.833 368.537 491.112 368.346 491.493 368.346ZM483.946 363.603C484.313 363.603 484.577 363.794 484.739 364.19C484.871 364.498 484.944 364.924 484.944 365.468C484.944 365.996 484.871 366.407 484.753 366.716C484.577 367.112 484.313 367.318 483.946 367.318C483.564 367.318 483.285 367.127 483.109 366.745C482.977 366.422 482.918 365.996 482.918 365.468C482.918 364.91 482.977 364.484 483.109 364.175C483.285 363.794 483.564 363.603 483.946 363.603Z" fill="white"/>
<rect x="355.673" y="358.542" width="17.6209" height="17.6209" rx="8.81046" fill="#FF00E5"/>
<path d="M204.346 44.8014C226.167 37.9123 249.308 36.2854 271.878 40.0536C294.448 43.8219 315.806 52.8783 334.206 66.4824C352.605 80.0866 367.523 97.8522 377.741 118.327C387.959 138.801 393.186 161.403 392.995 184.285L331.184 183.769C331.293 170.642 328.294 157.675 322.433 145.928C316.571 134.182 308.012 123.99 297.456 116.185C286.9 108.381 274.647 103.185 261.699 101.023C248.751 98.8614 235.474 99.7947 222.956 103.747L204.346 44.8014Z" fill="#3DD2FF"/>
<path d="M203.354 321.029C174.221 311.601 148.82 293.192 130.792 268.44C112.765 243.688 103.036 213.864 103 183.243C102.964 152.623 112.623 122.776 130.593 97.9822C148.562 73.1883 173.92 54.7195 203.031 45.223L222.201 103.989C205.5 109.437 190.953 120.032 180.643 134.257C170.334 148.481 164.793 165.604 164.814 183.171C164.834 200.738 170.416 217.848 180.758 232.048C191.1 246.248 205.673 256.81 222.387 262.219L203.354 321.029Z" fill="#FF00E5"/>
<path d="M393 183.074C393 205.956 387.584 228.514 377.196 248.903C366.808 269.291 351.741 286.931 333.229 300.381C314.717 313.831 293.284 322.709 270.683 326.289C248.082 329.868 224.955 328.048 203.193 320.977L222.294 262.189C234.779 266.246 248.047 267.29 261.013 265.236C273.979 263.183 286.275 258.09 296.896 250.373C307.516 242.657 316.16 232.537 322.12 220.84C328.08 209.143 331.187 196.202 331.187 183.074H393Z" fill="#FF5757"/>
</svg>
