<svg width="324" height="341" viewBox="0 0 324 341" fill="none" xmlns="http://www.w3.org/2000/svg">
<path d="M111.28 134.331V134.357C111.28 135.053 110.713 135.619 109.992 135.619C109.271 135.619 108.704 136.212 108.704 136.907V149.812C108.704 150.507 109.271 151.074 109.992 151.074H112.568C113.289 151.074 113.855 150.507 113.855 149.812V147.21C113.855 146.515 114.422 145.948 115.143 145.948H117.719C118.44 145.922 119.007 145.356 119.007 144.66V144.634C119.007 143.939 119.574 143.372 120.295 143.372C121.016 143.372 121.583 142.78 121.583 142.084V136.907C121.583 136.212 121.016 135.619 120.295 135.619C119.574 135.619 119.007 135.053 119.007 134.357V134.331C119.007 133.636 118.44 133.043 117.719 133.043H112.568C111.846 133.043 111.28 133.636 111.28 134.331ZM115.143 143.346C114.422 143.346 113.855 142.78 113.855 142.059V136.907C113.855 136.212 114.422 135.645 115.143 135.645C115.865 135.645 116.431 136.212 116.431 136.907V142.059C116.431 142.78 115.865 143.346 115.143 143.346ZM133.061 139.509V139.483C133.061 138.787 132.494 138.195 131.773 138.195H126.621C125.9 138.195 125.333 138.787 125.333 139.483V139.509C125.333 140.204 125.9 140.796 126.621 140.796H129.197C129.918 140.796 130.485 141.363 130.485 142.059C130.485 142.78 129.918 143.346 129.197 143.346H126.621C125.9 143.346 125.333 143.939 125.333 144.634C125.333 145.356 124.767 145.922 124.045 145.922C123.324 145.922 122.758 146.515 122.758 147.21V147.236C122.758 147.931 123.324 148.498 124.045 148.498C124.767 148.498 125.333 149.09 125.333 149.786V149.812C125.333 150.507 125.9 151.074 126.621 151.074H129.197C129.918 151.074 130.485 150.507 130.485 149.812V149.786C130.485 149.09 131.051 148.498 131.773 148.498C132.494 148.498 133.061 149.09 133.061 149.786V149.812C133.061 150.507 133.627 151.074 134.348 151.074C135.07 151.074 135.636 150.507 135.636 149.812V142.059C135.636 141.363 135.07 140.771 134.348 140.771C133.627 140.771 133.061 140.204 133.061 139.509ZM127.909 147.21C127.909 146.515 128.476 145.948 129.197 145.948C129.918 145.948 130.485 146.515 130.485 147.21C130.485 147.931 129.918 148.498 129.197 148.498C128.476 148.498 127.909 147.931 127.909 147.21ZM143.361 149.812V142.059C143.361 141.363 143.928 140.796 144.649 140.796C145.37 140.796 145.937 141.363 145.937 142.059V142.084C145.937 142.78 146.503 143.372 147.225 143.372C147.946 143.372 148.512 142.78 148.512 142.084V139.483C148.512 138.787 147.946 138.195 147.225 138.195H144.649C143.928 138.195 143.361 138.787 143.361 139.483V139.509C143.361 140.204 142.794 140.771 142.073 140.771C141.352 140.771 140.785 140.204 140.785 139.509V139.483C140.785 138.787 140.219 138.195 139.497 138.195C138.776 138.195 138.209 138.787 138.209 139.483V149.812C138.209 150.507 138.776 151.074 139.497 151.074H142.073C142.794 151.074 143.361 150.507 143.361 149.812ZM153.578 148.498C154.3 148.498 154.866 149.09 154.866 149.786V149.812C154.866 150.507 155.433 151.074 156.154 151.074H158.73C159.451 151.074 160.018 150.507 160.018 149.812V149.786C160.018 149.09 159.451 148.498 158.73 148.498C158.009 148.498 157.442 147.931 157.442 147.21V142.059C157.442 141.363 158.009 140.796 158.73 140.796C159.451 140.796 160.018 140.204 160.018 139.509V139.483C160.018 138.787 159.451 138.195 158.73 138.195C158.009 138.195 157.442 137.628 157.442 136.933V134.331C157.442 133.636 156.875 133.043 156.154 133.043H153.578C152.857 133.043 152.291 133.636 152.291 134.331V136.933C152.291 137.628 151.724 138.195 151.003 138.195C150.282 138.195 149.715 138.787 149.715 139.483V139.509C149.715 140.204 150.282 140.796 151.003 140.796C151.724 140.796 152.291 141.363 152.291 142.059V147.236C152.291 147.931 152.857 148.498 153.578 148.498ZM170.97 138.195H168.394C167.673 138.195 167.106 138.787 167.106 139.483V139.509C167.106 140.204 166.54 140.771 165.818 140.771C165.097 140.771 164.53 140.204 164.53 139.509V139.483C164.53 138.787 163.964 138.195 163.243 138.195C162.521 138.195 161.955 138.787 161.955 139.483V149.812C161.955 150.507 162.521 151.074 163.243 151.074H165.818C166.54 151.074 167.106 150.507 167.106 149.812V142.059C167.106 141.363 167.673 140.796 168.394 140.796C169.115 140.796 169.682 141.363 169.682 142.059V149.812C169.682 150.507 170.249 151.074 170.97 151.074H173.546C174.267 151.074 174.834 150.507 174.834 149.812V142.059C174.834 141.363 174.267 140.771 173.546 140.771C172.824 140.771 172.258 140.204 172.258 139.509V139.483C172.258 138.787 171.691 138.195 170.97 138.195ZM186.414 138.195H181.263C180.542 138.195 179.975 138.787 179.975 139.483V139.509C179.975 140.204 179.408 140.771 178.687 140.771C177.966 140.771 177.399 141.363 177.399 142.059V147.236C177.399 147.931 177.966 148.498 178.687 148.498C179.408 148.498 179.975 149.09 179.975 149.786V149.812C179.975 150.507 180.542 151.074 181.263 151.074H188.99C189.711 151.074 190.278 150.507 190.278 149.812V149.786C190.278 149.09 189.711 148.498 188.99 148.498H183.839C183.117 148.498 182.551 147.931 182.551 147.21C182.551 146.515 183.117 145.948 183.839 145.948H188.99C189.711 145.948 190.278 145.356 190.278 144.66V142.059C190.278 141.363 189.711 140.771 188.99 140.771C188.269 140.771 187.702 140.204 187.702 139.509V139.483C187.702 138.787 187.136 138.195 186.414 138.195ZM185.126 142.059C185.126 142.78 184.56 143.346 183.839 143.346C183.117 143.346 182.551 142.78 182.551 142.059C182.551 141.363 183.117 140.796 183.839 140.796C184.56 140.796 185.126 141.363 185.126 142.059ZM197.995 149.812V142.059C197.995 141.363 198.562 140.796 199.283 140.796C200.004 140.796 200.571 141.363 200.571 142.059V142.084C200.571 142.78 201.138 143.372 201.859 143.372C202.58 143.372 203.147 142.78 203.147 142.084V139.483C203.147 138.787 202.58 138.195 201.859 138.195H199.283C198.562 138.195 197.995 138.787 197.995 139.483V139.509C197.995 140.204 197.429 140.771 196.707 140.771C195.986 140.771 195.419 140.204 195.419 139.509V139.483C195.419 138.787 194.853 138.195 194.132 138.195C193.41 138.195 192.844 138.787 192.844 139.483V149.812C192.844 150.507 193.41 151.074 194.132 151.074H196.707C197.429 151.074 197.995 150.507 197.995 149.812ZM214.008 148.498C214.729 148.498 215.296 147.931 215.296 147.236V144.634C215.296 143.939 214.729 143.346 214.008 143.346H211.432C210.711 143.346 210.145 142.78 210.145 142.084V142.059C210.145 141.363 210.711 140.796 211.432 140.796H214.008C214.729 140.796 215.296 140.204 215.296 139.509V139.483C215.296 138.787 214.729 138.195 214.008 138.195H208.857C208.135 138.195 207.569 138.787 207.569 139.483V139.509C207.569 140.204 207.002 140.771 206.281 140.771C205.56 140.771 204.993 141.363 204.993 142.059V144.66C204.993 145.356 205.56 145.948 206.281 145.948H208.857C209.578 145.948 210.145 146.515 210.145 147.21C210.145 147.931 209.578 148.498 208.857 148.498H206.281C205.56 148.498 204.993 149.09 204.993 149.786V149.812C204.993 150.507 205.56 151.074 206.281 151.074H211.432C212.154 151.074 212.72 150.507 212.72 149.812V149.786C212.72 149.09 213.287 148.498 214.008 148.498Z" fill="white"/>
<path d="M34.2433 324.589C33.8908 324.971 33.4503 325.309 32.9217 325.632C32.3931 325.926 31.9085 326.131 31.4386 326.249V327.834C32.4077 327.555 33.2154 327.115 33.8468 326.513V335.074H35.4474V324.589H34.2433ZM41.2359 324.384C40.1199 324.384 39.2241 324.677 38.578 325.265C37.9907 325.793 37.697 326.454 37.697 327.232C37.697 327.776 37.8145 328.231 38.0494 328.598C38.3137 328.995 38.7102 329.288 39.2388 329.494V329.538C38.7249 329.655 38.2991 329.949 37.9466 330.419C37.5355 330.918 37.3299 331.491 37.3299 332.152C37.3299 333.077 37.6676 333.826 38.3431 334.413C39.0186 334.986 39.9877 335.279 41.2359 335.279C42.4693 335.279 43.4385 334.986 44.1286 334.413C44.8041 333.826 45.1418 333.077 45.1418 332.152C45.1418 331.491 44.9363 330.918 44.5251 330.419C44.1727 329.949 43.7322 329.655 43.2329 329.538V329.494C43.7615 329.288 44.158 328.995 44.4223 328.598C44.6573 328.231 44.7747 327.776 44.7747 327.232C44.7747 326.454 44.4811 325.793 43.8937 325.265C43.2329 324.677 42.3519 324.384 41.2359 324.384ZM41.2359 325.661C41.882 325.661 42.3959 325.823 42.7777 326.175C43.1008 326.469 43.277 326.851 43.277 327.291C43.277 327.79 43.1301 328.187 42.8658 328.481C42.5134 328.833 41.9701 329.009 41.2359 329.009C40.487 329.009 39.9437 328.833 39.6059 328.481C39.3269 328.187 39.1948 327.79 39.1948 327.291C39.1948 326.851 39.3563 326.469 39.694 326.175C40.0758 325.823 40.5898 325.661 41.2359 325.661ZM41.2359 330.199C41.9994 330.199 42.5721 330.39 42.9833 330.771C43.3651 331.109 43.556 331.564 43.556 332.152C43.556 332.695 43.3651 333.135 42.9833 333.473C42.5574 333.811 41.9701 333.987 41.2359 333.987C40.487 333.987 39.9143 333.811 39.5178 333.473C39.1067 333.135 38.9158 332.695 38.9158 332.152C38.9158 331.564 39.1067 331.109 39.5031 330.757C39.8849 330.375 40.4723 330.199 41.2359 330.199ZM51.5532 324.589V335.074H53.1537V327.585H53.2125L56.4283 335.074H57.8086L61.0244 327.585H61.0831V335.074H62.6837V324.589H60.7895L57.1478 332.989H57.1038L53.4474 324.589H51.5532ZM68.0939 327.276C66.9485 327.276 66.0234 327.658 65.3333 328.422C64.6431 329.171 64.3054 330.125 64.3054 331.285C64.3054 332.431 64.6431 333.385 65.3186 334.119C66.0234 334.883 66.9485 335.279 68.0939 335.279C69.2392 335.279 70.1643 334.883 70.8692 334.119C71.5446 333.385 71.8824 332.431 71.8824 331.285C71.8824 330.125 71.53 329.171 70.8545 328.422C70.1643 327.658 69.2392 327.276 68.0939 327.276ZM68.0939 328.554C68.8134 328.554 69.3714 328.833 69.7826 329.406C70.135 329.89 70.3112 330.522 70.3112 331.285C70.3112 332.034 70.135 332.651 69.7826 333.15C69.3714 333.708 68.8134 334.002 68.0939 334.002C67.3744 334.002 66.8164 333.708 66.4199 333.15C66.0675 332.666 65.906 332.049 65.906 331.285C65.906 330.522 66.0675 329.89 66.4199 329.406C66.8164 328.833 67.3744 328.554 68.0939 328.554ZM77.208 327.276C76.7381 327.276 76.3123 327.365 75.9305 327.57C75.5487 327.761 75.211 328.04 74.9173 328.422V327.482H73.3608V335.074H74.9173V330.507C74.976 329.89 75.1963 329.406 75.5487 329.053C75.8718 328.73 76.2682 328.583 76.7087 328.583C77.8835 328.583 78.4855 329.229 78.4855 330.522V335.074H80.042V330.39C80.042 328.304 79.0876 327.276 77.208 327.276ZM84.1267 325.03L82.5702 325.676V327.482H81.1605V328.774H82.5702V333.179C82.5702 333.782 82.7024 334.237 82.9961 334.56C83.2897 334.898 83.7743 335.074 84.4204 335.074H85.6686V333.782H84.67C84.4792 333.782 84.347 333.723 84.2589 333.635C84.1708 333.532 84.1267 333.385 84.1267 333.179V328.774H85.8595V327.482H84.1267V325.03ZM87.1128 324.384V335.074H88.6693V330.815C88.6693 330.155 88.8308 329.611 89.1685 329.185C89.4916 328.76 89.9174 328.554 90.4461 328.554C91.0334 328.554 91.4886 328.73 91.7823 329.097C92.0466 329.45 92.1935 329.949 92.1935 330.624V335.074H93.75V330.36C93.75 329.362 93.5297 328.598 93.0892 328.084C92.6193 327.541 91.9292 327.276 91.0187 327.276C90.5342 327.276 90.1083 327.365 89.7265 327.57C89.3007 327.776 88.9483 328.113 88.6693 328.554V324.384H87.1128ZM98.35 327.276C97.4396 327.276 96.6907 327.467 96.118 327.864C95.5453 328.246 95.2663 328.789 95.2663 329.479C95.2663 330.125 95.56 330.639 96.1474 331.006C96.4998 331.241 97.1312 331.461 98.027 331.667C98.8052 331.843 99.3192 331.99 99.5541 332.108C99.9946 332.313 100.23 332.607 100.23 332.974C100.23 333.649 99.6128 334.002 98.4087 334.002C97.8214 334.002 97.4102 333.899 97.1459 333.708C96.8816 333.503 96.6907 333.135 96.6026 332.621H95.0754C95.2517 334.384 96.3676 335.279 98.4528 335.279C100.699 335.279 101.83 334.472 101.83 332.871C101.83 332.196 101.522 331.667 100.92 331.285C100.509 331.021 99.8625 330.771 98.9961 330.566C98.2325 330.375 97.7333 330.228 97.469 330.111C97.0578 329.92 96.8522 329.699 96.8522 329.435C96.8522 329.141 96.9844 328.906 97.2634 328.76C97.4983 328.613 97.8507 328.554 98.3206 328.554C98.8493 328.554 99.2604 328.642 99.5247 328.818C99.7744 328.98 99.9506 329.259 100.068 329.67H101.581C101.404 328.069 100.318 327.276 98.35 327.276Z" fill="#FF00E5"/>
<path d="M108.549 324.589L107.976 330.463H109.474C109.679 330.081 109.958 329.802 110.34 329.626C110.693 329.45 111.089 329.376 111.559 329.376C112.264 329.376 112.792 329.582 113.174 329.993C113.556 330.404 113.747 330.977 113.747 331.711C113.747 332.387 113.527 332.915 113.086 333.326C112.646 333.723 112.102 333.928 111.456 333.928C110.869 333.928 110.399 333.796 110.046 333.532C109.65 333.238 109.415 332.783 109.356 332.196H107.785C107.859 333.165 108.27 333.943 109.019 334.501C109.694 335.015 110.502 335.279 111.441 335.279C112.484 335.279 113.38 334.971 114.129 334.354C114.922 333.664 115.333 332.783 115.333 331.696C115.333 330.566 115.01 329.685 114.393 329.039C113.776 328.392 112.969 328.069 111.985 328.069C111.515 328.069 111.074 328.143 110.693 328.304C110.267 328.451 109.9 328.686 109.577 329.024H109.533L109.841 325.999H114.863V324.589H108.549ZM120.364 324.384C119.13 324.384 118.176 324.898 117.5 325.94C116.884 326.895 116.575 328.187 116.575 329.832C116.575 331.461 116.884 332.754 117.5 333.723C118.176 334.751 119.13 335.279 120.364 335.279C121.597 335.279 122.552 334.751 123.227 333.723C123.844 332.754 124.152 331.447 124.152 329.832C124.152 328.202 123.844 326.909 123.227 325.94C122.552 324.898 121.597 324.384 120.364 324.384ZM120.364 325.735C121.215 325.735 121.832 326.205 122.184 327.159C122.434 327.805 122.566 328.701 122.566 329.832C122.566 330.947 122.434 331.843 122.184 332.504C121.832 333.444 121.215 333.928 120.364 333.928C119.497 333.928 118.895 333.444 118.543 332.504C118.278 331.843 118.161 330.947 118.161 329.832C118.161 328.701 118.278 327.805 118.543 327.159C118.895 326.205 119.497 325.735 120.364 325.735ZM135.82 329.332C134.998 329.332 134.367 329.611 133.926 330.199C133.53 330.698 133.339 331.373 133.339 332.21C133.339 333.033 133.53 333.693 133.926 334.222C134.367 334.78 134.998 335.074 135.82 335.074C136.628 335.074 137.245 334.78 137.685 334.222C138.067 333.708 138.272 333.033 138.272 332.21C138.272 331.373 138.067 330.698 137.685 330.199C137.245 329.611 136.628 329.332 135.82 329.332ZM134.367 324.384L128.493 335.279H129.682L135.571 324.384H134.367ZM128.273 324.589C127.45 324.589 126.819 324.868 126.378 325.456C125.982 325.955 125.791 326.63 125.791 327.467C125.791 328.29 125.982 328.95 126.378 329.479C126.819 330.037 127.45 330.331 128.273 330.331C129.08 330.331 129.697 330.037 130.138 329.479C130.519 328.965 130.725 328.29 130.725 327.467C130.725 326.63 130.519 325.955 130.138 325.456C129.697 324.868 129.08 324.589 128.273 324.589ZM135.82 330.345C136.187 330.345 136.452 330.536 136.613 330.933C136.745 331.241 136.819 331.667 136.819 332.21C136.819 332.739 136.745 333.15 136.628 333.458C136.452 333.855 136.187 334.061 135.82 334.061C135.438 334.061 135.159 333.87 134.983 333.488C134.851 333.165 134.792 332.739 134.792 332.21C134.792 331.652 134.851 331.226 134.983 330.918C135.159 330.536 135.438 330.345 135.82 330.345ZM128.273 325.602C128.64 325.602 128.904 325.793 129.066 326.19C129.198 326.498 129.271 326.924 129.271 327.467C129.271 327.996 129.198 328.407 129.08 328.716C128.904 329.112 128.64 329.318 128.273 329.318C127.891 329.318 127.612 329.127 127.436 328.745C127.303 328.422 127.245 327.996 127.245 327.467C127.245 326.909 127.303 326.484 127.436 326.175C127.612 325.793 127.891 325.602 128.273 325.602Z" fill="white"/>
<rect x="-6.10352e-05" y="320.542" width="17.6209" height="17.6209" rx="8.81046" fill="#FF00E5"/>
<path d="M218.08 324.589C217.728 324.971 217.287 325.309 216.758 325.632C216.23 325.926 215.745 326.131 215.275 326.249V327.834C216.244 327.555 217.052 327.115 217.683 326.513V335.074H219.284V324.589H218.08ZM225.234 324.384C224.118 324.384 223.208 324.751 222.532 325.514C221.871 326.219 221.534 327.159 221.519 328.334H223.12C223.149 327.482 223.325 326.851 223.678 326.41C224.015 325.955 224.515 325.735 225.175 325.735C225.792 325.735 226.277 325.881 226.6 326.175C226.923 326.469 227.084 326.909 227.084 327.497C227.084 328.113 226.835 328.686 226.365 329.215C226.071 329.523 225.572 329.92 224.867 330.419C223.678 331.241 222.885 331.873 222.503 332.328C221.798 333.121 221.46 334.031 221.46 335.074H228.685V333.664H223.443C223.663 333.091 224.338 332.431 225.469 331.682C226.512 330.977 227.231 330.419 227.642 329.993C228.318 329.244 228.67 328.422 228.67 327.511C228.67 326.586 228.347 325.837 227.716 325.25C227.07 324.663 226.233 324.384 225.234 324.384ZM235.39 324.589V335.074H236.99V327.585H237.049L240.265 335.074H241.645L244.861 327.585H244.92V335.074H246.52V324.589H244.626L240.984 332.989H240.94L237.284 324.589H235.39ZM251.931 327.276C250.785 327.276 249.86 327.658 249.17 328.422C248.48 329.171 248.142 330.125 248.142 331.285C248.142 332.431 248.48 333.385 249.155 334.119C249.86 334.883 250.785 335.279 251.931 335.279C253.076 335.279 254.001 334.883 254.706 334.119C255.381 333.385 255.719 332.431 255.719 331.285C255.719 330.125 255.367 329.171 254.691 328.422C254.001 327.658 253.076 327.276 251.931 327.276ZM251.931 328.554C252.65 328.554 253.208 328.833 253.619 329.406C253.972 329.89 254.148 330.522 254.148 331.285C254.148 332.034 253.972 332.651 253.619 333.15C253.208 333.708 252.65 334.002 251.931 334.002C251.211 334.002 250.653 333.708 250.257 333.15C249.904 332.666 249.743 332.049 249.743 331.285C249.743 330.522 249.904 329.89 250.257 329.406C250.653 328.833 251.211 328.554 251.931 328.554ZM261.045 327.276C260.575 327.276 260.149 327.365 259.767 327.57C259.385 327.761 259.048 328.04 258.754 328.422V327.482H257.197V335.074H258.754V330.507C258.813 329.89 259.033 329.406 259.385 329.053C259.708 328.73 260.105 328.583 260.545 328.583C261.72 328.583 262.322 329.229 262.322 330.522V335.074H263.879V330.39C263.879 328.304 262.924 327.276 261.045 327.276ZM267.963 325.03L266.407 325.676V327.482H264.997V328.774H266.407V333.179C266.407 333.782 266.539 334.237 266.833 334.56C267.126 334.898 267.611 335.074 268.257 335.074H269.505V333.782H268.507C268.316 333.782 268.184 333.723 268.096 333.635C268.007 333.532 267.963 333.385 267.963 333.179V328.774H269.696V327.482H267.963V325.03ZM270.949 324.384V335.074H272.506V330.815C272.506 330.155 272.667 329.611 273.005 329.185C273.328 328.76 273.754 328.554 274.283 328.554C274.87 328.554 275.325 328.73 275.619 329.097C275.883 329.45 276.03 329.949 276.03 330.624V335.074H277.587V330.36C277.587 329.362 277.366 328.598 276.926 328.084C276.456 327.541 275.766 327.276 274.855 327.276C274.371 327.276 273.945 327.365 273.563 327.57C273.137 327.776 272.785 328.113 272.506 328.554V324.384H270.949ZM282.187 327.276C281.276 327.276 280.527 327.467 279.955 327.864C279.382 328.246 279.103 328.789 279.103 329.479C279.103 330.125 279.397 330.639 279.984 331.006C280.336 331.241 280.968 331.461 281.864 331.667C282.642 331.843 283.156 331.99 283.391 332.108C283.831 332.313 284.066 332.607 284.066 332.974C284.066 333.649 283.45 334.002 282.245 334.002C281.658 334.002 281.247 333.899 280.983 333.708C280.718 333.503 280.527 333.135 280.439 332.621H278.912C279.088 334.384 280.204 335.279 282.289 335.279C284.536 335.279 285.667 334.472 285.667 332.871C285.667 332.196 285.358 331.667 284.756 331.285C284.345 331.021 283.699 330.771 282.833 330.566C282.069 330.375 281.57 330.228 281.306 330.111C280.894 329.92 280.689 329.699 280.689 329.435C280.689 329.141 280.821 328.906 281.1 328.76C281.335 328.613 281.687 328.554 282.157 328.554C282.686 328.554 283.097 328.642 283.361 328.818C283.611 328.98 283.787 329.259 283.905 329.67H285.417C285.241 328.069 284.154 327.276 282.187 327.276Z" fill="#00BFF9"/>
<path d="M292.385 324.589L291.813 330.463H293.31C293.516 330.081 293.795 329.802 294.177 329.626C294.529 329.45 294.926 329.376 295.396 329.376C296.1 329.376 296.629 329.582 297.011 329.993C297.393 330.404 297.584 330.977 297.584 331.711C297.584 332.387 297.363 332.915 296.923 333.326C296.482 333.723 295.939 333.928 295.293 333.928C294.705 333.928 294.236 333.796 293.883 333.532C293.487 333.238 293.252 332.783 293.193 332.196H291.622C291.695 333.165 292.106 333.943 292.855 334.501C293.531 335.015 294.338 335.279 295.278 335.279C296.321 335.279 297.216 334.971 297.965 334.354C298.758 333.664 299.169 332.783 299.169 331.696C299.169 330.566 298.846 329.685 298.23 329.039C297.613 328.392 296.805 328.069 295.821 328.069C295.352 328.069 294.911 328.143 294.529 328.304C294.103 328.451 293.736 328.686 293.413 329.024H293.369L293.678 325.999H298.7V324.589H292.385ZM304.2 324.384C302.967 324.384 302.012 324.898 301.337 325.94C300.72 326.895 300.412 328.187 300.412 329.832C300.412 331.461 300.72 332.754 301.337 333.723C302.012 334.751 302.967 335.279 304.2 335.279C305.434 335.279 306.388 334.751 307.064 333.723C307.68 332.754 307.989 331.447 307.989 329.832C307.989 328.202 307.68 326.909 307.064 325.94C306.388 324.898 305.434 324.384 304.2 324.384ZM304.2 325.735C305.052 325.735 305.669 326.205 306.021 327.159C306.271 327.805 306.403 328.701 306.403 329.832C306.403 330.947 306.271 331.843 306.021 332.504C305.669 333.444 305.052 333.928 304.2 333.928C303.334 333.928 302.732 333.444 302.379 332.504C302.115 331.843 301.998 330.947 301.998 329.832C301.998 328.701 302.115 327.805 302.379 327.159C302.732 326.205 303.334 325.735 304.2 325.735ZM319.657 329.332C318.835 329.332 318.203 329.611 317.763 330.199C317.366 330.698 317.175 331.373 317.175 332.21C317.175 333.033 317.366 333.693 317.763 334.222C318.203 334.78 318.835 335.074 319.657 335.074C320.465 335.074 321.081 334.78 321.522 334.222C321.904 333.708 322.109 333.033 322.109 332.21C322.109 331.373 321.904 330.698 321.522 330.199C321.081 329.611 320.465 329.332 319.657 329.332ZM318.203 324.384L312.33 335.279H313.519L319.407 324.384H318.203ZM312.109 324.589C311.287 324.589 310.656 324.868 310.215 325.456C309.819 325.955 309.628 326.63 309.628 327.467C309.628 328.29 309.819 328.95 310.215 329.479C310.656 330.037 311.287 330.331 312.109 330.331C312.917 330.331 313.534 330.037 313.974 329.479C314.356 328.965 314.562 328.29 314.562 327.467C314.562 326.63 314.356 325.955 313.974 325.456C313.534 324.868 312.917 324.589 312.109 324.589ZM319.657 330.345C320.024 330.345 320.288 330.536 320.45 330.933C320.582 331.241 320.655 331.667 320.655 332.21C320.655 332.739 320.582 333.15 320.465 333.458C320.288 333.855 320.024 334.061 319.657 334.061C319.275 334.061 318.996 333.87 318.82 333.488C318.688 333.165 318.629 332.739 318.629 332.21C318.629 331.652 318.688 331.226 318.82 330.918C318.996 330.536 319.275 330.345 319.657 330.345ZM312.109 325.602C312.476 325.602 312.741 325.793 312.902 326.19C313.034 326.498 313.108 326.924 313.108 327.467C313.108 327.996 313.034 328.407 312.917 328.716C312.741 329.112 312.476 329.318 312.109 329.318C311.728 329.318 311.449 329.127 311.272 328.745C311.14 328.422 311.081 327.996 311.081 327.467C311.081 326.909 311.14 326.484 311.272 326.175C311.449 325.793 311.728 325.602 312.109 325.602Z" fill="white"/>
<rect x="183.837" y="320.542" width="17.6209" height="17.6209" rx="8.81046" fill="#00BFF9"/>
<path d="M162 0.0737305C181.042 0.0737305 199.897 3.82427 217.489 11.1112C235.081 18.3981 251.066 29.0788 264.53 42.5432C277.995 56.0077 288.676 71.9924 295.963 89.5846C303.249 107.177 307 126.032 307 145.074C307 164.115 303.249 182.971 295.963 200.563C288.676 218.155 277.995 234.14 264.53 247.604C251.066 261.069 235.081 271.749 217.489 279.036C199.897 286.323 181.042 290.074 162 290.074L162 228.26C172.924 228.26 183.741 226.109 193.834 221.928C203.927 217.748 213.097 211.62 220.822 203.895C228.546 196.171 234.674 187 238.854 176.908C243.035 166.815 245.187 155.998 245.187 145.074C245.187 134.15 243.035 123.332 238.854 113.24C234.674 103.147 228.546 93.9766 220.822 86.252C213.097 78.5274 203.927 72.3999 193.834 68.2194C183.741 64.0389 172.924 61.8872 162 61.8872V0.0737305Z" fill="#3DD2FF"/>
<path d="M162 290.074C142.958 290.074 124.103 286.323 106.511 279.036C88.9187 271.749 72.934 261.069 59.4695 247.604C46.005 234.14 35.3244 218.155 28.0375 200.563C20.7505 182.971 17 164.115 17 145.074C17 126.032 20.7505 107.177 28.0375 89.5846C35.3244 71.9924 46.005 56.0077 59.4695 42.5432C72.934 29.0787 88.9187 18.3981 106.511 11.1112C124.103 3.82426 142.958 0.0737288 162 0.0737305L162 61.8872C151.076 61.8872 140.259 64.0389 130.166 68.2194C120.073 72.3999 110.903 78.5274 103.178 86.252C95.4537 93.9766 89.3262 103.147 85.1457 113.24C80.9652 123.332 78.8135 134.15 78.8135 145.074C78.8135 155.998 80.9652 166.815 85.1457 176.908C89.3262 187 95.4537 196.171 103.178 203.895C110.903 211.62 120.073 217.748 130.166 221.928C140.259 226.109 151.076 228.26 162 228.26L162 290.074Z" fill="#FF00E5"/>
</svg>
