<svg width="580" height="397" viewBox="0 0 580 397" fill="none" xmlns="http://www.w3.org/2000/svg">
<path d="M262.376 191.221H264.952C265.673 191.221 266.24 191.787 266.24 192.483V202.812C266.24 203.507 266.806 204.074 267.528 204.074C268.249 204.074 268.815 203.507 268.815 202.812V192.483C268.815 191.787 269.382 191.221 270.103 191.221H272.679C273.4 191.221 273.967 190.628 273.967 189.933V187.331C273.967 186.636 273.4 186.043 272.679 186.043H262.376C261.655 186.043 261.088 186.636 261.088 187.331V189.933C261.088 190.628 261.655 191.221 262.376 191.221ZM284.909 191.195H279.757C279.036 191.195 278.469 191.787 278.469 192.483V192.509C278.469 193.204 277.903 193.771 277.182 193.771C276.46 193.771 275.894 194.363 275.894 195.059V200.236C275.894 200.931 276.46 201.498 277.182 201.498C277.903 201.498 278.469 202.09 278.469 202.786V202.812C278.469 203.507 279.036 204.074 279.757 204.074H287.485C288.206 204.074 288.772 203.507 288.772 202.812V202.786C288.772 202.09 288.206 201.498 287.485 201.498H282.333C281.612 201.498 281.045 200.931 281.045 200.21C281.045 199.515 281.612 198.948 282.333 198.948H287.485C288.206 198.948 288.772 198.356 288.772 197.66V195.059C288.772 194.363 288.206 193.771 287.485 193.771C286.763 193.771 286.197 193.204 286.197 192.509V192.483C286.197 191.787 285.63 191.195 284.909 191.195ZM283.621 195.059C283.621 195.78 283.054 196.346 282.333 196.346C281.612 196.346 281.045 195.78 281.045 195.059C281.045 194.363 281.612 193.796 282.333 193.796C283.054 193.796 283.621 194.363 283.621 195.059ZM300.25 192.509V192.483C300.25 191.787 299.684 191.195 298.962 191.195H293.811C293.09 191.195 292.523 191.787 292.523 192.483V192.509C292.523 193.204 293.09 193.796 293.811 193.796H296.387C297.108 193.796 297.675 194.363 297.675 195.059C297.675 195.78 297.108 196.346 296.387 196.346H293.811C293.09 196.346 292.523 196.939 292.523 197.634C292.523 198.356 291.956 198.922 291.235 198.922C290.514 198.922 289.947 199.515 289.947 200.21V200.236C289.947 200.931 290.514 201.498 291.235 201.498C291.956 201.498 292.523 202.09 292.523 202.786V202.812C292.523 203.507 293.09 204.074 293.811 204.074H296.387C297.108 204.074 297.675 203.507 297.675 202.812V202.786C297.675 202.09 298.241 201.498 298.962 201.498C299.684 201.498 300.25 202.09 300.25 202.786V202.812C300.25 203.507 300.817 204.074 301.538 204.074C302.259 204.074 302.826 203.507 302.826 202.812V195.059C302.826 194.363 302.259 193.771 301.538 193.771C300.817 193.771 300.25 193.204 300.25 192.509ZM295.099 200.21C295.099 199.515 295.665 198.948 296.387 198.948C297.108 198.948 297.675 199.515 297.675 200.21C297.675 200.931 297.108 201.498 296.387 201.498C295.665 201.498 295.099 200.931 295.099 200.21ZM311.839 193.771C311.117 193.771 310.551 193.204 310.551 192.509V192.483C310.551 191.787 309.984 191.195 309.263 191.195H306.687C305.966 191.195 305.399 191.787 305.399 192.483V202.812C305.399 203.507 305.966 204.074 306.687 204.074C307.408 204.074 307.975 203.507 307.975 202.812V197.634C307.975 196.939 308.542 196.372 309.263 196.372C309.984 196.372 310.551 196.939 310.551 197.634V202.812C310.551 203.507 311.117 204.074 311.839 204.074C312.56 204.074 313.126 203.507 313.126 202.812V197.634C313.126 196.939 313.693 196.372 314.414 196.372C315.136 196.372 315.702 196.939 315.702 197.634V202.812C315.702 203.507 316.269 204.074 316.99 204.074C317.711 204.074 318.278 203.507 318.278 202.812V192.483C318.278 191.787 317.711 191.195 316.99 191.195H314.414C313.693 191.195 313.126 191.787 313.126 192.483V192.509C313.126 193.204 312.56 193.771 311.839 193.771Z" fill="white"/>
<path d="M35.4034 377.384C34.2874 377.384 33.377 377.751 32.7015 378.514C32.0407 379.219 31.703 380.159 31.6883 381.334H33.2889C33.3182 380.482 33.4944 379.851 33.8468 379.41C34.1846 378.955 34.6838 378.735 35.3446 378.735C35.9614 378.735 36.4459 378.881 36.769 379.175C37.092 379.469 37.2536 379.909 37.2536 380.497C37.2536 381.113 37.0039 381.686 36.534 382.215C36.2404 382.523 35.7411 382.92 35.0363 383.419C33.8468 384.241 33.0539 384.873 32.6721 385.328C31.9673 386.121 31.6296 387.031 31.6296 388.074H38.8541V386.664H33.6119C33.8322 386.091 34.5076 385.431 35.6383 384.682C36.6809 383.977 37.4004 383.419 37.8116 382.993C38.487 382.244 38.8394 381.422 38.8394 380.511C38.8394 379.586 38.5164 378.837 37.885 378.25C37.2389 377.663 36.4019 377.384 35.4034 377.384ZM45.1038 377.589L39.935 384.285V385.798H45.0451V388.074H46.5722V385.798H48.1581V384.52H46.5722V377.589H45.1038ZM45.001 379.616H45.0451V384.52H41.2419L45.001 379.616ZM54.3639 377.589V388.074H55.9644V380.585H56.0232L59.239 388.074H60.6193L63.8351 380.585H63.8938V388.074H65.4944V377.589H63.6002L59.9585 385.989H59.9144L56.2581 377.589H54.3639ZM70.9046 380.276C69.7592 380.276 68.8341 380.658 68.144 381.422C67.4538 382.171 67.1161 383.125 67.1161 384.285C67.1161 385.431 67.4538 386.385 68.1293 387.119C68.8341 387.883 69.7592 388.279 70.9046 388.279C72.0499 388.279 72.975 387.883 73.6799 387.119C74.3553 386.385 74.6931 385.431 74.6931 384.285C74.6931 383.125 74.3406 382.171 73.6652 381.422C72.975 380.658 72.0499 380.276 70.9046 380.276ZM70.9046 381.554C71.6241 381.554 72.1821 381.833 72.5932 382.406C72.9457 382.89 73.1219 383.522 73.1219 384.285C73.1219 385.034 72.9457 385.651 72.5932 386.15C72.1821 386.708 71.6241 387.002 70.9046 387.002C70.185 387.002 69.6271 386.708 69.2306 386.15C68.8782 385.666 68.7166 385.049 68.7166 384.285C68.7166 383.522 68.8782 382.89 69.2306 382.406C69.6271 381.833 70.185 381.554 70.9046 381.554ZM80.0187 380.276C79.5488 380.276 79.123 380.365 78.7412 380.57C78.3594 380.761 78.0217 381.04 77.728 381.422V380.482H76.1715V388.074H77.728V383.507C77.7867 382.89 78.007 382.406 78.3594 382.053C78.6824 381.73 79.0789 381.583 79.5194 381.583C80.6942 381.583 81.2962 382.229 81.2962 383.522V388.074H82.8527V383.39C82.8527 381.304 81.8983 380.276 80.0187 380.276ZM86.9374 378.03L85.3809 378.676V380.482H83.9712V381.774H85.3809V386.179C85.3809 386.782 85.5131 387.237 85.8067 387.56C86.1004 387.898 86.585 388.074 87.2311 388.074H88.4793V386.782H87.4807C87.2898 386.782 87.1577 386.723 87.0696 386.635C86.9815 386.532 86.9374 386.385 86.9374 386.179V381.774H88.6701V380.482H86.9374V378.03ZM89.9235 377.384V388.074H91.48V383.815C91.48 383.155 91.6415 382.611 91.9792 382.185C92.3023 381.76 92.7281 381.554 93.2567 381.554C93.8441 381.554 94.2993 381.73 94.593 382.097C94.8573 382.45 95.0042 382.949 95.0042 383.624V388.074H96.5607V383.36C96.5607 382.362 96.3404 381.598 95.8999 381.084C95.43 380.541 94.7398 380.276 93.8294 380.276C93.3449 380.276 92.919 380.365 92.5372 380.57C92.1114 380.776 91.759 381.113 91.48 381.554V377.384H89.9235ZM101.161 380.276C100.25 380.276 99.5014 380.467 98.9287 380.864C98.356 381.246 98.077 381.789 98.077 382.479C98.077 383.125 98.3707 383.639 98.9581 384.006C99.3105 384.241 99.9419 384.461 100.838 384.667C101.616 384.843 102.13 384.99 102.365 385.108C102.805 385.313 103.04 385.607 103.04 385.974C103.04 386.649 102.424 387.002 101.219 387.002C100.632 387.002 100.221 386.899 99.9566 386.708C99.6923 386.503 99.5014 386.135 99.4133 385.621H97.8861C98.0623 387.384 99.1783 388.279 101.263 388.279C103.51 388.279 104.641 387.472 104.641 385.871C104.641 385.196 104.332 384.667 103.73 384.285C103.319 384.021 102.673 383.771 101.807 383.566C101.043 383.375 100.544 383.228 100.28 383.111C99.8685 382.92 99.6629 382.699 99.6629 382.435C99.6629 382.141 99.7951 381.906 100.074 381.76C100.309 381.613 100.661 381.554 101.131 381.554C101.66 381.554 102.071 381.642 102.335 381.818C102.585 381.98 102.761 382.259 102.879 382.67H104.391C104.215 381.069 103.128 380.276 101.161 380.276Z" fill="#00BFF9"/>
<path d="M114.472 377.384C113.445 377.384 112.608 377.663 111.961 378.25C111.271 378.837 110.889 379.645 110.801 380.688H112.373C112.431 380.042 112.652 379.557 113.004 379.234C113.356 378.911 113.856 378.749 114.487 378.749C115.104 378.749 115.588 378.881 115.911 379.175C116.205 379.454 116.367 379.851 116.367 380.379C116.367 380.908 116.19 381.319 115.867 381.598C115.544 381.877 115.06 382.024 114.414 382.024H113.665V383.228H114.428C115.118 383.228 115.647 383.375 116 383.669C116.381 383.962 116.572 384.417 116.572 385.034C116.572 385.563 116.381 385.989 116.029 386.341C115.618 386.723 115.074 386.928 114.399 386.928C113.782 386.928 113.283 386.752 112.901 386.4C112.461 386.018 112.24 385.475 112.211 384.77H110.596C110.684 385.945 111.095 386.84 111.829 387.457C112.475 388 113.342 388.279 114.414 388.279C115.53 388.279 116.455 387.956 117.16 387.34C117.82 386.723 118.158 385.93 118.158 384.961C118.158 384.344 117.982 383.83 117.629 383.434C117.306 383.052 116.837 382.758 116.22 382.567C117.365 382.185 117.953 381.407 117.953 380.262C117.953 379.366 117.629 378.661 117.013 378.147C116.367 377.633 115.53 377.384 114.472 377.384ZM123.277 377.384C122.249 377.384 121.412 377.663 120.766 378.25C120.076 378.837 119.694 379.645 119.606 380.688H121.177C121.236 380.042 121.456 379.557 121.809 379.234C122.161 378.911 122.66 378.749 123.292 378.749C123.909 378.749 124.393 378.881 124.716 379.175C125.01 379.454 125.171 379.851 125.171 380.379C125.171 380.908 124.995 381.319 124.672 381.598C124.349 381.877 123.864 382.024 123.218 382.024H122.469V383.228H123.233C123.923 383.228 124.452 383.375 124.804 383.669C125.186 383.962 125.377 384.417 125.377 385.034C125.377 385.563 125.186 385.989 124.834 386.341C124.422 386.723 123.879 386.928 123.204 386.928C122.587 386.928 122.088 386.752 121.706 386.4C121.265 386.018 121.045 385.475 121.016 384.77H119.401C119.489 385.945 119.9 386.84 120.634 387.457C121.28 388 122.146 388.279 123.218 388.279C124.334 388.279 125.259 387.956 125.964 387.34C126.625 386.723 126.963 385.93 126.963 384.961C126.963 384.344 126.787 383.83 126.434 383.434C126.111 383.052 125.641 382.758 125.025 382.567C126.17 382.185 126.757 381.407 126.757 380.262C126.757 379.366 126.434 378.661 125.817 378.147C125.171 377.633 124.334 377.384 123.277 377.384ZM129.571 385.974C129.248 385.974 128.998 386.077 128.807 386.282C128.587 386.488 128.484 386.752 128.484 387.075C128.484 387.369 128.587 387.633 128.807 387.853C128.998 388.044 129.248 388.147 129.571 388.147C129.865 388.147 130.129 388.044 130.349 387.853C130.555 387.633 130.672 387.369 130.672 387.075C130.672 386.752 130.555 386.488 130.349 386.282C130.129 386.077 129.865 385.974 129.571 385.974ZM136.083 377.384C135.055 377.384 134.218 377.663 133.572 378.25C132.882 378.837 132.5 379.645 132.412 380.688H133.983C134.042 380.042 134.262 379.557 134.614 379.234C134.967 378.911 135.466 378.749 136.097 378.749C136.714 378.749 137.199 378.881 137.522 379.175C137.815 379.454 137.977 379.851 137.977 380.379C137.977 380.908 137.801 381.319 137.478 381.598C137.155 381.877 136.67 382.024 136.024 382.024H135.275V383.228H136.039C136.729 383.228 137.257 383.375 137.61 383.669C137.992 383.962 138.183 384.417 138.183 385.034C138.183 385.563 137.992 385.989 137.639 386.341C137.228 386.723 136.685 386.928 136.009 386.928C135.393 386.928 134.893 386.752 134.511 386.4C134.071 386.018 133.851 385.475 133.821 384.77H132.206C132.294 385.945 132.705 386.84 133.44 387.457C134.086 388 134.952 388.279 136.024 388.279C137.14 388.279 138.065 387.956 138.77 387.34C139.431 386.723 139.768 385.93 139.768 384.961C139.768 384.344 139.592 383.83 139.24 383.434C138.917 383.052 138.447 382.758 137.83 382.567C138.975 382.185 139.563 381.407 139.563 380.262C139.563 379.366 139.24 378.661 138.623 378.147C137.977 377.633 137.14 377.384 136.083 377.384ZM144.887 377.384C143.86 377.384 143.023 377.663 142.376 378.25C141.686 378.837 141.304 379.645 141.216 380.688H142.788C142.846 380.042 143.067 379.557 143.419 379.234C143.771 378.911 144.271 378.749 144.902 378.749C145.519 378.749 146.003 378.881 146.326 379.175C146.62 379.454 146.782 379.851 146.782 380.379C146.782 380.908 146.605 381.319 146.282 381.598C145.959 381.877 145.475 382.024 144.829 382.024H144.08V383.228H144.843C145.534 383.228 146.062 383.375 146.415 383.669C146.796 383.962 146.987 384.417 146.987 385.034C146.987 385.563 146.796 385.989 146.444 386.341C146.033 386.723 145.489 386.928 144.814 386.928C144.197 386.928 143.698 386.752 143.316 386.4C142.876 386.018 142.655 385.475 142.626 384.77H141.011C141.099 385.945 141.51 386.84 142.244 387.457C142.89 388 143.757 388.279 144.829 388.279C145.945 388.279 146.87 387.956 147.575 387.34C148.235 386.723 148.573 385.93 148.573 384.961C148.573 384.344 148.397 383.83 148.044 383.434C147.721 383.052 147.252 382.758 146.635 382.567C147.78 382.185 148.368 381.407 148.368 380.262C148.368 379.366 148.044 378.661 147.428 378.147C146.782 377.633 145.945 377.384 144.887 377.384ZM160.241 382.332C159.419 382.332 158.788 382.611 158.347 383.199C157.951 383.698 157.76 384.373 157.76 385.21C157.76 386.033 157.951 386.693 158.347 387.222C158.788 387.78 159.419 388.074 160.241 388.074C161.049 388.074 161.666 387.78 162.106 387.222C162.488 386.708 162.693 386.033 162.693 385.21C162.693 384.373 162.488 383.698 162.106 383.199C161.666 382.611 161.049 382.332 160.241 382.332ZM158.788 377.384L152.914 388.279H154.103L159.992 377.384H158.788ZM152.694 377.589C151.871 377.589 151.24 377.868 150.799 378.456C150.403 378.955 150.212 379.63 150.212 380.467C150.212 381.29 150.403 381.95 150.799 382.479C151.24 383.037 151.871 383.331 152.694 383.331C153.501 383.331 154.118 383.037 154.558 382.479C154.94 381.965 155.146 381.29 155.146 380.467C155.146 379.63 154.94 378.955 154.558 378.456C154.118 377.868 153.501 377.589 152.694 377.589ZM160.241 383.345C160.608 383.345 160.873 383.536 161.034 383.933C161.166 384.241 161.24 384.667 161.24 385.21C161.24 385.739 161.166 386.15 161.049 386.458C160.873 386.855 160.608 387.061 160.241 387.061C159.859 387.061 159.58 386.87 159.404 386.488C159.272 386.165 159.213 385.739 159.213 385.21C159.213 384.652 159.272 384.226 159.404 383.918C159.58 383.536 159.859 383.345 160.241 383.345ZM152.694 378.602C153.061 378.602 153.325 378.793 153.487 379.19C153.619 379.498 153.692 379.924 153.692 380.467C153.692 380.996 153.619 381.407 153.501 381.716C153.325 382.112 153.061 382.318 152.694 382.318C152.312 382.318 152.033 382.127 151.857 381.745C151.724 381.422 151.666 380.996 151.666 380.467C151.666 379.909 151.724 379.484 151.857 379.175C152.033 378.793 152.312 378.602 152.694 378.602Z" fill="white"/>
<rect y="373.542" width="17.6209" height="17.6209" rx="8.81046" fill="#00BFF9"/>
<path d="M243.181 377.384C242.153 377.384 241.316 377.663 240.67 378.25C239.98 378.837 239.598 379.645 239.51 380.688H241.081C241.14 380.042 241.36 379.557 241.713 379.234C242.065 378.911 242.564 378.749 243.196 378.749C243.813 378.749 244.297 378.881 244.62 379.175C244.914 379.454 245.075 379.851 245.075 380.379C245.075 380.908 244.899 381.319 244.576 381.598C244.253 381.877 243.769 382.024 243.122 382.024H242.374V383.228H243.137C243.827 383.228 244.356 383.375 244.708 383.669C245.09 383.962 245.281 384.417 245.281 385.034C245.281 385.563 245.09 385.989 244.738 386.341C244.327 386.723 243.783 386.928 243.108 386.928C242.491 386.928 241.992 386.752 241.61 386.4C241.169 386.018 240.949 385.475 240.92 384.77H239.305C239.393 385.945 239.804 386.84 240.538 387.457C241.184 388 242.05 388.279 243.122 388.279C244.238 388.279 245.164 387.956 245.868 387.34C246.529 386.723 246.867 385.93 246.867 384.961C246.867 384.344 246.691 383.83 246.338 383.434C246.015 383.052 245.545 382.758 244.929 382.567C246.074 382.185 246.661 381.407 246.661 380.262C246.661 379.366 246.338 378.661 245.722 378.147C245.075 377.633 244.238 377.384 243.181 377.384ZM252.03 377.384C250.826 377.384 249.857 377.912 249.152 378.984C248.447 380.042 248.109 381.422 248.109 383.125C248.109 384.726 248.432 385.974 249.078 386.87C249.754 387.809 250.723 388.279 252.015 388.279C253.043 388.279 253.924 387.927 254.629 387.251C255.319 386.576 255.672 385.71 255.672 384.667C255.672 383.639 255.363 382.787 254.761 382.127C254.144 381.481 253.322 381.158 252.294 381.158C251.736 381.158 251.252 381.26 250.841 381.481C250.385 381.701 250.018 382.039 249.725 382.508H249.666C249.651 382.42 249.651 382.362 249.651 382.318C249.651 381.29 249.857 380.453 250.283 379.777C250.708 379.058 251.281 378.705 252.015 378.705C253.073 378.705 253.704 379.205 253.924 380.232H255.481C255.216 378.323 254.056 377.384 252.03 377.384ZM251.971 382.45C252.617 382.45 253.146 382.655 253.528 383.066C253.91 383.448 254.1 383.992 254.1 384.667C254.1 385.328 253.895 385.871 253.498 386.312C253.117 386.737 252.603 386.958 251.957 386.958C251.325 386.958 250.811 386.752 250.429 386.341C250.033 385.93 249.842 385.387 249.842 384.711C249.842 384.021 250.033 383.478 250.415 383.066C250.796 382.655 251.31 382.45 251.971 382.45ZM262.2 377.589V388.074H263.801V380.585H263.86L267.076 388.074H268.456L271.672 380.585H271.73V388.074H273.331V377.589H271.437L267.795 385.989H267.751L264.095 377.589H262.2ZM278.741 380.276C277.596 380.276 276.671 380.658 275.981 381.422C275.29 382.171 274.953 383.125 274.953 384.285C274.953 385.431 275.29 386.385 275.966 387.119C276.671 387.883 277.596 388.279 278.741 388.279C279.886 388.279 280.812 387.883 281.516 387.119C282.192 386.385 282.53 385.431 282.53 384.285C282.53 383.125 282.177 382.171 281.502 381.422C280.812 380.658 279.886 380.276 278.741 380.276ZM278.741 381.554C279.461 381.554 280.019 381.833 280.43 382.406C280.782 382.89 280.958 383.522 280.958 384.285C280.958 385.034 280.782 385.651 280.43 386.15C280.019 386.708 279.461 387.002 278.741 387.002C278.022 387.002 277.464 386.708 277.067 386.15C276.715 385.666 276.553 385.049 276.553 384.285C276.553 383.522 276.715 382.89 277.067 382.406C277.464 381.833 278.022 381.554 278.741 381.554ZM287.855 380.276C287.385 380.276 286.96 380.365 286.578 380.57C286.196 380.761 285.858 381.04 285.565 381.422V380.482H284.008V388.074H285.565V383.507C285.623 382.89 285.844 382.406 286.196 382.053C286.519 381.73 286.915 381.583 287.356 381.583C288.531 381.583 289.133 382.229 289.133 383.522V388.074H290.689V383.39C290.689 381.304 289.735 380.276 287.855 380.276ZM294.774 378.03L293.217 378.676V380.482H291.808V381.774H293.217V386.179C293.217 386.782 293.35 387.237 293.643 387.56C293.937 387.898 294.422 388.074 295.068 388.074H296.316V386.782H295.317C295.126 386.782 294.994 386.723 294.906 386.635C294.818 386.532 294.774 386.385 294.774 386.179V381.774H296.507V380.482H294.774V378.03ZM297.76 377.384V388.074H299.317V383.815C299.317 383.155 299.478 382.611 299.816 382.185C300.139 381.76 300.565 381.554 301.093 381.554C301.681 381.554 302.136 381.73 302.43 382.097C302.694 382.45 302.841 382.949 302.841 383.624V388.074H304.397V383.36C304.397 382.362 304.177 381.598 303.736 381.084C303.267 380.541 302.576 380.276 301.666 380.276C301.181 380.276 300.756 380.365 300.374 380.57C299.948 380.776 299.596 381.113 299.317 381.554V377.384H297.76ZM308.997 380.276C308.087 380.276 307.338 380.467 306.765 380.864C306.193 381.246 305.914 381.789 305.914 382.479C305.914 383.125 306.207 383.639 306.795 384.006C307.147 384.241 307.778 384.461 308.674 384.667C309.452 384.843 309.966 384.99 310.201 385.108C310.642 385.313 310.877 385.607 310.877 385.974C310.877 386.649 310.26 387.002 309.056 387.002C308.469 387.002 308.057 386.899 307.793 386.708C307.529 386.503 307.338 386.135 307.25 385.621H305.723C305.899 387.384 307.015 388.279 309.1 388.279C311.347 388.279 312.477 387.472 312.477 385.871C312.477 385.196 312.169 384.667 311.567 384.285C311.156 384.021 310.51 383.771 309.643 383.566C308.88 383.375 308.381 383.228 308.116 383.111C307.705 382.92 307.499 382.699 307.499 382.435C307.499 382.141 307.632 381.906 307.911 381.76C308.146 381.613 308.498 381.554 308.968 381.554C309.497 381.554 309.908 381.642 310.172 381.818C310.422 381.98 310.598 382.259 310.715 382.67H312.228C312.052 381.069 310.965 380.276 308.997 380.276Z" fill="#FF5757"/>
<path d="M322.309 377.384C321.281 377.384 320.444 377.663 319.798 378.25C319.108 378.837 318.726 379.645 318.638 380.688H320.209C320.268 380.042 320.488 379.557 320.841 379.234C321.193 378.911 321.692 378.749 322.324 378.749C322.94 378.749 323.425 378.881 323.748 379.175C324.042 379.454 324.203 379.851 324.203 380.379C324.203 380.908 324.027 381.319 323.704 381.598C323.381 381.877 322.896 382.024 322.25 382.024H321.501V383.228H322.265C322.955 383.228 323.484 383.375 323.836 383.669C324.218 383.962 324.409 384.417 324.409 385.034C324.409 385.563 324.218 385.989 323.865 386.341C323.454 386.723 322.911 386.928 322.236 386.928C321.619 386.928 321.12 386.752 320.738 386.4C320.297 386.018 320.077 385.475 320.048 384.77H318.432C318.52 385.945 318.932 386.84 319.666 387.457C320.312 388 321.178 388.279 322.25 388.279C323.366 388.279 324.291 387.956 324.996 387.34C325.657 386.723 325.995 385.93 325.995 384.961C325.995 384.344 325.818 383.83 325.466 383.434C325.143 383.052 324.673 382.758 324.056 382.567C325.202 382.185 325.789 381.407 325.789 380.262C325.789 379.366 325.466 378.661 324.849 378.147C324.203 377.633 323.366 377.384 322.309 377.384ZM331.114 377.384C330.086 377.384 329.249 377.663 328.603 378.25C327.913 378.837 327.531 379.645 327.443 380.688H329.014C329.073 380.042 329.293 379.557 329.645 379.234C329.998 378.911 330.497 378.749 331.128 378.749C331.745 378.749 332.23 378.881 332.553 379.175C332.846 379.454 333.008 379.851 333.008 380.379C333.008 380.908 332.832 381.319 332.509 381.598C332.186 381.877 331.701 382.024 331.055 382.024H330.306V383.228H331.07C331.76 383.228 332.288 383.375 332.641 383.669C333.023 383.962 333.213 384.417 333.213 385.034C333.213 385.563 333.023 385.989 332.67 386.341C332.259 386.723 331.716 386.928 331.04 386.928C330.424 386.928 329.924 386.752 329.542 386.4C329.102 386.018 328.882 385.475 328.852 384.77H327.237C327.325 385.945 327.736 386.84 328.471 387.457C329.117 388 329.983 388.279 331.055 388.279C332.171 388.279 333.096 387.956 333.801 387.34C334.462 386.723 334.799 385.93 334.799 384.961C334.799 384.344 334.623 383.83 334.271 383.434C333.948 383.052 333.478 382.758 332.861 382.567C334.006 382.185 334.594 381.407 334.594 380.262C334.594 379.366 334.271 378.661 333.654 378.147C333.008 377.633 332.171 377.384 331.114 377.384ZM337.407 385.974C337.084 385.974 336.835 386.077 336.644 386.282C336.424 386.488 336.321 386.752 336.321 387.075C336.321 387.369 336.424 387.633 336.644 387.853C336.835 388.044 337.084 388.147 337.407 388.147C337.701 388.147 337.965 388.044 338.186 387.853C338.391 387.633 338.509 387.369 338.509 387.075C338.509 386.752 338.391 386.488 338.186 386.282C337.965 386.077 337.701 385.974 337.407 385.974ZM343.919 377.384C342.891 377.384 342.054 377.663 341.408 378.25C340.718 378.837 340.336 379.645 340.248 380.688H341.819C341.878 380.042 342.098 379.557 342.451 379.234C342.803 378.911 343.302 378.749 343.934 378.749C344.551 378.749 345.035 378.881 345.358 379.175C345.652 379.454 345.813 379.851 345.813 380.379C345.813 380.908 345.637 381.319 345.314 381.598C344.991 381.877 344.507 382.024 343.86 382.024H343.112V383.228H343.875C344.565 383.228 345.094 383.375 345.446 383.669C345.828 383.962 346.019 384.417 346.019 385.034C346.019 385.563 345.828 385.989 345.476 386.341C345.065 386.723 344.521 386.928 343.846 386.928C343.229 386.928 342.73 386.752 342.348 386.4C341.908 386.018 341.687 385.475 341.658 384.77H340.043C340.131 385.945 340.542 386.84 341.276 387.457C341.922 388 342.789 388.279 343.86 388.279C344.976 388.279 345.902 387.956 346.606 387.34C347.267 386.723 347.605 385.93 347.605 384.961C347.605 384.344 347.429 383.83 347.076 383.434C346.753 383.052 346.283 382.758 345.667 382.567C346.812 382.185 347.399 381.407 347.399 380.262C347.399 379.366 347.076 378.661 346.46 378.147C345.813 377.633 344.976 377.384 343.919 377.384ZM352.724 377.384C351.696 377.384 350.859 377.663 350.213 378.25C349.523 378.837 349.141 379.645 349.053 380.688H350.624C350.683 380.042 350.903 379.557 351.256 379.234C351.608 378.911 352.107 378.749 352.739 378.749C353.355 378.749 353.84 378.881 354.163 379.175C354.457 379.454 354.618 379.851 354.618 380.379C354.618 380.908 354.442 381.319 354.119 381.598C353.796 381.877 353.311 382.024 352.665 382.024H351.916V383.228H352.68C353.37 383.228 353.899 383.375 354.251 383.669C354.633 383.962 354.824 384.417 354.824 385.034C354.824 385.563 354.633 385.989 354.28 386.341C353.869 386.723 353.326 386.928 352.651 386.928C352.034 386.928 351.535 386.752 351.153 386.4C350.712 386.018 350.492 385.475 350.463 384.77H348.847C348.935 385.945 349.347 386.84 350.081 387.457C350.727 388 351.593 388.279 352.665 388.279C353.781 388.279 354.706 387.956 355.411 387.34C356.072 386.723 356.41 385.93 356.41 384.961C356.41 384.344 356.233 383.83 355.881 383.434C355.558 383.052 355.088 382.758 354.471 382.567C355.617 382.185 356.204 381.407 356.204 380.262C356.204 379.366 355.881 378.661 355.264 378.147C354.618 377.633 353.781 377.384 352.724 377.384ZM368.078 382.332C367.255 382.332 366.624 382.611 366.184 383.199C365.787 383.698 365.596 384.373 365.596 385.21C365.596 386.033 365.787 386.693 366.184 387.222C366.624 387.78 367.255 388.074 368.078 388.074C368.885 388.074 369.502 387.78 369.943 387.222C370.324 386.708 370.53 386.033 370.53 385.21C370.53 384.373 370.324 383.698 369.943 383.199C369.502 382.611 368.885 382.332 368.078 382.332ZM366.624 377.384L360.75 388.279H361.94L367.828 377.384H366.624ZM360.53 377.589C359.708 377.589 359.076 377.868 358.636 378.456C358.239 378.955 358.049 379.63 358.049 380.467C358.049 381.29 358.239 381.95 358.636 382.479C359.076 383.037 359.708 383.331 360.53 383.331C361.338 383.331 361.955 383.037 362.395 382.479C362.777 381.965 362.982 381.29 362.982 380.467C362.982 379.63 362.777 378.955 362.395 378.456C361.955 377.868 361.338 377.589 360.53 377.589ZM368.078 383.345C368.445 383.345 368.709 383.536 368.871 383.933C369.003 384.241 369.076 384.667 369.076 385.21C369.076 385.739 369.003 386.15 368.885 386.458C368.709 386.855 368.445 387.061 368.078 387.061C367.696 387.061 367.417 386.87 367.241 386.488C367.109 386.165 367.05 385.739 367.05 385.21C367.05 384.652 367.109 384.226 367.241 383.918C367.417 383.536 367.696 383.345 368.078 383.345ZM360.53 378.602C360.897 378.602 361.162 378.793 361.323 379.19C361.455 379.498 361.529 379.924 361.529 380.467C361.529 380.996 361.455 381.407 361.338 381.716C361.162 382.112 360.897 382.318 360.53 382.318C360.148 382.318 359.869 382.127 359.693 381.745C359.561 381.422 359.502 380.996 359.502 380.467C359.502 379.909 359.561 379.484 359.693 379.175C359.869 378.793 360.148 378.602 360.53 378.602Z" fill="white"/>
<rect x="207.837" y="373.542" width="17.6209" height="17.6209" rx="8.81046" fill="#FF5757"/>
<path d="M451.972 377.589L446.803 384.285V385.798H451.913V388.074H453.441V385.798H455.027V384.52H453.441V377.589H451.972ZM451.869 379.616H451.913V384.52H448.11L451.869 379.616ZM459.72 377.384C458.604 377.384 457.708 377.677 457.062 378.265C456.474 378.793 456.181 379.454 456.181 380.232C456.181 380.776 456.298 381.231 456.533 381.598C456.798 381.995 457.194 382.288 457.723 382.494V382.538C457.209 382.655 456.783 382.949 456.43 383.419C456.019 383.918 455.814 384.491 455.814 385.152C455.814 386.077 456.151 386.826 456.827 387.413C457.502 387.986 458.472 388.279 459.72 388.279C460.953 388.279 461.922 387.986 462.612 387.413C463.288 386.826 463.626 386.077 463.626 385.152C463.626 384.491 463.42 383.918 463.009 383.419C462.657 382.949 462.216 382.655 461.717 382.538V382.494C462.245 382.288 462.642 381.995 462.906 381.598C463.141 381.231 463.259 380.776 463.259 380.232C463.259 379.454 462.965 378.793 462.378 378.265C461.717 377.677 460.836 377.384 459.72 377.384ZM459.72 378.661C460.366 378.661 460.88 378.823 461.262 379.175C461.585 379.469 461.761 379.851 461.761 380.291C461.761 380.79 461.614 381.187 461.35 381.481C460.997 381.833 460.454 382.009 459.72 382.009C458.971 382.009 458.427 381.833 458.09 381.481C457.811 381.187 457.679 380.79 457.679 380.291C457.679 379.851 457.84 379.469 458.178 379.175C458.56 378.823 459.074 378.661 459.72 378.661ZM459.72 383.199C460.483 383.199 461.056 383.39 461.467 383.771C461.849 384.109 462.04 384.564 462.04 385.152C462.04 385.695 461.849 386.135 461.467 386.473C461.041 386.811 460.454 386.987 459.72 386.987C458.971 386.987 458.398 386.811 458.002 386.473C457.59 386.135 457.4 385.695 457.4 385.152C457.4 384.564 457.59 384.109 457.987 383.757C458.369 383.375 458.956 383.199 459.72 383.199ZM470.037 377.589V388.074H471.638V380.585H471.696L474.912 388.074H476.292L479.508 380.585H479.567V388.074H481.168V377.589H479.273L475.632 385.989H475.588L471.931 377.589H470.037ZM486.578 380.276C485.432 380.276 484.507 380.658 483.817 381.422C483.127 382.171 482.789 383.125 482.789 384.285C482.789 385.431 483.127 386.385 483.802 387.119C484.507 387.883 485.432 388.279 486.578 388.279C487.723 388.279 488.648 387.883 489.353 387.119C490.028 386.385 490.366 385.431 490.366 384.285C490.366 383.125 490.014 382.171 489.338 381.422C488.648 380.658 487.723 380.276 486.578 380.276ZM486.578 381.554C487.297 381.554 487.855 381.833 488.266 382.406C488.619 382.89 488.795 383.522 488.795 384.285C488.795 385.034 488.619 385.651 488.266 386.15C487.855 386.708 487.297 387.002 486.578 387.002C485.858 387.002 485.3 386.708 484.904 386.15C484.551 385.666 484.39 385.049 484.39 384.285C484.39 383.522 484.551 382.89 484.904 382.406C485.3 381.833 485.858 381.554 486.578 381.554ZM495.692 380.276C495.222 380.276 494.796 380.365 494.414 380.57C494.033 380.761 493.695 381.04 493.401 381.422V380.482H491.845V388.074H493.401V383.507C493.46 382.89 493.68 382.406 494.033 382.053C494.356 381.73 494.752 381.583 495.193 381.583C496.367 381.583 496.969 382.229 496.969 383.522V388.074H498.526V383.39C498.526 381.304 497.571 380.276 495.692 380.276ZM502.611 378.03L501.054 378.676V380.482H499.644V381.774H501.054V386.179C501.054 386.782 501.186 387.237 501.48 387.56C501.774 387.898 502.258 388.074 502.904 388.074H504.152V386.782H503.154C502.963 386.782 502.831 386.723 502.743 386.635C502.655 386.532 502.611 386.385 502.611 386.179V381.774H504.343V380.482H502.611V378.03ZM505.597 377.384V388.074H507.153V383.815C507.153 383.155 507.315 382.611 507.652 382.185C507.975 381.76 508.401 381.554 508.93 381.554C509.517 381.554 509.972 381.73 510.266 382.097C510.53 382.45 510.677 382.949 510.677 383.624V388.074H512.234V383.36C512.234 382.362 512.014 381.598 511.573 381.084C511.103 380.541 510.413 380.276 509.503 380.276C509.018 380.276 508.592 380.365 508.21 380.57C507.785 380.776 507.432 381.113 507.153 381.554V377.384H505.597ZM516.834 380.276C515.923 380.276 515.175 380.467 514.602 380.864C514.029 381.246 513.75 381.789 513.75 382.479C513.75 383.125 514.044 383.639 514.631 384.006C514.984 384.241 515.615 384.461 516.511 384.667C517.289 384.843 517.803 384.99 518.038 385.108C518.478 385.313 518.713 385.607 518.713 385.974C518.713 386.649 518.097 387.002 516.893 387.002C516.305 387.002 515.894 386.899 515.63 386.708C515.365 386.503 515.175 386.135 515.086 385.621H513.559C513.735 387.384 514.851 388.279 516.937 388.279C519.183 388.279 520.314 387.472 520.314 385.871C520.314 385.196 520.006 384.667 519.404 384.285C518.992 384.021 518.346 383.771 517.48 383.566C516.716 383.375 516.217 383.228 515.953 383.111C515.542 382.92 515.336 382.699 515.336 382.435C515.336 382.141 515.468 381.906 515.747 381.76C515.982 381.613 516.335 381.554 516.804 381.554C517.333 381.554 517.744 381.642 518.009 381.818C518.258 381.98 518.434 382.259 518.552 382.67H520.064C519.888 381.069 518.801 380.276 516.834 380.276Z" fill="#FF00E5"/>
<path d="M530.146 377.384C529.118 377.384 528.281 377.663 527.635 378.25C526.944 378.837 526.563 379.645 526.474 380.688H528.046C528.104 380.042 528.325 379.557 528.677 379.234C529.03 378.911 529.529 378.749 530.16 378.749C530.777 378.749 531.262 378.881 531.585 379.175C531.878 379.454 532.04 379.851 532.04 380.379C532.04 380.908 531.864 381.319 531.541 381.598C531.217 381.877 530.733 382.024 530.087 382.024H529.338V383.228H530.101C530.792 383.228 531.32 383.375 531.673 383.669C532.054 383.962 532.245 384.417 532.245 385.034C532.245 385.563 532.054 385.989 531.702 386.341C531.291 386.723 530.748 386.928 530.072 386.928C529.455 386.928 528.956 386.752 528.574 386.4C528.134 386.018 527.914 385.475 527.884 384.77H526.269C526.357 385.945 526.768 386.84 527.502 387.457C528.148 388 529.015 388.279 530.087 388.279C531.203 388.279 532.128 387.956 532.833 387.34C533.493 386.723 533.831 385.93 533.831 384.961C533.831 384.344 533.655 383.83 533.303 383.434C532.98 383.052 532.51 382.758 531.893 382.567C533.038 382.185 533.626 381.407 533.626 380.262C533.626 379.366 533.303 378.661 532.686 378.147C532.04 377.633 531.203 377.384 530.146 377.384ZM538.95 377.384C537.922 377.384 537.085 377.663 536.439 378.25C535.749 378.837 535.367 379.645 535.279 380.688H536.85C536.909 380.042 537.129 379.557 537.482 379.234C537.834 378.911 538.334 378.749 538.965 378.749C539.582 378.749 540.066 378.881 540.389 379.175C540.683 379.454 540.844 379.851 540.844 380.379C540.844 380.908 540.668 381.319 540.345 381.598C540.022 381.877 539.538 382.024 538.892 382.024H538.143V383.228H538.906C539.596 383.228 540.125 383.375 540.477 383.669C540.859 383.962 541.05 384.417 541.05 385.034C541.05 385.563 540.859 385.989 540.507 386.341C540.096 386.723 539.552 386.928 538.877 386.928C538.26 386.928 537.761 386.752 537.379 386.4C536.939 386.018 536.718 385.475 536.689 384.77H535.074C535.162 385.945 535.573 386.84 536.307 387.457C536.953 388 537.82 388.279 538.892 388.279C540.008 388.279 540.933 387.956 541.637 387.34C542.298 386.723 542.636 385.93 542.636 384.961C542.636 384.344 542.46 383.83 542.107 383.434C541.784 383.052 541.314 382.758 540.698 382.567C541.843 382.185 542.43 381.407 542.43 380.262C542.43 379.366 542.107 378.661 541.491 378.147C540.844 377.633 540.008 377.384 538.95 377.384ZM545.244 385.974C544.921 385.974 544.671 386.077 544.48 386.282C544.26 386.488 544.157 386.752 544.157 387.075C544.157 387.369 544.26 387.633 544.48 387.853C544.671 388.044 544.921 388.147 545.244 388.147C545.538 388.147 545.802 388.044 546.022 387.853C546.228 387.633 546.345 387.369 546.345 387.075C546.345 386.752 546.228 386.488 546.022 386.282C545.802 386.077 545.538 385.974 545.244 385.974ZM551.756 377.384C550.728 377.384 549.891 377.663 549.245 378.25C548.555 378.837 548.173 379.645 548.085 380.688H549.656C549.715 380.042 549.935 379.557 550.287 379.234C550.64 378.911 551.139 378.749 551.77 378.749C552.387 378.749 552.872 378.881 553.195 379.175C553.489 379.454 553.65 379.851 553.65 380.379C553.65 380.908 553.474 381.319 553.151 381.598C552.828 381.877 552.343 382.024 551.697 382.024H550.948V383.228H551.712C552.402 383.228 552.931 383.375 553.283 383.669C553.665 383.962 553.856 384.417 553.856 385.034C553.856 385.563 553.665 385.989 553.312 386.341C552.901 386.723 552.358 386.928 551.682 386.928C551.066 386.928 550.566 386.752 550.185 386.4C549.744 386.018 549.524 385.475 549.494 384.77H547.879C547.967 385.945 548.378 386.84 549.113 387.457C549.759 388 550.625 388.279 551.697 388.279C552.813 388.279 553.738 387.956 554.443 387.34C555.104 386.723 555.442 385.93 555.442 384.961C555.442 384.344 555.265 383.83 554.913 383.434C554.59 383.052 554.12 382.758 553.503 382.567C554.649 382.185 555.236 381.407 555.236 380.262C555.236 379.366 554.913 378.661 554.296 378.147C553.65 377.633 552.813 377.384 551.756 377.384ZM561.515 377.589L556.346 384.285V385.798H561.456V388.074H562.983V385.798H564.569V384.52H562.983V377.589H561.515ZM561.412 379.616H561.456V384.52H557.653L561.412 379.616ZM575.914 382.332C575.092 382.332 574.461 382.611 574.02 383.199C573.624 383.698 573.433 384.373 573.433 385.21C573.433 386.033 573.624 386.693 574.02 387.222C574.461 387.78 575.092 388.074 575.914 388.074C576.722 388.074 577.339 387.78 577.779 387.222C578.161 386.708 578.367 386.033 578.367 385.21C578.367 384.373 578.161 383.698 577.779 383.199C577.339 382.611 576.722 382.332 575.914 382.332ZM574.461 377.384L568.587 388.279H569.776L575.665 377.384H574.461ZM568.367 377.589C567.544 377.589 566.913 377.868 566.472 378.456C566.076 378.955 565.885 379.63 565.885 380.467C565.885 381.29 566.076 381.95 566.472 382.479C566.913 383.037 567.544 383.331 568.367 383.331C569.174 383.331 569.791 383.037 570.232 382.479C570.613 381.965 570.819 381.29 570.819 380.467C570.819 379.63 570.613 378.955 570.232 378.456C569.791 377.868 569.174 377.589 568.367 377.589ZM575.914 383.345C576.281 383.345 576.546 383.536 576.707 383.933C576.839 384.241 576.913 384.667 576.913 385.21C576.913 385.739 576.839 386.15 576.722 386.458C576.546 386.855 576.281 387.061 575.914 387.061C575.533 387.061 575.254 386.87 575.077 386.488C574.945 386.165 574.886 385.739 574.886 385.21C574.886 384.652 574.945 384.226 575.077 383.918C575.254 383.536 575.533 383.345 575.914 383.345ZM568.367 378.602C568.734 378.602 568.998 378.793 569.16 379.19C569.292 379.498 569.365 379.924 569.365 380.467C569.365 380.996 569.292 381.407 569.174 381.716C568.998 382.112 568.734 382.318 568.367 382.318C567.985 382.318 567.706 382.127 567.53 381.745C567.398 381.422 567.339 380.996 567.339 380.467C567.339 379.909 567.398 379.484 567.53 379.175C567.706 378.793 567.985 378.602 568.367 378.602Z" fill="white"/>
<rect x="415.673" y="373.542" width="17.6209" height="17.6209" rx="8.81046" fill="#FF00E5"/>
<path d="M217.5 72.5001C239.541 59.775 264.542 53.0751 289.992 53.0738C315.443 53.0724 340.445 59.7697 362.487 72.4925C384.529 85.2153 402.834 103.515 415.562 125.554C428.291 147.593 434.995 172.593 435 198.043L373.187 198.056C373.183 183.456 369.337 169.113 362.035 156.469C354.733 143.826 344.231 133.327 331.586 126.028C318.94 118.729 304.596 114.887 289.996 114.887C275.395 114.888 261.051 118.732 248.407 126.032L217.5 72.5001Z" fill="#3DD2FF"/>
<path d="M217.5 323.647C195.459 310.922 177.156 292.62 164.43 270.58C151.704 248.54 145.003 223.539 145 198.089C144.997 172.639 151.693 147.636 164.415 125.593C177.137 103.551 195.436 85.2449 217.474 72.5152L248.392 126.041C235.749 133.344 225.25 143.846 217.952 156.492C210.653 169.138 206.812 183.482 206.813 198.082C206.815 212.683 210.659 227.026 217.961 239.671C225.262 252.315 235.762 262.815 248.407 270.115L217.5 323.647Z" fill="#FF00E5"/>
<path d="M435 198.074C435 223.524 428.301 248.526 415.577 270.567C402.854 292.608 384.552 310.912 362.513 323.64C340.474 336.367 315.473 343.07 290.023 343.074C264.573 343.078 239.57 336.383 217.526 323.663L248.422 270.124C261.068 277.422 275.412 281.263 290.013 281.26C304.614 281.258 318.957 277.413 331.601 270.111C344.245 262.809 354.744 252.308 362.044 239.663C369.344 227.018 373.187 212.675 373.187 198.074H435Z" fill="#FF5757"/>
</svg>
