<svg width="700" height="434" viewBox="0 0 700 434" fill="none" xmlns="http://www.w3.org/2000/svg">
<path d="M263.061 191.221H265.637C266.358 191.221 266.924 191.787 266.924 192.483V202.812C266.924 203.507 267.491 204.074 268.212 204.074C268.933 204.074 269.5 203.507 269.5 202.812V192.483C269.5 191.787 270.067 191.221 270.788 191.221H273.364C274.085 191.221 274.652 190.628 274.652 189.933V187.331C274.652 186.636 274.085 186.043 273.364 186.043H263.061C262.34 186.043 261.773 186.636 261.773 187.331V189.933C261.773 190.628 262.34 191.221 263.061 191.221ZM280.442 204.074H285.594C286.315 204.074 286.881 203.507 286.881 202.812V202.786C286.881 202.09 287.448 201.524 288.169 201.524C288.891 201.524 289.457 200.931 289.457 200.236V195.059C289.457 194.363 288.891 193.771 288.169 193.771C287.448 193.771 286.881 193.204 286.881 192.509V192.483C286.881 191.787 286.315 191.195 285.594 191.195H280.442C279.721 191.195 279.154 191.787 279.154 192.483V192.509C279.154 193.204 278.588 193.771 277.866 193.771C277.145 193.771 276.578 194.363 276.578 195.059V200.236C276.578 200.931 277.145 201.524 277.866 201.524C278.588 201.524 279.154 202.09 279.154 202.786V202.812C279.154 203.507 279.721 204.074 280.442 204.074ZM284.306 195.059V200.21C284.306 200.931 283.739 201.498 283.018 201.498C282.297 201.498 281.73 200.931 281.73 200.21V195.059C281.73 194.363 282.297 193.796 283.018 193.796C283.739 193.796 284.306 194.363 284.306 195.059ZM301.038 198.922C300.317 198.922 299.75 198.356 299.75 197.634C299.75 196.939 300.317 196.372 301.038 196.372C301.759 196.372 302.326 195.78 302.326 195.084V195.059C302.326 194.363 302.893 193.796 303.614 193.796C304.335 193.796 304.902 193.204 304.902 192.509V192.483C304.902 191.787 304.335 191.195 303.614 191.195H301.038C300.317 191.195 299.75 191.787 299.75 192.483V195.059C299.75 195.78 299.184 196.346 298.462 196.346C297.741 196.346 297.174 195.78 297.174 195.059V192.483C297.174 191.787 296.608 191.195 295.887 191.195H293.311C292.59 191.195 292.023 191.787 292.023 192.483V202.812C292.023 203.507 292.59 204.074 293.311 204.074H295.887C296.608 204.074 297.174 203.507 297.174 202.812V200.21C297.174 199.515 297.741 198.948 298.462 198.948C299.184 198.948 299.75 199.515 299.75 200.21V202.812C299.75 203.507 300.317 204.074 301.038 204.074H303.614C304.335 204.074 304.902 203.507 304.902 202.812V202.786C304.902 202.09 304.335 201.498 303.614 201.498C302.893 201.498 302.326 200.931 302.326 200.21C302.326 199.515 301.759 198.922 301.038 198.922ZM316.483 191.195H311.331C310.61 191.195 310.043 191.787 310.043 192.483V192.509C310.043 193.204 309.477 193.771 308.755 193.771C308.034 193.771 307.467 194.363 307.467 195.059V200.236C307.467 200.931 308.034 201.498 308.755 201.498C309.477 201.498 310.043 202.09 310.043 202.786V202.812C310.043 203.507 310.61 204.074 311.331 204.074H319.058C319.78 204.074 320.346 203.507 320.346 202.812V202.786C320.346 202.09 319.78 201.498 319.058 201.498H313.907C313.186 201.498 312.619 200.931 312.619 200.21C312.619 199.515 313.186 198.948 313.907 198.948H319.058C319.78 198.948 320.346 198.356 320.346 197.66V195.059C320.346 194.363 319.78 193.771 319.058 193.771C318.337 193.771 317.77 193.204 317.77 192.509V192.483C317.77 191.787 317.204 191.195 316.483 191.195ZM315.195 195.059C315.195 195.78 314.628 196.346 313.907 196.346C313.186 196.346 312.619 195.78 312.619 195.059C312.619 194.363 313.186 193.796 313.907 193.796C314.628 193.796 315.195 194.363 315.195 195.059ZM331.927 191.195H329.351C328.63 191.195 328.063 191.787 328.063 192.483V192.509C328.063 193.204 327.497 193.771 326.776 193.771C326.054 193.771 325.488 193.204 325.488 192.509V192.483C325.488 191.787 324.921 191.195 324.2 191.195C323.479 191.195 322.912 191.787 322.912 192.483V202.812C322.912 203.507 323.479 204.074 324.2 204.074H326.776C327.497 204.074 328.063 203.507 328.063 202.812V195.059C328.063 194.363 328.63 193.796 329.351 193.796C330.073 193.796 330.639 194.363 330.639 195.059V202.812C330.639 203.507 331.206 204.074 331.927 204.074H334.503C335.224 204.074 335.791 203.507 335.791 202.812V195.059C335.791 194.363 335.224 193.771 334.503 193.771C333.782 193.771 333.215 193.204 333.215 192.509V192.483C333.215 191.787 332.648 191.195 331.927 191.195ZM342.22 204.074H347.372C348.093 204.074 348.659 203.507 348.659 202.812V202.786C348.659 202.09 349.226 201.524 349.947 201.524C350.669 201.524 351.235 200.931 351.235 200.236V195.059C351.235 194.363 350.669 193.771 349.947 193.771C349.226 193.771 348.659 193.204 348.659 192.509V192.483C348.659 191.787 348.093 191.195 347.372 191.195H342.22C341.499 191.195 340.932 191.787 340.932 192.483V192.509C340.932 193.204 340.365 193.771 339.644 193.771C338.923 193.771 338.356 194.363 338.356 195.059V200.236C338.356 200.931 338.923 201.524 339.644 201.524C340.365 201.524 340.932 202.09 340.932 202.786V202.812C340.932 203.507 341.499 204.074 342.22 204.074ZM346.084 195.059V200.21C346.084 200.931 345.517 201.498 344.796 201.498C344.075 201.498 343.508 200.931 343.508 200.21V195.059C343.508 194.363 344.075 193.796 344.796 193.796C345.517 193.796 346.084 194.363 346.084 195.059ZM360.24 193.771C359.519 193.771 358.952 193.204 358.952 192.509V192.483C358.952 191.787 358.386 191.195 357.665 191.195H355.089C354.368 191.195 353.801 191.787 353.801 192.483V202.812C353.801 203.507 354.368 204.074 355.089 204.074C355.81 204.074 356.377 203.507 356.377 202.812V197.634C356.377 196.939 356.943 196.372 357.665 196.372C358.386 196.372 358.952 196.939 358.952 197.634V202.812C358.952 203.507 359.519 204.074 360.24 204.074C360.961 204.074 361.528 203.507 361.528 202.812V197.634C361.528 196.939 362.095 196.372 362.816 196.372C363.537 196.372 364.104 196.939 364.104 197.634V202.812C364.104 203.507 364.671 204.074 365.392 204.074C366.113 204.074 366.68 203.507 366.68 202.812V192.483C366.68 191.787 366.113 191.195 365.392 191.195H362.816C362.095 191.195 361.528 191.787 361.528 192.483V192.509C361.528 193.204 360.961 193.771 360.24 193.771ZM373.109 186.043H370.533C369.838 186.043 369.245 186.636 369.245 187.331V187.357C369.245 188.053 369.838 188.645 370.533 188.645H373.109C373.83 188.645 374.397 188.053 374.397 187.357V187.331C374.397 186.636 373.83 186.043 373.109 186.043ZM370.533 204.074H373.109C373.83 204.074 374.397 203.507 374.397 202.812V192.483C374.397 191.787 373.83 191.195 373.109 191.195H370.533C369.838 191.195 369.245 191.787 369.245 192.483V202.812C369.245 203.507 369.838 204.074 370.533 204.074ZM380.136 204.074H385.287C386.009 204.074 386.575 203.507 386.575 202.812V202.786C386.575 202.09 387.142 201.498 387.863 201.498C388.584 201.498 389.151 200.931 389.151 200.236V200.21C389.151 199.515 388.584 198.922 387.863 198.922H385.287C384.566 198.922 383.999 199.515 383.999 200.21C383.999 200.931 383.433 201.498 382.712 201.498C381.99 201.498 381.424 200.931 381.424 200.21V195.059C381.424 194.363 381.99 193.796 382.712 193.796C383.433 193.796 383.999 194.363 383.999 195.059V195.084C383.999 195.78 384.566 196.372 385.287 196.372H387.863C388.584 196.372 389.151 195.78 389.151 195.084V195.059C389.151 194.363 388.584 193.771 387.863 193.771C387.142 193.771 386.575 193.204 386.575 192.509V192.483C386.575 191.787 386.009 191.195 385.287 191.195H380.136C379.415 191.195 378.848 191.787 378.848 192.483V192.509C378.848 193.204 378.281 193.771 377.56 193.771C376.839 193.771 376.272 194.363 376.272 195.059V200.236C376.272 200.931 376.839 201.498 377.56 201.498C378.281 201.498 378.848 202.09 378.848 202.786V202.812C378.848 203.507 379.415 204.074 380.136 204.074ZM400.295 201.498C401.017 201.498 401.583 200.931 401.583 200.236V197.634C401.583 196.939 401.017 196.346 400.295 196.346H397.72C396.998 196.346 396.432 195.78 396.432 195.084V195.059C396.432 194.363 396.998 193.796 397.72 193.796H400.295C401.017 193.796 401.583 193.204 401.583 192.509V192.483C401.583 191.787 401.017 191.195 400.295 191.195H395.144C394.423 191.195 393.856 191.787 393.856 192.483V192.509C393.856 193.204 393.289 193.771 392.568 193.771C391.847 193.771 391.28 194.363 391.28 195.059V197.66C391.28 198.356 391.847 198.948 392.568 198.948H395.144C395.865 198.948 396.432 199.515 396.432 200.21C396.432 200.931 395.865 201.498 395.144 201.498H392.568C391.847 201.498 391.28 202.09 391.28 202.786V202.812C391.28 203.507 391.847 204.074 392.568 204.074H397.72C398.441 204.074 399.007 203.507 399.007 202.812V202.786C399.007 202.09 399.574 201.498 400.295 201.498Z" fill="white"/>
<path d="M55.0998 388.516V399H62.4565V397.634H56.6857V388.516H55.0998ZM63.7754 388.516V399H65.376V394.918H68.0926C70.6036 394.918 71.8664 393.846 71.8664 391.702C71.8664 389.573 70.6182 388.516 68.1219 388.516H63.7754ZM65.376 389.881H67.9898C68.768 389.881 69.3407 390.028 69.7078 390.322C70.0749 390.586 70.2658 391.056 70.2658 391.702C70.2658 392.348 70.0749 392.818 69.7225 393.112C69.3554 393.405 68.7827 393.552 67.9898 393.552H65.376V389.881ZM77.4368 388.516V389.881H80.9463V399H82.5322V389.881H86.027V388.516H77.4368ZM91.8303 388.31C90.2885 388.31 89.055 388.839 88.1446 389.925C87.2783 390.938 86.8524 392.231 86.8524 393.802C86.8524 395.358 87.2783 396.636 88.1446 397.62C89.0697 398.677 90.3619 399.206 92.0359 399.206C92.9463 399.206 93.7833 399.088 94.5469 398.853C95.2664 398.618 95.8978 398.295 96.4411 397.869V393.464H91.9478V394.83H94.8406V397.106C94.4882 397.326 94.1064 397.502 93.6658 397.62C93.2106 397.737 92.7261 397.811 92.2121 397.811C90.9052 397.811 89.9361 397.443 89.3193 396.709C88.732 396.034 88.453 395.065 88.453 393.802C88.453 392.51 88.7614 391.496 89.4075 390.762C90.0095 390.057 90.8171 389.72 91.8303 389.72C92.6526 389.72 93.3281 389.896 93.8274 390.263C94.3266 390.615 94.6497 391.144 94.7965 391.849H96.4118C96.2209 390.674 95.751 389.808 95.0021 389.22C94.2238 388.604 93.1666 388.31 91.8303 388.31ZM98.3634 388.516V399H106.146V397.634H99.9639V394.301H105.544V392.935H99.9639V389.881H105.896V388.516H98.3634Z" fill="#00BFF9"/>
<path d="M116.14 388.31C115.113 388.31 114.276 388.589 113.629 389.176C112.939 389.764 112.558 390.571 112.469 391.614H114.041C114.099 390.968 114.32 390.483 114.672 390.16C115.024 389.837 115.524 389.676 116.155 389.676C116.772 389.676 117.256 389.808 117.579 390.101C117.873 390.38 118.035 390.777 118.035 391.306C118.035 391.834 117.858 392.245 117.535 392.524C117.212 392.803 116.728 392.95 116.082 392.95H115.333V394.154H116.096C116.787 394.154 117.315 394.301 117.668 394.595C118.049 394.888 118.24 395.344 118.24 395.96C118.24 396.489 118.049 396.915 117.697 397.267C117.286 397.649 116.742 397.855 116.067 397.855C115.45 397.855 114.951 397.678 114.569 397.326C114.129 396.944 113.908 396.401 113.879 395.696H112.264C112.352 396.871 112.763 397.767 113.497 398.383C114.143 398.927 115.01 399.206 116.082 399.206C117.198 399.206 118.123 398.883 118.828 398.266C119.488 397.649 119.826 396.856 119.826 395.887C119.826 395.27 119.65 394.756 119.298 394.36C118.974 393.978 118.505 393.684 117.888 393.493C119.033 393.112 119.621 392.333 119.621 391.188C119.621 390.292 119.298 389.587 118.681 389.074C118.035 388.56 117.198 388.31 116.14 388.31ZM124.945 388.31C123.917 388.31 123.08 388.589 122.434 389.176C121.744 389.764 121.362 390.571 121.274 391.614H122.845C122.904 390.968 123.124 390.483 123.477 390.16C123.829 389.837 124.328 389.676 124.96 389.676C125.577 389.676 126.061 389.808 126.384 390.101C126.678 390.38 126.839 390.777 126.839 391.306C126.839 391.834 126.663 392.245 126.34 392.524C126.017 392.803 125.533 392.95 124.886 392.95H124.138V394.154H124.901C125.591 394.154 126.12 394.301 126.472 394.595C126.854 394.888 127.045 395.344 127.045 395.96C127.045 396.489 126.854 396.915 126.502 397.267C126.091 397.649 125.547 397.855 124.872 397.855C124.255 397.855 123.756 397.678 123.374 397.326C122.933 396.944 122.713 396.401 122.684 395.696H121.069C121.157 396.871 121.568 397.767 122.302 398.383C122.948 398.927 123.814 399.206 124.886 399.206C126.002 399.206 126.927 398.883 127.632 398.266C128.293 397.649 128.631 396.856 128.631 395.887C128.631 395.27 128.455 394.756 128.102 394.36C127.779 393.978 127.309 393.684 126.693 393.493C127.838 393.112 128.425 392.333 128.425 391.188C128.425 390.292 128.102 389.587 127.485 389.074C126.839 388.56 126.002 388.31 124.945 388.31ZM131.239 396.9C130.916 396.9 130.666 397.003 130.475 397.209C130.255 397.414 130.152 397.678 130.152 398.001C130.152 398.295 130.255 398.559 130.475 398.78C130.666 398.971 130.916 399.073 131.239 399.073C131.533 399.073 131.797 398.971 132.017 398.78C132.223 398.559 132.34 398.295 132.34 398.001C132.34 397.678 132.223 397.414 132.017 397.209C131.797 397.003 131.533 396.9 131.239 396.9ZM137.751 388.31C136.723 388.31 135.886 388.589 135.24 389.176C134.55 389.764 134.168 390.571 134.08 391.614H135.651C135.71 390.968 135.93 390.483 136.282 390.16C136.635 389.837 137.134 389.676 137.765 389.676C138.382 389.676 138.867 389.808 139.19 390.101C139.483 390.38 139.645 390.777 139.645 391.306C139.645 391.834 139.469 392.245 139.146 392.524C138.823 392.803 138.338 392.95 137.692 392.95H136.943V394.154H137.707C138.397 394.154 138.925 394.301 139.278 394.595C139.66 394.888 139.851 395.344 139.851 395.96C139.851 396.489 139.66 396.915 139.307 397.267C138.896 397.649 138.353 397.855 137.677 397.855C137.061 397.855 136.561 397.678 136.18 397.326C135.739 396.944 135.519 396.401 135.489 395.696H133.874C133.962 396.871 134.373 397.767 135.108 398.383C135.754 398.927 136.62 399.206 137.692 399.206C138.808 399.206 139.733 398.883 140.438 398.266C141.099 397.649 141.436 396.856 141.436 395.887C141.436 395.27 141.26 394.756 140.908 394.36C140.585 393.978 140.115 393.684 139.498 393.493C140.643 393.112 141.231 392.333 141.231 391.188C141.231 390.292 140.908 389.587 140.291 389.074C139.645 388.56 138.808 388.31 137.751 388.31ZM146.555 388.31C145.528 388.31 144.691 388.589 144.044 389.176C143.354 389.764 142.973 390.571 142.884 391.614H144.456C144.514 390.968 144.735 390.483 145.087 390.16C145.439 389.837 145.939 389.676 146.57 389.676C147.187 389.676 147.671 389.808 147.994 390.101C148.288 390.38 148.45 390.777 148.45 391.306C148.45 391.834 148.273 392.245 147.95 392.524C147.627 392.803 147.143 392.95 146.497 392.95H145.748V394.154H146.511C147.202 394.154 147.73 394.301 148.083 394.595C148.464 394.888 148.655 395.344 148.655 395.96C148.655 396.489 148.464 396.915 148.112 397.267C147.701 397.649 147.157 397.855 146.482 397.855C145.865 397.855 145.366 397.678 144.984 397.326C144.544 396.944 144.323 396.401 144.294 395.696H142.679C142.767 396.871 143.178 397.767 143.912 398.383C144.558 398.927 145.425 399.206 146.497 399.206C147.613 399.206 148.538 398.883 149.243 398.266C149.903 397.649 150.241 396.856 150.241 395.887C150.241 395.27 150.065 394.756 149.713 394.36C149.389 393.978 148.92 393.684 148.303 393.493C149.448 393.112 150.036 392.333 150.036 391.188C150.036 390.292 149.713 389.587 149.096 389.074C148.45 388.56 147.613 388.31 146.555 388.31ZM161.909 393.259C161.087 393.259 160.456 393.538 160.015 394.125C159.619 394.624 159.428 395.3 159.428 396.137C159.428 396.959 159.619 397.62 160.015 398.148C160.456 398.706 161.087 399 161.909 399C162.717 399 163.334 398.706 163.774 398.148C164.156 397.634 164.362 396.959 164.362 396.137C164.362 395.3 164.156 394.624 163.774 394.125C163.334 393.538 162.717 393.259 161.909 393.259ZM160.456 388.31L154.582 399.206H155.771L161.66 388.31H160.456ZM154.362 388.516C153.539 388.516 152.908 388.795 152.467 389.382C152.071 389.881 151.88 390.557 151.88 391.394C151.88 392.216 152.071 392.877 152.467 393.405C152.908 393.963 153.539 394.257 154.362 394.257C155.169 394.257 155.786 393.963 156.227 393.405C156.608 392.891 156.814 392.216 156.814 391.394C156.814 390.557 156.608 389.881 156.227 389.382C155.786 388.795 155.169 388.516 154.362 388.516ZM161.909 394.272C162.276 394.272 162.541 394.463 162.702 394.859C162.834 395.167 162.908 395.593 162.908 396.137C162.908 396.665 162.834 397.076 162.717 397.385C162.541 397.781 162.276 397.987 161.909 397.987C161.527 397.987 161.248 397.796 161.072 397.414C160.94 397.091 160.881 396.665 160.881 396.137C160.881 395.579 160.94 395.153 161.072 394.844C161.248 394.463 161.527 394.272 161.909 394.272ZM154.362 389.529C154.729 389.529 154.993 389.72 155.155 390.116C155.287 390.424 155.36 390.85 155.36 391.394C155.36 391.922 155.287 392.333 155.169 392.642C154.993 393.038 154.729 393.244 154.362 393.244C153.98 393.244 153.701 393.053 153.525 392.671C153.392 392.348 153.334 391.922 153.334 391.394C153.334 390.836 153.392 390.41 153.525 390.101C153.701 389.72 153.98 389.529 154.362 389.529Z" fill="white"/>
<rect x="23.2354" y="384.468" width="17.6209" height="17.6209" rx="8.81046" fill="#00BFF9"/>
<path d="M241.129 388.516V389.881H244.638V399H246.224V389.881H249.719V388.516H241.129ZM254.054 391.203C252.938 391.203 252.042 391.585 251.396 392.363C250.721 393.126 250.398 394.066 250.398 395.197C250.398 396.445 250.75 397.429 251.455 398.163C252.101 398.853 252.997 399.206 254.113 399.206C255.126 399.206 255.963 398.912 256.624 398.339C257.152 397.869 257.49 397.267 257.666 396.562H256.11C255.904 397.003 255.684 397.341 255.42 397.546C255.082 397.796 254.641 397.928 254.098 397.928C253.481 397.928 252.997 397.722 252.644 397.341C252.292 396.944 252.101 396.372 252.042 395.637H257.798C257.784 394.286 257.475 393.229 256.888 392.466C256.242 391.614 255.287 391.203 254.054 391.203ZM254.098 392.48C255.331 392.48 256.022 393.141 256.168 394.463H252.072C252.16 393.817 252.38 393.332 252.703 392.994C253.055 392.642 253.511 392.48 254.098 392.48ZM262.548 391.203C261.608 391.203 260.845 391.364 260.287 391.717C259.641 392.098 259.229 392.715 259.068 393.538L260.61 393.67C260.698 393.244 260.918 392.935 261.27 392.73C261.564 392.554 261.961 392.466 262.445 392.466C263.591 392.466 264.163 392.994 264.163 394.051V394.36L262.46 394.404C261.344 394.433 260.463 394.654 259.846 395.094C259.171 395.549 258.833 396.21 258.833 397.062C258.833 397.693 259.068 398.207 259.552 398.604C259.993 399 260.61 399.206 261.403 399.206C262.078 399.206 262.665 399.073 263.165 398.838C263.605 398.618 263.972 398.31 264.266 397.928V399H265.705V394.154C265.705 393.229 265.47 392.524 265.015 392.04C264.486 391.482 263.664 391.203 262.548 391.203ZM264.163 395.491V395.931C264.163 396.518 263.914 397.018 263.444 397.414C262.974 397.811 262.416 398.016 261.755 398.016C261.359 398.016 261.036 397.913 260.801 397.722C260.551 397.532 260.433 397.297 260.433 397.003C260.433 396.063 261.138 395.564 262.563 395.535L264.163 395.491ZM271.128 391.203C270.365 391.203 269.66 391.54 269.043 392.245V391.408H267.487V399H269.043V394.433C269.043 393.905 269.19 393.449 269.513 393.082C269.807 392.701 270.218 392.51 270.717 392.51C271.745 392.51 272.274 393.097 272.274 394.301V399H273.83V394.33C273.83 393.772 273.977 393.317 274.271 392.994C274.565 392.671 274.917 392.51 275.357 392.51C275.945 392.51 276.385 392.642 276.65 392.935C276.914 393.214 277.046 393.67 277.046 394.286V399H278.603V394.022C278.603 393.17 278.338 392.495 277.839 391.981C277.325 391.452 276.679 391.203 275.901 391.203C275.387 391.203 274.961 391.291 274.609 391.482C274.227 391.673 273.86 392.01 273.522 392.48C273.052 391.629 272.244 391.203 271.128 391.203Z" fill="#00F9DB"/>
<path d="M287.78 388.516C287.427 388.897 286.987 389.235 286.458 389.558C285.929 389.852 285.445 390.057 284.975 390.175V391.761C285.944 391.482 286.752 391.041 287.383 390.439V399H288.984V388.516H287.78ZM291.762 388.516L291.189 394.389H292.687C292.893 394.007 293.172 393.728 293.553 393.552C293.906 393.376 294.302 393.303 294.772 393.303C295.477 393.303 296.006 393.508 296.387 393.919C296.769 394.33 296.96 394.903 296.96 395.637C296.96 396.313 296.74 396.841 296.299 397.253C295.859 397.649 295.316 397.855 294.669 397.855C294.082 397.855 293.612 397.722 293.26 397.458C292.863 397.164 292.628 396.709 292.57 396.122H290.998C291.072 397.091 291.483 397.869 292.232 398.427C292.907 398.941 293.715 399.206 294.655 399.206C295.697 399.206 296.593 398.897 297.342 398.28C298.135 397.59 298.546 396.709 298.546 395.623C298.546 394.492 298.223 393.611 297.606 392.965C296.99 392.319 296.182 391.996 295.198 391.996C294.728 391.996 294.288 392.069 293.906 392.231C293.48 392.377 293.113 392.612 292.79 392.95H292.746L293.054 389.925H298.076V388.516H291.762ZM310.229 393.259C309.407 393.259 308.775 393.538 308.335 394.125C307.938 394.624 307.747 395.3 307.747 396.137C307.747 396.959 307.938 397.62 308.335 398.148C308.775 398.706 309.407 399 310.229 399C311.036 399 311.653 398.706 312.094 398.148C312.476 397.634 312.681 396.959 312.681 396.137C312.681 395.3 312.476 394.624 312.094 394.125C311.653 393.538 311.036 393.259 310.229 393.259ZM308.775 388.31L302.901 399.206H304.091L309.979 388.31H308.775ZM302.681 388.516C301.859 388.516 301.228 388.795 300.787 389.382C300.391 389.881 300.2 390.557 300.2 391.394C300.2 392.216 300.391 392.877 300.787 393.405C301.228 393.963 301.859 394.257 302.681 394.257C303.489 394.257 304.106 393.963 304.546 393.405C304.928 392.891 305.133 392.216 305.133 391.394C305.133 390.557 304.928 389.881 304.546 389.382C304.106 388.795 303.489 388.516 302.681 388.516ZM310.229 394.272C310.596 394.272 310.86 394.463 311.022 394.859C311.154 395.167 311.227 395.593 311.227 396.137C311.227 396.665 311.154 397.076 311.036 397.385C310.86 397.781 310.596 397.987 310.229 397.987C309.847 397.987 309.568 397.796 309.392 397.414C309.26 397.091 309.201 396.665 309.201 396.137C309.201 395.579 309.26 395.153 309.392 394.844C309.568 394.463 309.847 394.272 310.229 394.272ZM302.681 389.529C303.048 389.529 303.313 389.72 303.474 390.116C303.606 390.424 303.68 390.85 303.68 391.394C303.68 391.922 303.606 392.333 303.489 392.642C303.313 393.038 303.048 393.244 302.681 393.244C302.299 393.244 302.02 393.053 301.844 392.671C301.712 392.348 301.653 391.922 301.653 391.394C301.653 390.836 301.712 390.41 301.844 390.101C302.02 389.72 302.299 389.529 302.681 389.529Z" fill="white"/>
<rect x="210.072" y="384.468" width="17.6209" height="17.6209" rx="8.81046" fill="#00F9DB"/>
<path d="M389.773 388.516V399H391.374V394.668H394.208C394.81 394.668 395.265 394.786 395.588 395.05C395.896 395.314 396.087 395.725 396.146 396.313L396.278 397.62C396.337 398.207 396.484 398.677 396.733 399H398.466C398.114 398.618 397.908 398.104 397.849 397.458L397.673 395.784C397.556 394.756 397.042 394.14 396.102 393.934V393.905C396.675 393.758 397.13 393.449 397.467 392.98C397.761 392.554 397.908 392.069 397.908 391.511C397.908 390.513 397.585 389.764 396.939 389.235C396.322 388.751 395.47 388.516 394.413 388.516H389.773ZM391.374 389.881H394.193C394.927 389.881 395.456 390.013 395.808 390.292C396.131 390.557 396.307 390.982 396.307 391.57C396.307 392.128 396.131 392.554 395.793 392.847C395.441 393.141 394.912 393.303 394.208 393.303H391.374V389.881ZM403.009 391.203C401.893 391.203 400.997 391.585 400.351 392.363C399.676 393.126 399.353 394.066 399.353 395.197C399.353 396.445 399.705 397.429 400.41 398.163C401.056 398.853 401.952 399.206 403.068 399.206C404.081 399.206 404.918 398.912 405.579 398.339C406.107 397.869 406.445 397.267 406.621 396.562H405.065C404.859 397.003 404.639 397.341 404.375 397.546C404.037 397.796 403.596 397.928 403.053 397.928C402.436 397.928 401.952 397.722 401.599 397.341C401.247 396.944 401.056 396.372 400.997 395.637H406.753C406.739 394.286 406.43 393.229 405.843 392.466C405.197 391.614 404.242 391.203 403.009 391.203ZM403.053 392.48C404.287 392.48 404.977 393.141 405.124 394.463H401.027C401.115 393.817 401.335 393.332 401.658 392.994C402.01 392.642 402.466 392.48 403.053 392.48ZM410.916 391.203C410.005 391.203 409.256 391.394 408.684 391.79C408.111 392.172 407.832 392.715 407.832 393.405C407.832 394.051 408.126 394.565 408.713 394.933C409.065 395.167 409.697 395.388 410.593 395.593C411.371 395.769 411.885 395.916 412.12 396.034C412.56 396.239 412.795 396.533 412.795 396.9C412.795 397.576 412.179 397.928 410.974 397.928C410.387 397.928 409.976 397.825 409.712 397.634C409.447 397.429 409.256 397.062 409.168 396.548H407.641C407.817 398.31 408.933 399.206 411.018 399.206C413.265 399.206 414.396 398.398 414.396 396.797C414.396 396.122 414.087 395.593 413.485 395.212C413.074 394.947 412.428 394.698 411.562 394.492C410.798 394.301 410.299 394.154 410.035 394.037C409.623 393.846 409.418 393.626 409.418 393.361C409.418 393.068 409.55 392.833 409.829 392.686C410.064 392.539 410.416 392.48 410.886 392.48C411.415 392.48 411.826 392.568 412.09 392.745C412.34 392.906 412.516 393.185 412.634 393.596H414.146C413.97 391.996 412.883 391.203 410.916 391.203ZM418.926 391.203C417.81 391.203 416.915 391.585 416.269 392.363C415.593 393.126 415.27 394.066 415.27 395.197C415.27 396.445 415.622 397.429 416.327 398.163C416.973 398.853 417.869 399.206 418.985 399.206C419.998 399.206 420.835 398.912 421.496 398.339C422.025 397.869 422.362 397.267 422.539 396.562H420.982C420.777 397.003 420.556 397.341 420.292 397.546C419.954 397.796 419.514 397.928 418.97 397.928C418.354 397.928 417.869 397.722 417.517 397.341C417.164 396.944 416.973 396.372 416.915 395.637H422.671C422.656 394.286 422.348 393.229 421.76 392.466C421.114 391.614 420.16 391.203 418.926 391.203ZM418.97 392.48C420.204 392.48 420.894 393.141 421.041 394.463H416.944C417.032 393.817 417.252 393.332 417.575 392.994C417.928 392.642 418.383 392.48 418.97 392.48ZM427.523 391.203C427.053 391.203 426.642 391.335 426.29 391.629C425.996 391.834 425.746 392.143 425.556 392.554V391.408H423.999V399H425.556V394.977C425.556 394.316 425.746 393.772 426.143 393.361C426.51 392.98 426.936 392.789 427.406 392.789C427.758 392.789 428.125 392.833 428.507 392.95V391.394C428.243 391.261 427.905 391.203 427.523 391.203ZM428.655 391.408L431.474 399H433.031L435.85 391.408H434.161L432.252 397.062L430.344 391.408H428.655ZM440.02 391.203C438.904 391.203 438.009 391.585 437.363 392.363C436.687 393.126 436.364 394.066 436.364 395.197C436.364 396.445 436.716 397.429 437.421 398.163C438.067 398.853 438.963 399.206 440.079 399.206C441.092 399.206 441.929 398.912 442.59 398.339C443.119 397.869 443.456 397.267 443.633 396.562H442.076C441.871 397.003 441.65 397.341 441.386 397.546C441.048 397.796 440.608 397.928 440.064 397.928C439.448 397.928 438.963 397.722 438.611 397.341C438.258 396.944 438.067 396.372 438.009 395.637H443.765C443.75 394.286 443.442 393.229 442.854 392.466C442.208 391.614 441.254 391.203 440.02 391.203ZM440.064 392.48C441.298 392.48 441.988 393.141 442.135 394.463H438.038C438.126 393.817 438.346 393.332 438.669 392.994C439.022 392.642 439.477 392.48 440.064 392.48Z" fill="#00B473"/>
<path d="M453.669 388.31C452.553 388.31 451.642 388.677 450.967 389.441C450.306 390.145 449.968 391.085 449.954 392.26H451.554C451.584 391.408 451.76 390.777 452.112 390.336C452.45 389.881 452.949 389.661 453.61 389.661C454.227 389.661 454.711 389.808 455.034 390.101C455.357 390.395 455.519 390.836 455.519 391.423C455.519 392.04 455.269 392.612 454.799 393.141C454.506 393.449 454.006 393.846 453.302 394.345C452.112 395.167 451.319 395.799 450.937 396.254C450.233 397.047 449.895 397.957 449.895 399H457.119V397.59H451.877C452.097 397.018 452.773 396.357 453.904 395.608C454.946 394.903 455.666 394.345 456.077 393.919C456.752 393.17 457.105 392.348 457.105 391.438C457.105 390.513 456.782 389.764 456.15 389.176C455.504 388.589 454.667 388.31 453.669 388.31ZM462.312 388.31C461.078 388.31 460.124 388.824 459.448 389.866C458.832 390.821 458.523 392.113 458.523 393.758C458.523 395.388 458.832 396.68 459.448 397.649C460.124 398.677 461.078 399.206 462.312 399.206C463.545 399.206 464.5 398.677 465.175 397.649C465.792 396.68 466.1 395.373 466.1 393.758C466.1 392.128 465.792 390.836 465.175 389.866C464.5 388.824 463.545 388.31 462.312 388.31ZM462.312 389.661C463.164 389.661 463.78 390.131 464.133 391.085C464.382 391.731 464.514 392.627 464.514 393.758C464.514 394.874 464.382 395.769 464.133 396.43C463.78 397.37 463.164 397.855 462.312 397.855C461.445 397.855 460.843 397.37 460.491 396.43C460.227 395.769 460.109 394.874 460.109 393.758C460.109 392.627 460.227 391.731 460.491 391.085C460.843 390.131 461.445 389.661 462.312 389.661ZM477.768 393.259C476.946 393.259 476.315 393.538 475.874 394.125C475.478 394.624 475.287 395.3 475.287 396.137C475.287 396.959 475.478 397.62 475.874 398.148C476.315 398.706 476.946 399 477.768 399C478.576 399 479.193 398.706 479.633 398.148C480.015 397.634 480.221 396.959 480.221 396.137C480.221 395.3 480.015 394.624 479.633 394.125C479.193 393.538 478.576 393.259 477.768 393.259ZM476.315 388.31L470.441 399.206H471.631L477.519 388.31H476.315ZM470.221 388.516C469.399 388.516 468.767 388.795 468.327 389.382C467.93 389.881 467.739 390.557 467.739 391.394C467.739 392.216 467.93 392.877 468.327 393.405C468.767 393.963 469.399 394.257 470.221 394.257C471.028 394.257 471.645 393.963 472.086 393.405C472.468 392.891 472.673 392.216 472.673 391.394C472.673 390.557 472.468 389.881 472.086 389.382C471.645 388.795 471.028 388.516 470.221 388.516ZM477.768 394.272C478.136 394.272 478.4 394.463 478.561 394.859C478.694 395.167 478.767 395.593 478.767 396.137C478.767 396.665 478.694 397.076 478.576 397.385C478.4 397.781 478.136 397.987 477.768 397.987C477.387 397.987 477.108 397.796 476.931 397.414C476.799 397.091 476.741 396.665 476.741 396.137C476.741 395.579 476.799 395.153 476.931 394.844C477.108 394.463 477.387 394.272 477.768 394.272ZM470.221 389.529C470.588 389.529 470.852 389.72 471.014 390.116C471.146 390.424 471.219 390.85 471.219 391.394C471.219 391.922 471.146 392.333 471.028 392.642C470.852 393.038 470.588 393.244 470.221 393.244C469.839 393.244 469.56 393.053 469.384 392.671C469.252 392.348 469.193 391.922 469.193 391.394C469.193 390.836 469.252 390.41 469.384 390.101C469.56 389.72 469.839 389.529 470.221 389.529Z" fill="white"/>
<rect x="357.909" y="384.468" width="17.6209" height="17.6209" rx="8.81046" fill="#00B473"/>
<path d="M557.639 388.516V399H559.225V388.516H557.639ZM565.01 391.203C564.54 391.203 564.114 391.291 563.732 391.496C563.35 391.687 563.013 391.966 562.719 392.348V391.408H561.162V399H562.719V394.433C562.778 393.817 562.998 393.332 563.35 392.98C563.673 392.656 564.07 392.51 564.51 392.51C565.685 392.51 566.287 393.156 566.287 394.448V399H567.844V394.316C567.844 392.231 566.889 391.203 565.01 391.203ZM572.619 388.516C571.943 388.516 571.444 388.692 571.091 389.074C570.739 389.426 570.563 389.94 570.563 390.586V391.408H568.815V392.686H570.563V399H572.105V392.686H574.102V391.408H572.105V390.63C572.105 390.351 572.163 390.145 572.281 390.028C572.398 389.896 572.589 389.837 572.839 389.837H575.203V399H576.759V388.516H572.619ZM578.7 391.408V396.137C578.7 398.178 579.611 399.206 581.446 399.206C582.401 399.206 583.193 398.794 583.84 397.972V399H585.396V391.408H583.84V396.048C583.707 396.606 583.458 397.062 583.105 397.399C582.753 397.722 582.386 397.899 581.975 397.899C581.373 397.899 580.932 397.737 580.668 397.443C580.389 397.15 580.257 396.68 580.257 396.034V391.408H578.7ZM590.391 391.203C589.275 391.203 588.379 391.585 587.733 392.363C587.058 393.126 586.735 394.066 586.735 395.197C586.735 396.445 587.087 397.429 587.792 398.163C588.438 398.853 589.334 399.206 590.45 399.206C591.463 399.206 592.3 398.912 592.961 398.339C593.489 397.869 593.827 397.267 594.003 396.562H592.447C592.241 397.003 592.021 397.341 591.756 397.546C591.419 397.796 590.978 397.928 590.435 397.928C589.818 397.928 589.334 397.722 588.981 397.341C588.629 396.944 588.438 396.372 588.379 395.637H594.135C594.121 394.286 593.812 393.229 593.225 392.466C592.579 391.614 591.624 391.203 590.391 391.203ZM590.435 392.48C591.668 392.48 592.359 393.141 592.505 394.463H588.409C588.497 393.817 588.717 393.332 589.04 392.994C589.392 392.642 589.848 392.48 590.435 392.48ZM599.311 391.203C598.841 391.203 598.415 391.291 598.033 391.496C597.651 391.687 597.314 391.966 597.02 392.348V391.408H595.464V399H597.02V394.433C597.079 393.817 597.299 393.332 597.651 392.98C597.975 392.656 598.371 392.51 598.812 392.51C599.986 392.51 600.588 393.156 600.588 394.448V399H602.145V394.316C602.145 392.231 601.19 391.203 599.311 391.203ZM607.301 391.203C606.127 391.203 605.216 391.599 604.556 392.392C603.939 393.126 603.63 394.066 603.63 395.212C603.63 396.386 603.939 397.326 604.57 398.06C605.216 398.824 606.112 399.206 607.272 399.206C608.241 399.206 609.034 398.956 609.622 398.471C610.209 397.972 610.605 397.209 610.782 396.195H609.24C609.093 397.341 608.447 397.928 607.287 397.928C606.611 397.928 606.112 397.678 605.774 397.209C605.407 396.724 605.231 396.048 605.231 395.197C605.231 394.345 605.407 393.67 605.789 393.2C606.156 392.715 606.655 392.48 607.301 392.48C607.83 392.48 608.256 392.598 608.579 392.847C608.902 393.082 609.108 393.464 609.21 393.978H610.752C610.605 393.038 610.224 392.333 609.636 391.864C609.049 391.423 608.271 391.203 607.301 391.203ZM615.328 391.203C614.212 391.203 613.316 391.585 612.67 392.363C611.995 393.126 611.672 394.066 611.672 395.197C611.672 396.445 612.024 397.429 612.729 398.163C613.375 398.853 614.271 399.206 615.387 399.206C616.4 399.206 617.237 398.912 617.898 398.339C618.426 397.869 618.764 397.267 618.94 396.562H617.384C617.178 397.003 616.958 397.341 616.694 397.546C616.356 397.796 615.915 397.928 615.372 397.928C614.755 397.928 614.271 397.722 613.918 397.341C613.566 396.944 613.375 396.372 613.316 395.637H619.072C619.058 394.286 618.749 393.229 618.162 392.466C617.516 391.614 616.561 391.203 615.328 391.203ZM615.372 392.48C616.606 392.48 617.296 393.141 617.443 394.463H613.346C613.434 393.817 613.654 393.332 613.977 392.994C614.33 392.642 614.785 392.48 615.372 392.48ZM623.925 391.203C623.455 391.203 623.044 391.335 622.691 391.629C622.398 391.834 622.148 392.143 621.957 392.554V391.408H620.401V399H621.957V394.977C621.957 394.316 622.148 393.772 622.545 393.361C622.912 392.98 623.338 392.789 623.807 392.789C624.16 392.789 624.527 392.833 624.909 392.95V391.394C624.644 391.261 624.307 391.203 623.925 391.203ZM628.698 391.203C627.788 391.203 627.039 391.394 626.466 391.79C625.894 392.172 625.615 392.715 625.615 393.405C625.615 394.051 625.908 394.565 626.496 394.933C626.848 395.167 627.479 395.388 628.375 395.593C629.153 395.769 629.667 395.916 629.902 396.034C630.343 396.239 630.578 396.533 630.578 396.9C630.578 397.576 629.961 397.928 628.757 397.928C628.17 397.928 627.758 397.825 627.494 397.634C627.23 397.429 627.039 397.062 626.951 396.548H625.424C625.6 398.31 626.716 399.206 628.801 399.206C631.048 399.206 632.178 398.398 632.178 396.797C632.178 396.122 631.87 395.593 631.268 395.212C630.857 394.947 630.211 394.698 629.344 394.492C628.581 394.301 628.082 394.154 627.817 394.037C627.406 393.846 627.2 393.626 627.2 393.361C627.2 393.068 627.333 392.833 627.612 392.686C627.847 392.539 628.199 392.48 628.669 392.48C629.197 392.48 629.609 392.568 629.873 392.745C630.123 392.906 630.299 393.185 630.416 393.596H631.929C631.753 391.996 630.666 391.203 628.698 391.203Z" fill="#61006C"/>
<path d="M642.01 388.31C640.982 388.31 640.145 388.589 639.499 389.176C638.809 389.764 638.427 390.571 638.339 391.614H639.91C639.969 390.968 640.189 390.483 640.542 390.16C640.894 389.837 641.393 389.676 642.025 389.676C642.641 389.676 643.126 389.808 643.449 390.101C643.743 390.38 643.904 390.777 643.904 391.306C643.904 391.834 643.728 392.245 643.405 392.524C643.082 392.803 642.597 392.95 641.951 392.95H641.202V394.154H641.966C642.656 394.154 643.185 394.301 643.537 394.595C643.919 394.888 644.11 395.344 644.11 395.96C644.11 396.489 643.919 396.915 643.566 397.267C643.155 397.649 642.612 397.855 641.937 397.855C641.32 397.855 640.821 397.678 640.439 397.326C639.998 396.944 639.778 396.401 639.749 395.696H638.133C638.221 396.871 638.633 397.767 639.367 398.383C640.013 398.927 640.879 399.206 641.951 399.206C643.067 399.206 643.992 398.883 644.697 398.266C645.358 397.649 645.696 396.856 645.696 395.887C645.696 395.27 645.519 394.756 645.167 394.36C644.844 393.978 644.374 393.684 643.757 393.493C644.903 393.112 645.49 392.333 645.49 391.188C645.49 390.292 645.167 389.587 644.55 389.074C643.904 388.56 643.067 388.31 642.01 388.31ZM648.304 396.9C647.981 396.9 647.731 397.003 647.54 397.209C647.32 397.414 647.217 397.678 647.217 398.001C647.217 398.295 647.32 398.559 647.54 398.78C647.731 398.971 647.981 399.073 648.304 399.073C648.597 399.073 648.862 398.971 649.082 398.78C649.288 398.559 649.405 398.295 649.405 398.001C649.405 397.678 649.288 397.414 649.082 397.209C648.862 397.003 648.597 396.9 648.304 396.9ZM654.816 388.31C653.788 388.31 652.951 388.589 652.305 389.176C651.614 389.764 651.233 390.571 651.144 391.614H652.716C652.774 390.968 652.995 390.483 653.347 390.16C653.7 389.837 654.199 389.676 654.83 389.676C655.447 389.676 655.932 389.808 656.255 390.101C656.548 390.38 656.71 390.777 656.71 391.306C656.71 391.834 656.534 392.245 656.211 392.524C655.887 392.803 655.403 392.95 654.757 392.95H654.008V394.154H654.771C655.462 394.154 655.99 394.301 656.343 394.595C656.724 394.888 656.915 395.344 656.915 395.96C656.915 396.489 656.724 396.915 656.372 397.267C655.961 397.649 655.418 397.855 654.742 397.855C654.125 397.855 653.626 397.678 653.244 397.326C652.804 396.944 652.584 396.401 652.554 395.696H650.939C651.027 396.871 651.438 397.767 652.172 398.383C652.818 398.927 653.685 399.206 654.757 399.206C655.873 399.206 656.798 398.883 657.503 398.266C658.163 397.649 658.501 396.856 658.501 395.887C658.501 395.27 658.325 394.756 657.973 394.36C657.65 393.978 657.18 393.684 656.563 393.493C657.708 393.112 658.296 392.333 658.296 391.188C658.296 390.292 657.973 389.587 657.356 389.074C656.71 388.56 655.873 388.31 654.816 388.31ZM670.169 393.259C669.347 393.259 668.716 393.538 668.275 394.125C667.879 394.624 667.688 395.3 667.688 396.137C667.688 396.959 667.879 397.62 668.275 398.148C668.716 398.706 669.347 399 670.169 399C670.977 399 671.594 398.706 672.034 398.148C672.416 397.634 672.622 396.959 672.622 396.137C672.622 395.3 672.416 394.624 672.034 394.125C671.594 393.538 670.977 393.259 670.169 393.259ZM668.716 388.31L662.842 399.206H664.031L669.92 388.31H668.716ZM662.622 388.516C661.799 388.516 661.168 388.795 660.727 389.382C660.331 389.881 660.14 390.557 660.14 391.394C660.14 392.216 660.331 392.877 660.727 393.405C661.168 393.963 661.799 394.257 662.622 394.257C663.429 394.257 664.046 393.963 664.487 393.405C664.868 392.891 665.074 392.216 665.074 391.394C665.074 390.557 664.868 389.881 664.487 389.382C664.046 388.795 663.429 388.516 662.622 388.516ZM670.169 394.272C670.536 394.272 670.801 394.463 670.962 394.859C671.094 395.167 671.168 395.593 671.168 396.137C671.168 396.665 671.094 397.076 670.977 397.385C670.801 397.781 670.536 397.987 670.169 397.987C669.788 397.987 669.509 397.796 669.332 397.414C669.2 397.091 669.141 396.665 669.141 396.137C669.141 395.579 669.2 395.153 669.332 394.844C669.509 394.463 669.788 394.272 670.169 394.272ZM662.622 389.529C662.989 389.529 663.253 389.72 663.415 390.116C663.547 390.424 663.62 390.85 663.62 391.394C663.62 391.922 663.547 392.333 663.429 392.642C663.253 393.038 662.989 393.244 662.622 393.244C662.24 393.244 661.961 393.053 661.785 392.671C661.653 392.348 661.594 391.922 661.594 391.394C661.594 390.836 661.653 390.41 661.785 390.101C661.961 389.72 662.24 389.529 662.622 389.529Z" fill="white"/>
<rect x="525.745" y="384.468" width="17.6209" height="17.6209" rx="8.81046" fill="#61006C"/>
<path d="M36.4165 417.589C34.7425 417.589 33.4797 418.132 32.5986 419.248C31.8057 420.232 31.4239 421.495 31.4239 423.051C31.4239 424.637 31.791 425.9 32.5546 426.84C33.4209 427.926 34.7131 428.484 36.4312 428.484C37.5619 428.484 38.531 428.161 39.3386 427.515C40.205 426.825 40.7483 425.871 40.9833 424.652H39.4267C39.2212 425.474 38.8541 426.091 38.3254 426.502C37.8262 426.884 37.1801 427.075 36.4165 427.075C35.2418 427.075 34.3754 426.708 33.8174 425.973C33.2888 425.283 33.0245 424.314 33.0245 423.051C33.0245 421.832 33.2888 420.863 33.8321 420.159C34.4048 419.38 35.2565 418.998 36.3871 418.998C37.1507 418.998 37.7674 419.16 38.2667 419.498C38.766 419.835 39.1037 420.364 39.2799 421.069H40.8364C40.6749 420.012 40.205 419.16 39.4414 418.543C38.6485 417.897 37.6353 417.589 36.4165 417.589ZM45.953 420.482C44.8077 420.482 43.8826 420.863 43.1924 421.627C42.5023 422.376 42.1645 423.33 42.1645 424.49C42.1645 425.636 42.5023 426.59 43.1777 427.324C43.8826 428.088 44.8077 428.484 45.953 428.484C47.0984 428.484 48.0235 428.088 48.7283 427.324C49.4038 426.59 49.7415 425.636 49.7415 424.49C49.7415 423.33 49.3891 422.376 48.7136 421.627C48.0235 420.863 47.0984 420.482 45.953 420.482ZM45.953 421.759C46.6725 421.759 47.2305 422.038 47.6417 422.611C47.9941 423.095 48.1703 423.727 48.1703 424.49C48.1703 425.239 47.9941 425.856 47.6417 426.355C47.2305 426.913 46.6725 427.207 45.953 427.207C45.2335 427.207 44.6755 426.913 44.279 426.355C43.9266 425.871 43.7651 425.254 43.7651 424.49C43.7651 423.727 43.9266 423.095 44.279 422.611C44.6755 422.038 45.2335 421.759 45.953 421.759ZM54.8616 420.482C54.098 420.482 53.3932 420.819 52.7764 421.524V420.687H51.2199V428.279H52.7764V423.712C52.7764 423.183 52.9233 422.728 53.2463 422.361C53.54 421.979 53.9512 421.788 54.4504 421.788C55.4783 421.788 56.0069 422.376 56.0069 423.58V428.279H57.5634V423.609C57.5634 423.051 57.7103 422.596 58.004 422.273C58.2976 421.95 58.6501 421.788 59.0906 421.788C59.6779 421.788 60.1185 421.921 60.3828 422.214C60.6471 422.493 60.7793 422.948 60.7793 423.565V428.279H62.3358V423.301C62.3358 422.449 62.0715 421.774 61.5722 421.26C61.0583 420.731 60.4122 420.482 59.6339 420.482C59.12 420.482 58.6941 420.57 58.3417 420.761C57.9599 420.951 57.5928 421.289 57.2551 421.759C56.7852 420.907 55.9776 420.482 54.8616 420.482ZM67.7388 420.482C66.9753 420.482 66.2704 420.819 65.6537 421.524V420.687H64.0972V428.279H65.6537V423.712C65.6537 423.183 65.8005 422.728 66.1236 422.361C66.4173 421.979 66.8284 421.788 67.3277 421.788C68.3556 421.788 68.8842 422.376 68.8842 423.58V428.279H70.4407V423.609C70.4407 423.051 70.5875 422.596 70.8812 422.273C71.1749 421.95 71.5273 421.788 71.9678 421.788C72.5552 421.788 72.9957 421.921 73.26 422.214C73.5244 422.493 73.6565 422.948 73.6565 423.565V428.279H75.213V423.301C75.213 422.449 74.9487 421.774 74.4495 421.26C73.9355 420.731 73.2894 420.482 72.5112 420.482C71.9972 420.482 71.5714 420.57 71.219 420.761C70.8372 420.951 70.4701 421.289 70.1323 421.759C69.6624 420.907 68.8548 420.482 67.7388 420.482ZM76.9744 420.687V425.415C76.9744 427.456 77.8848 428.484 79.7204 428.484C80.6748 428.484 81.4678 428.073 82.1139 427.251V428.279H83.6704V420.687H82.1139V425.327C81.9817 425.885 81.7321 426.341 81.3797 426.678C81.0272 427.001 80.6601 427.178 80.249 427.178C79.6469 427.178 79.2064 427.016 78.9421 426.722C78.6631 426.429 78.5309 425.959 78.5309 425.313V420.687H76.9744ZM89.2966 420.482C88.8267 420.482 88.4008 420.57 88.0191 420.775C87.6373 420.966 87.2995 421.245 87.0059 421.627V420.687H85.4493V428.279H87.0059V423.712C87.0646 423.095 87.2848 422.611 87.6373 422.258C87.9603 421.935 88.3568 421.788 88.7973 421.788C89.972 421.788 90.5741 422.435 90.5741 423.727V428.279H92.1306V423.595C92.1306 421.509 91.1761 420.482 89.2966 420.482ZM95.0112 417.648C94.7028 417.648 94.4532 417.736 94.2476 417.941C94.0421 418.132 93.9393 418.382 93.9393 418.69C93.9393 418.984 94.0421 419.248 94.2476 419.454C94.4532 419.645 94.7028 419.747 95.0112 419.747C95.3049 419.747 95.5692 419.645 95.7748 419.454C95.9804 419.248 96.0978 418.998 96.0978 418.69C96.0978 418.382 95.995 418.132 95.7895 417.941C95.5839 417.736 95.3196 417.648 95.0112 417.648ZM94.233 420.687V428.279H95.7895V420.687H94.233ZM100.202 418.235L98.6453 418.881V420.687H97.2356V421.979H98.6453V426.385C98.6453 426.987 98.7774 427.442 99.0711 427.765C99.3648 428.103 99.8494 428.279 100.495 428.279H101.744V426.987H100.745C100.554 426.987 100.422 426.928 100.334 426.84C100.246 426.737 100.202 426.59 100.202 426.385V421.979H101.935V420.687H100.202V418.235ZM102.38 420.687L105.39 428.103L104.069 431.186H105.728L109.854 420.687H108.151L106.154 426.223L104.069 420.687H102.38ZM116.794 417.648C116.485 417.648 116.236 417.736 116.03 417.941C115.824 418.132 115.722 418.382 115.722 418.69C115.722 418.984 115.824 419.248 116.03 419.454C116.236 419.645 116.485 419.747 116.794 419.747C117.087 419.747 117.352 419.645 117.557 419.454C117.763 419.248 117.88 418.998 117.88 418.69C117.88 418.382 117.777 418.132 117.572 417.941C117.366 417.736 117.102 417.648 116.794 417.648ZM116.015 420.687V428.279H117.572V420.687H116.015ZM123.526 420.482C123.056 420.482 122.63 420.57 122.248 420.775C121.867 420.966 121.529 421.245 121.235 421.627V420.687H119.679V428.279H121.235V423.712C121.294 423.095 121.514 422.611 121.867 422.258C122.19 421.935 122.586 421.788 123.027 421.788C124.201 421.788 124.804 422.435 124.804 423.727V428.279H126.36V423.595C126.36 421.509 125.406 420.482 123.526 420.482ZM131.517 420.482C130.342 420.482 129.432 420.878 128.771 421.671C128.154 422.405 127.846 423.345 127.846 424.49C127.846 425.665 128.154 426.605 128.785 427.339C129.432 428.103 130.327 428.484 131.487 428.484C132.456 428.484 133.249 428.235 133.837 427.75C134.424 427.251 134.821 426.487 134.997 425.474H133.455C133.308 426.62 132.662 427.207 131.502 427.207C130.827 427.207 130.327 426.957 129.99 426.487C129.622 426.003 129.446 425.327 129.446 424.476C129.446 423.624 129.622 422.948 130.004 422.479C130.371 421.994 130.871 421.759 131.517 421.759C132.045 421.759 132.471 421.877 132.794 422.126C133.117 422.361 133.323 422.743 133.426 423.257H134.967C134.821 422.317 134.439 421.612 133.851 421.142C133.264 420.702 132.486 420.482 131.517 420.482ZM139.543 420.482C138.427 420.482 137.532 420.863 136.885 421.642C136.21 422.405 135.887 423.345 135.887 424.476C135.887 425.724 136.239 426.708 136.944 427.442C137.59 428.132 138.486 428.484 139.602 428.484C140.615 428.484 141.452 428.191 142.113 427.618C142.642 427.148 142.979 426.546 143.156 425.841H141.599C141.393 426.282 141.173 426.62 140.909 426.825C140.571 427.075 140.131 427.207 139.587 427.207C138.971 427.207 138.486 427.001 138.134 426.62C137.781 426.223 137.59 425.65 137.532 424.916H143.288C143.273 423.565 142.965 422.508 142.377 421.744C141.731 420.893 140.777 420.482 139.543 420.482ZM139.587 421.759C140.821 421.759 141.511 422.42 141.658 423.741H137.561C137.649 423.095 137.869 422.611 138.192 422.273C138.545 421.921 139 421.759 139.587 421.759ZM148.463 420.482C147.993 420.482 147.567 420.57 147.186 420.775C146.804 420.966 146.466 421.245 146.172 421.627V420.687H144.616V428.279H146.172V423.712C146.231 423.095 146.451 422.611 146.804 422.258C147.127 421.935 147.523 421.788 147.964 421.788C149.139 421.788 149.741 422.435 149.741 423.727V428.279H151.297V423.595C151.297 421.509 150.343 420.482 148.463 420.482ZM155.382 418.235L153.825 418.881V420.687H152.416V421.979H153.825V426.385C153.825 426.987 153.958 427.442 154.251 427.765C154.545 428.103 155.029 428.279 155.676 428.279H156.924V426.987H155.925C155.734 426.987 155.602 426.928 155.514 426.84C155.426 426.737 155.382 426.59 155.382 426.385V421.979H157.115V420.687H155.382V418.235ZM159.469 417.648C159.161 417.648 158.911 417.736 158.706 417.941C158.5 418.132 158.397 418.382 158.397 418.69C158.397 418.984 158.5 419.248 158.706 419.454C158.911 419.645 159.161 419.747 159.469 419.747C159.763 419.747 160.027 419.645 160.233 419.454C160.438 419.248 160.556 418.998 160.556 418.69C160.556 418.382 160.453 418.132 160.247 417.941C160.042 417.736 159.778 417.648 159.469 417.648ZM158.691 420.687V428.279H160.247V420.687H158.691ZM161.547 420.687L164.366 428.279H165.923L168.742 420.687H167.053L165.144 426.341L163.235 420.687H161.547ZM172.912 420.482C171.796 420.482 170.901 420.863 170.254 421.642C169.579 422.405 169.256 423.345 169.256 424.476C169.256 425.724 169.608 426.708 170.313 427.442C170.959 428.132 171.855 428.484 172.971 428.484C173.984 428.484 174.821 428.191 175.482 427.618C176.011 427.148 176.348 426.546 176.525 425.841H174.968C174.762 426.282 174.542 426.62 174.278 426.825C173.94 427.075 173.5 427.207 172.956 427.207C172.34 427.207 171.855 427.001 171.503 426.62C171.15 426.223 170.959 425.65 170.901 424.916H176.657C176.642 423.565 176.334 422.508 175.746 421.744C175.1 420.893 174.146 420.482 172.912 420.482ZM172.956 421.759C174.19 421.759 174.88 422.42 175.027 423.741H170.93C171.018 423.095 171.238 422.611 171.561 422.273C171.914 421.921 172.369 421.759 172.956 421.759ZM180.819 420.482C179.909 420.482 179.16 420.672 178.587 421.069C178.014 421.451 177.735 421.994 177.735 422.684C177.735 423.33 178.029 423.844 178.616 424.211C178.969 424.446 179.6 424.667 180.496 424.872C181.274 425.048 181.788 425.195 182.023 425.313C182.464 425.518 182.699 425.812 182.699 426.179C182.699 426.854 182.082 427.207 180.878 427.207C180.29 427.207 179.879 427.104 179.615 426.913C179.351 426.708 179.16 426.341 179.072 425.827H177.544C177.721 427.589 178.837 428.484 180.922 428.484C183.168 428.484 184.299 427.677 184.299 426.076C184.299 425.401 183.991 424.872 183.389 424.49C182.978 424.226 182.331 423.976 181.465 423.771C180.702 423.58 180.202 423.433 179.938 423.316C179.527 423.125 179.321 422.904 179.321 422.64C179.321 422.346 179.453 422.111 179.732 421.965C179.967 421.818 180.32 421.759 180.79 421.759C181.318 421.759 181.729 421.847 181.994 422.023C182.243 422.185 182.42 422.464 182.537 422.875H184.049C183.873 421.274 182.787 420.482 180.819 420.482Z" fill="#A1016F"/>
<path d="M191.018 417.794L190.445 423.668H191.943C192.148 423.286 192.427 423.007 192.809 422.831C193.162 422.655 193.558 422.581 194.028 422.581C194.733 422.581 195.261 422.787 195.643 423.198C196.025 423.609 196.216 424.182 196.216 424.916C196.216 425.592 195.996 426.12 195.555 426.531C195.115 426.928 194.571 427.133 193.925 427.133C193.338 427.133 192.868 427.001 192.515 426.737C192.119 426.443 191.884 425.988 191.825 425.401H190.254C190.328 426.37 190.739 427.148 191.488 427.706C192.163 428.22 192.971 428.484 193.91 428.484C194.953 428.484 195.849 428.176 196.598 427.559C197.391 426.869 197.802 425.988 197.802 424.901C197.802 423.771 197.479 422.89 196.862 422.244C196.245 421.598 195.438 421.274 194.454 421.274C193.984 421.274 193.543 421.348 193.162 421.509C192.736 421.656 192.369 421.891 192.046 422.229H192.001L192.31 419.204H197.332V417.794H191.018ZM209.485 422.537C208.662 422.537 208.031 422.816 207.59 423.404C207.194 423.903 207.003 424.578 207.003 425.415C207.003 426.238 207.194 426.899 207.59 427.427C208.031 427.985 208.662 428.279 209.485 428.279C210.292 428.279 210.909 427.985 211.349 427.427C211.731 426.913 211.937 426.238 211.937 425.415C211.937 424.578 211.731 423.903 211.349 423.404C210.909 422.816 210.292 422.537 209.485 422.537ZM208.031 417.589L202.157 428.484H203.347L209.235 417.589H208.031ZM201.937 417.794C201.115 417.794 200.483 418.073 200.043 418.661C199.646 419.16 199.455 419.835 199.455 420.672C199.455 421.495 199.646 422.156 200.043 422.684C200.483 423.242 201.115 423.536 201.937 423.536C202.745 423.536 203.361 423.242 203.802 422.684C204.184 422.17 204.389 421.495 204.389 420.672C204.389 419.835 204.184 419.16 203.802 418.661C203.361 418.073 202.745 417.794 201.937 417.794ZM209.485 423.551C209.852 423.551 210.116 423.741 210.277 424.138C210.41 424.446 210.483 424.872 210.483 425.415C210.483 425.944 210.41 426.355 210.292 426.664C210.116 427.06 209.852 427.266 209.485 427.266C209.103 427.266 208.824 427.075 208.648 426.693C208.515 426.37 208.457 425.944 208.457 425.415C208.457 424.857 208.515 424.432 208.648 424.123C208.824 423.741 209.103 423.551 209.485 423.551ZM201.937 418.808C202.304 418.808 202.568 418.998 202.73 419.395C202.862 419.703 202.935 420.129 202.935 420.672C202.935 421.201 202.862 421.612 202.745 421.921C202.568 422.317 202.304 422.523 201.937 422.523C201.555 422.523 201.276 422.332 201.1 421.95C200.968 421.627 200.909 421.201 200.909 420.672C200.909 420.114 200.968 419.689 201.1 419.38C201.276 418.998 201.555 418.808 201.937 418.808Z" fill="white"/>
<rect y="413.747" width="17.6209" height="17.6209" rx="8.81046" fill="#A1016F"/>
<path d="M289.701 417.794V428.279H291.302V424.197H294.018C296.529 424.197 297.792 423.125 297.792 420.981C297.792 418.852 296.544 417.794 294.048 417.794H289.701ZM291.302 419.16H293.916C294.694 419.16 295.266 419.307 295.634 419.601C296.001 419.865 296.192 420.335 296.192 420.981C296.192 421.627 296.001 422.097 295.648 422.39C295.281 422.684 294.709 422.831 293.916 422.831H291.302V419.16ZM302.555 420.482C301.615 420.482 300.852 420.643 300.294 420.995C299.647 421.377 299.236 421.994 299.075 422.816L300.617 422.948C300.705 422.523 300.925 422.214 301.277 422.009C301.571 421.832 301.967 421.744 302.452 421.744C303.597 421.744 304.17 422.273 304.17 423.33V423.639L302.467 423.683C301.351 423.712 300.47 423.932 299.853 424.373C299.178 424.828 298.84 425.489 298.84 426.341C298.84 426.972 299.075 427.486 299.559 427.882C300 428.279 300.617 428.484 301.409 428.484C302.085 428.484 302.672 428.352 303.172 428.117C303.612 427.897 303.979 427.589 304.273 427.207V428.279H305.712V423.433C305.712 422.508 305.477 421.803 305.022 421.319C304.493 420.761 303.671 420.482 302.555 420.482ZM304.17 424.769V425.21C304.17 425.797 303.92 426.296 303.451 426.693C302.981 427.089 302.423 427.295 301.762 427.295C301.365 427.295 301.042 427.192 300.807 427.001C300.558 426.81 300.44 426.575 300.44 426.282C300.44 425.342 301.145 424.843 302.57 424.813L304.17 424.769ZM311.018 420.482C310.548 420.482 310.137 420.614 309.784 420.907C309.491 421.113 309.241 421.421 309.05 421.832V420.687H307.494V428.279H309.05V424.255C309.05 423.595 309.241 423.051 309.638 422.64C310.005 422.258 310.43 422.067 310.9 422.067C311.253 422.067 311.62 422.111 312.002 422.229V420.672C311.737 420.54 311.4 420.482 311.018 420.482ZM315.263 418.235L313.706 418.881V420.687H312.296V421.979H313.706V426.385C313.706 426.987 313.838 427.442 314.132 427.765C314.426 428.103 314.91 428.279 315.556 428.279H316.804V426.987H315.806C315.615 426.987 315.483 426.928 315.395 426.84C315.307 426.737 315.263 426.59 315.263 426.385V421.979H316.995V420.687H315.263V418.235ZM322.096 420.482C321.626 420.482 321.2 420.57 320.818 420.775C320.437 420.966 320.099 421.245 319.805 421.627V420.687H318.249V428.279H319.805V423.712C319.864 423.095 320.084 422.611 320.437 422.258C320.76 421.935 321.156 421.788 321.597 421.788C322.771 421.788 323.373 422.435 323.373 423.727V428.279H324.93V423.595C324.93 421.509 323.975 420.482 322.096 420.482ZM329.925 420.482C328.809 420.482 327.913 420.863 327.267 421.642C326.592 422.405 326.269 423.345 326.269 424.476C326.269 425.724 326.621 426.708 327.326 427.442C327.972 428.132 328.868 428.484 329.984 428.484C330.997 428.484 331.834 428.191 332.495 427.618C333.023 427.148 333.361 426.546 333.537 425.841H331.981C331.775 426.282 331.555 426.62 331.291 426.825C330.953 427.075 330.512 427.207 329.969 427.207C329.352 427.207 328.868 427.001 328.515 426.62C328.163 426.223 327.972 425.65 327.913 424.916H333.669C333.655 423.565 333.346 422.508 332.759 421.744C332.113 420.893 331.158 420.482 329.925 420.482ZM329.969 421.759C331.202 421.759 331.893 422.42 332.039 423.741H327.943C328.031 423.095 328.251 422.611 328.574 422.273C328.926 421.921 329.382 421.759 329.969 421.759ZM338.522 420.482C338.052 420.482 337.641 420.614 337.288 420.907C336.995 421.113 336.745 421.421 336.554 421.832V420.687H334.998V428.279H336.554V424.255C336.554 423.595 336.745 423.051 337.142 422.64C337.509 422.258 337.934 422.067 338.404 422.067C338.757 422.067 339.124 422.111 339.506 422.229V420.672C339.241 420.54 338.904 420.482 338.522 420.482ZM343.295 420.482C342.385 420.482 341.636 420.672 341.063 421.069C340.491 421.451 340.212 421.994 340.212 422.684C340.212 423.33 340.505 423.844 341.093 424.211C341.445 424.446 342.076 424.667 342.972 424.872C343.75 425.048 344.264 425.195 344.499 425.313C344.94 425.518 345.175 425.812 345.175 426.179C345.175 426.854 344.558 427.207 343.354 427.207C342.767 427.207 342.355 427.104 342.091 426.913C341.827 426.708 341.636 426.341 341.548 425.827H340.021C340.197 427.589 341.313 428.484 343.398 428.484C345.645 428.484 346.775 427.677 346.775 426.076C346.775 425.401 346.467 424.872 345.865 424.49C345.454 424.226 344.808 423.976 343.941 423.771C343.178 423.58 342.678 423.433 342.414 423.316C342.003 423.125 341.797 422.904 341.797 422.64C341.797 422.346 341.93 422.111 342.209 421.965C342.444 421.818 342.796 421.759 343.266 421.759C343.794 421.759 344.206 421.847 344.47 422.023C344.72 422.185 344.896 422.464 345.013 422.875H346.526C346.349 421.274 345.263 420.482 343.295 420.482ZM348.09 417.589V428.279H349.647V424.02C349.647 423.36 349.808 422.816 350.146 422.39C350.469 421.965 350.895 421.759 351.423 421.759C352.011 421.759 352.466 421.935 352.76 422.302C353.024 422.655 353.171 423.154 353.171 423.83V428.279H354.727V423.565C354.727 422.567 354.507 421.803 354.066 421.289C353.597 420.746 352.906 420.482 351.996 420.482C351.511 420.482 351.086 420.57 350.704 420.775C350.278 420.981 349.926 421.319 349.647 421.759V417.589H348.09ZM357.595 417.648C357.286 417.648 357.037 417.736 356.831 417.941C356.625 418.132 356.523 418.382 356.523 418.69C356.523 418.984 356.625 419.248 356.831 419.454C357.037 419.645 357.286 419.747 357.595 419.747C357.888 419.747 358.153 419.645 358.358 419.454C358.564 419.248 358.681 418.998 358.681 418.69C358.681 418.382 358.578 418.132 358.373 417.941C358.167 417.736 357.903 417.648 357.595 417.648ZM356.816 420.687V428.279H358.373V420.687H356.816ZM364.283 420.482C363.255 420.482 362.462 420.849 361.933 421.598V420.687H360.48V431.186H362.036V427.163C362.653 428.044 363.417 428.484 364.356 428.484C365.443 428.484 366.309 428.088 366.926 427.295C367.499 426.561 367.792 425.636 367.792 424.52C367.792 423.345 367.499 422.405 366.911 421.671C366.265 420.878 365.399 420.482 364.283 420.482ZM364.048 421.744C364.812 421.744 365.37 422.009 365.737 422.567C366.03 423.037 366.192 423.683 366.192 424.52C366.192 425.357 366.016 426.003 365.693 426.473C365.325 426.972 364.767 427.222 364.004 427.222C363.417 427.222 362.947 426.987 362.594 426.531C362.183 426.032 361.992 425.371 361.992 424.564V424.432C361.992 423.653 362.154 423.022 362.477 422.552C362.844 422.009 363.372 421.744 364.048 421.744ZM372.09 420.482C371.179 420.482 370.43 420.672 369.858 421.069C369.285 421.451 369.006 421.994 369.006 422.684C369.006 423.33 369.3 423.844 369.887 424.211C370.24 424.446 370.871 424.667 371.767 424.872C372.545 425.048 373.059 425.195 373.294 425.313C373.734 425.518 373.969 425.812 373.969 426.179C373.969 426.854 373.353 427.207 372.149 427.207C371.561 427.207 371.15 427.104 370.886 426.913C370.621 426.708 370.43 426.341 370.342 425.827H368.815C368.991 427.589 370.107 428.484 372.193 428.484C374.439 428.484 375.57 427.677 375.57 426.076C375.57 425.401 375.262 424.872 374.66 424.49C374.248 424.226 373.602 423.976 372.736 423.771C371.972 423.58 371.473 423.433 371.209 423.316C370.798 423.125 370.592 422.904 370.592 422.64C370.592 422.346 370.724 422.111 371.003 421.965C371.238 421.818 371.591 421.759 372.06 421.759C372.589 421.759 373 421.847 373.265 422.023C373.514 422.185 373.69 422.464 373.808 422.875H375.32C375.144 421.274 374.057 420.482 372.09 420.482Z" fill="#D72466"/>
<path d="M381.349 417.794V419.248H386.782L382.979 428.279H384.682L388.397 419.087V417.794H381.349ZM400.038 422.537C399.216 422.537 398.585 422.816 398.144 423.404C397.748 423.903 397.557 424.578 397.557 425.415C397.557 426.238 397.748 426.899 398.144 427.427C398.585 427.985 399.216 428.279 400.038 428.279C400.846 428.279 401.463 427.985 401.903 427.427C402.285 426.913 402.491 426.238 402.491 425.415C402.491 424.578 402.285 423.903 401.903 423.404C401.463 422.816 400.846 422.537 400.038 422.537ZM398.585 417.589L392.711 428.484H393.9L399.789 417.589H398.585ZM392.491 417.794C391.668 417.794 391.037 418.073 390.596 418.661C390.2 419.16 390.009 419.835 390.009 420.672C390.009 421.495 390.2 422.156 390.596 422.684C391.037 423.242 391.668 423.536 392.491 423.536C393.298 423.536 393.915 423.242 394.356 422.684C394.737 422.17 394.943 421.495 394.943 420.672C394.943 419.835 394.737 419.16 394.356 418.661C393.915 418.073 393.298 417.794 392.491 417.794ZM400.038 423.551C400.405 423.551 400.67 423.741 400.831 424.138C400.963 424.446 401.037 424.872 401.037 425.415C401.037 425.944 400.963 426.355 400.846 426.664C400.67 427.06 400.405 427.266 400.038 427.266C399.657 427.266 399.378 427.075 399.201 426.693C399.069 426.37 399.01 425.944 399.01 425.415C399.01 424.857 399.069 424.432 399.201 424.123C399.378 423.741 399.657 423.551 400.038 423.551ZM392.491 418.808C392.858 418.808 393.122 418.998 393.284 419.395C393.416 419.703 393.489 420.129 393.489 420.672C393.489 421.201 393.416 421.612 393.298 421.921C393.122 422.317 392.858 422.523 392.491 422.523C392.109 422.523 391.83 422.332 391.654 421.95C391.522 421.627 391.463 421.201 391.463 420.672C391.463 420.114 391.522 419.689 391.654 419.38C391.83 418.998 392.109 418.808 392.491 418.808Z" fill="white"/>
<rect x="257.837" y="413.747" width="17.6209" height="17.6209" rx="8.81046" fill="#D72466"/>
<path d="M483.209 417.589C482.093 417.589 481.168 417.838 480.433 418.338C479.655 418.866 479.273 419.586 479.273 420.511C479.273 421.421 479.67 422.126 480.477 422.611C480.8 422.787 481.593 423.066 482.886 423.477C484.046 423.83 484.736 424.064 484.971 424.182C485.632 424.52 485.969 424.975 485.969 425.562C485.969 426.032 485.734 426.399 485.264 426.664C484.795 426.928 484.163 427.075 483.37 427.075C482.489 427.075 481.843 426.913 481.417 426.59C480.947 426.238 480.654 425.636 480.536 424.813H478.95C479.038 426.135 479.508 427.104 480.375 427.721C481.094 428.22 482.093 428.484 483.37 428.484C484.692 428.484 485.72 428.22 486.454 427.691C487.188 427.148 487.555 426.414 487.555 425.474C487.555 424.505 487.1 423.756 486.204 423.213C485.793 422.963 484.868 422.625 483.458 422.185C482.474 421.891 481.872 421.671 481.637 421.539C481.109 421.26 480.859 420.893 480.859 420.423C480.859 419.894 481.079 419.512 481.535 419.277C481.902 419.072 482.43 418.969 483.121 418.969C483.914 418.969 484.501 419.116 484.912 419.424C485.323 419.718 485.587 420.217 485.734 420.893H487.32C487.217 419.747 486.806 418.91 486.072 418.367C485.382 417.838 484.427 417.589 483.209 417.589ZM491.204 418.235L489.647 418.881V420.687H488.237V421.979H489.647V426.385C489.647 426.987 489.779 427.442 490.073 427.765C490.367 428.103 490.851 428.279 491.497 428.279H492.745V426.987H491.747C491.556 426.987 491.424 426.928 491.336 426.84C491.248 426.737 491.204 426.59 491.204 426.385V421.979H492.936V420.687H491.204V418.235ZM497.611 420.482C496.671 420.482 495.908 420.643 495.35 420.995C494.704 421.377 494.292 421.994 494.131 422.816L495.673 422.948C495.761 422.523 495.981 422.214 496.334 422.009C496.627 421.832 497.024 421.744 497.508 421.744C498.654 421.744 499.226 422.273 499.226 423.33V423.639L497.523 423.683C496.407 423.712 495.526 423.932 494.909 424.373C494.234 424.828 493.896 425.489 493.896 426.341C493.896 426.972 494.131 427.486 494.615 427.882C495.056 428.279 495.673 428.484 496.466 428.484C497.141 428.484 497.728 428.352 498.228 428.117C498.668 427.897 499.035 427.589 499.329 427.207V428.279H500.768V423.433C500.768 422.508 500.533 421.803 500.078 421.319C499.549 420.761 498.727 420.482 497.611 420.482ZM499.226 424.769V425.21C499.226 425.797 498.977 426.296 498.507 426.693C498.037 427.089 497.479 427.295 496.818 427.295C496.422 427.295 496.099 427.192 495.864 427.001C495.614 426.81 495.497 426.575 495.497 426.282C495.497 425.342 496.201 424.843 497.626 424.813L499.226 424.769ZM505.927 420.482C504.752 420.482 503.842 420.878 503.181 421.671C502.564 422.405 502.256 423.345 502.256 424.49C502.256 425.665 502.564 426.605 503.196 427.339C503.842 428.103 504.738 428.484 505.898 428.484C506.867 428.484 507.66 428.235 508.247 427.75C508.835 427.251 509.231 426.487 509.407 425.474H507.865C507.719 426.62 507.073 427.207 505.912 427.207C505.237 427.207 504.738 426.957 504.4 426.487C504.033 426.003 503.857 425.327 503.857 424.476C503.857 423.624 504.033 422.948 504.415 422.479C504.782 421.994 505.281 421.759 505.927 421.759C506.456 421.759 506.882 421.877 507.205 422.126C507.528 422.361 507.733 422.743 507.836 423.257H509.378C509.231 422.317 508.849 421.612 508.262 421.142C507.675 420.702 506.896 420.482 505.927 420.482ZM510.738 417.589V428.279H512.294V425.621L513.161 424.813L515.892 428.279H517.889L514.233 423.815L517.595 420.687H515.584L512.294 423.815V417.589H510.738ZM519.87 417.648C519.561 417.648 519.312 417.736 519.106 417.941C518.9 418.132 518.798 418.382 518.798 418.69C518.798 418.984 518.9 419.248 519.106 419.454C519.312 419.645 519.561 419.747 519.87 419.747C520.163 419.747 520.428 419.645 520.633 419.454C520.839 419.248 520.956 418.998 520.956 418.69C520.956 418.382 520.853 418.132 520.648 417.941C520.442 417.736 520.178 417.648 519.87 417.648ZM519.091 420.687V428.279H520.648V420.687H519.091ZM526.602 420.482C526.132 420.482 525.706 420.57 525.324 420.775C524.943 420.966 524.605 421.245 524.311 421.627V420.687H522.755V428.279H524.311V423.712C524.37 423.095 524.59 422.611 524.943 422.258C525.266 421.935 525.662 421.788 526.103 421.788C527.277 421.788 527.88 422.435 527.88 423.727V428.279H529.436V423.595C529.436 421.509 528.482 420.482 526.602 420.482ZM534.372 420.482C533.345 420.482 532.508 420.834 531.876 421.553C531.23 422.258 530.922 423.169 530.922 424.314C530.922 425.459 531.23 426.37 531.876 427.06C532.508 427.75 533.345 428.103 534.372 428.103C535.371 428.103 536.135 427.677 536.693 426.84V428.014C536.693 429.439 536.032 430.158 534.71 430.158C534.093 430.158 533.638 430.056 533.359 429.879C533.066 429.688 532.889 429.365 532.801 428.925H531.245C531.392 429.762 531.729 430.379 532.287 430.79C532.845 431.186 533.653 431.392 534.71 431.392C537.06 431.392 538.249 430.188 538.249 427.78V420.687H536.693V421.7C536.135 420.878 535.371 420.482 534.372 420.482ZM534.607 421.744C535.268 421.744 535.782 421.965 536.164 422.435C536.516 422.89 536.707 423.521 536.707 424.314C536.707 425.092 536.516 425.709 536.164 426.164C535.782 426.605 535.268 426.825 534.607 426.825C533.844 426.825 533.3 426.561 532.963 426.062C532.669 425.636 532.522 425.048 532.522 424.314C532.522 423.506 532.698 422.875 533.08 422.435C533.433 421.965 533.947 421.744 534.607 421.744ZM548.567 418.808C548.934 418.808 549.227 418.91 549.433 419.131C549.639 419.322 549.741 419.586 549.741 419.924C549.741 420.482 549.286 421.01 548.405 421.509C548.39 421.509 548.376 421.524 548.376 421.524C548.141 421.26 547.965 421.04 547.832 420.849C547.539 420.438 547.407 420.114 547.407 419.865C547.407 419.527 547.495 419.263 547.7 419.087C547.877 418.896 548.17 418.808 548.567 418.808ZM547.098 422.244C546.393 422.64 545.997 422.86 545.938 422.919C545.042 423.58 544.602 424.388 544.602 425.357C544.602 426.399 544.969 427.192 545.733 427.75C546.393 428.235 547.274 428.484 548.376 428.484C549.712 428.484 550.813 428.044 551.68 427.163L552.722 428.279H554.734L552.561 425.973C553.148 424.931 553.456 423.653 553.515 422.141H551.929C551.856 423.154 551.68 424.02 551.415 424.755L549.227 422.435L550.094 421.921C550.916 421.333 551.327 420.643 551.327 419.821C551.327 419.101 551.048 418.543 550.49 418.132C549.991 417.765 549.36 417.589 548.611 417.589C547.818 417.589 547.157 417.78 546.658 418.191C546.1 418.602 545.821 419.175 545.821 419.909C545.821 420.305 545.938 420.702 546.203 421.113C546.364 421.392 546.658 421.774 547.098 422.244ZM548.317 427.075C547.715 427.075 547.216 426.928 546.834 426.634C546.408 426.311 546.203 425.9 546.203 425.386C546.203 424.931 546.364 424.52 546.687 424.167C546.951 423.844 547.319 423.536 547.774 423.257C547.832 423.227 547.891 423.183 547.95 423.154L550.652 426.047C550.05 426.722 549.272 427.075 548.317 427.075ZM560.874 417.794V428.279H568.231V426.913H562.46V417.794H560.874ZM569.549 417.794V428.279H571.15V424.197H573.867C576.378 424.197 577.64 423.125 577.64 420.981C577.64 418.852 576.392 417.794 573.896 417.794H569.549ZM571.15 419.16H573.764C574.542 419.16 575.115 419.307 575.482 419.601C575.849 419.865 576.04 420.335 576.04 420.981C576.04 421.627 575.849 422.097 575.496 422.39C575.129 422.684 574.557 422.831 573.764 422.831H571.15V419.16ZM584.018 417.794V428.279H585.619V423.947H588.453C589.055 423.947 589.51 424.064 589.833 424.329C590.142 424.593 590.333 425.004 590.391 425.592L590.523 426.899C590.582 427.486 590.729 427.956 590.979 428.279H592.711C592.359 427.897 592.153 427.383 592.095 426.737L591.918 425.063C591.801 424.035 591.287 423.418 590.347 423.213V423.183C590.92 423.037 591.375 422.728 591.713 422.258C592.007 421.832 592.153 421.348 592.153 420.79C592.153 419.791 591.83 419.043 591.184 418.514C590.568 418.029 589.716 417.794 588.659 417.794H584.018ZM585.619 419.16H588.438C589.173 419.16 589.701 419.292 590.054 419.571C590.377 419.835 590.553 420.261 590.553 420.849C590.553 421.407 590.377 421.832 590.039 422.126C589.686 422.42 589.158 422.581 588.453 422.581H585.619V419.16ZM597.254 420.482C596.138 420.482 595.243 420.863 594.597 421.642C593.921 422.405 593.598 423.345 593.598 424.476C593.598 425.724 593.951 426.708 594.655 427.442C595.301 428.132 596.197 428.484 597.313 428.484C598.326 428.484 599.163 428.191 599.824 427.618C600.353 427.148 600.691 426.546 600.867 425.841H599.31C599.105 426.282 598.884 426.62 598.62 426.825C598.282 427.075 597.842 427.207 597.298 427.207C596.682 427.207 596.197 427.001 595.845 426.62C595.492 426.223 595.301 425.65 595.243 424.916H600.999C600.984 423.565 600.676 422.508 600.088 421.744C599.442 420.893 598.488 420.482 597.254 420.482ZM597.298 421.759C598.532 421.759 599.222 422.42 599.369 423.741H595.272C595.36 423.095 595.58 422.611 595.903 422.273C596.256 421.921 596.711 421.759 597.298 421.759ZM601.519 420.687L604.089 428.279H605.528L607.114 422.596L608.7 428.279H610.139L612.709 420.687H610.991L609.39 426.429L607.834 420.687H606.395L604.838 426.429L603.238 420.687H601.519ZM617.091 420.482C616.152 420.482 615.388 420.643 614.83 420.995C614.184 421.377 613.773 421.994 613.611 422.816L615.153 422.948C615.241 422.523 615.461 422.214 615.814 422.009C616.108 421.832 616.504 421.744 616.989 421.744C618.134 421.744 618.707 422.273 618.707 423.33V423.639L617.003 423.683C615.887 423.712 615.006 423.932 614.39 424.373C613.714 424.828 613.376 425.489 613.376 426.341C613.376 426.972 613.611 427.486 614.096 427.882C614.536 428.279 615.153 428.484 615.946 428.484C616.621 428.484 617.209 428.352 617.708 428.117C618.149 427.897 618.516 427.589 618.809 427.207V428.279H620.248V423.433C620.248 422.508 620.014 421.803 619.558 421.319C619.03 420.761 618.207 420.482 617.091 420.482ZM618.707 424.769V425.21C618.707 425.797 618.457 426.296 617.987 426.693C617.517 427.089 616.959 427.295 616.298 427.295C615.902 427.295 615.579 427.192 615.344 427.001C615.094 426.81 614.977 426.575 614.977 426.282C614.977 425.342 615.682 424.843 617.106 424.813L618.707 424.769ZM625.554 420.482C625.084 420.482 624.673 420.614 624.321 420.907C624.027 421.113 623.778 421.421 623.587 421.832V420.687H622.03V428.279H623.587V424.255C623.587 423.595 623.778 423.051 624.174 422.64C624.541 422.258 624.967 422.067 625.437 422.067C625.789 422.067 626.156 422.111 626.538 422.229V420.672C626.274 420.54 625.936 420.482 625.554 420.482ZM632.956 417.589V421.818C632.339 420.922 631.561 420.482 630.636 420.482C629.549 420.482 628.683 420.878 628.066 421.671C627.479 422.405 627.2 423.33 627.2 424.446C627.2 425.606 627.494 426.561 628.081 427.295C628.712 428.088 629.593 428.484 630.709 428.484C631.737 428.484 632.53 428.103 633.059 427.368V428.279H634.513V417.589H632.956ZM630.988 421.744C631.561 421.744 632.031 421.965 632.413 422.435C632.795 422.934 633 423.595 633 424.417V424.549C633 425.313 632.839 425.929 632.516 426.414C632.134 426.943 631.62 427.222 630.944 427.222C630.181 427.222 629.608 426.943 629.256 426.399C628.947 425.929 628.801 425.283 628.801 424.446C628.801 423.609 628.962 422.963 629.285 422.523C629.652 421.994 630.225 421.744 630.988 421.744ZM639.104 420.482C638.193 420.482 637.444 420.672 636.872 421.069C636.299 421.451 636.02 421.994 636.02 422.684C636.02 423.33 636.314 423.844 636.901 424.211C637.254 424.446 637.885 424.667 638.781 424.872C639.559 425.048 640.073 425.195 640.308 425.313C640.748 425.518 640.983 425.812 640.983 426.179C640.983 426.854 640.367 427.207 639.162 427.207C638.575 427.207 638.164 427.104 637.9 426.913C637.635 426.708 637.444 426.341 637.356 425.827H635.829C636.005 427.589 637.121 428.484 639.207 428.484C641.453 428.484 642.584 427.677 642.584 426.076C642.584 425.401 642.276 424.872 641.673 424.49C641.262 424.226 640.616 423.976 639.75 423.771C638.986 423.58 638.487 423.433 638.223 423.316C637.812 423.125 637.606 422.904 637.606 422.64C637.606 422.346 637.738 422.111 638.017 421.965C638.252 421.818 638.604 421.759 639.074 421.759C639.603 421.759 640.014 421.847 640.278 422.023C640.528 422.185 640.704 422.464 640.822 422.875H642.334C642.158 421.274 641.071 420.482 639.104 420.482Z" fill="#FF5C5D"/>
<path d="M651.314 417.794C650.962 418.176 650.521 418.514 649.993 418.837C649.464 419.131 648.979 419.336 648.509 419.454V421.04C649.479 420.761 650.286 420.32 650.918 419.718V428.279H652.518V417.794H651.314ZM658.454 417.589C657.25 417.589 656.28 418.117 655.576 419.189C654.871 420.247 654.533 421.627 654.533 423.33C654.533 424.931 654.856 426.179 655.502 427.075C656.178 428.014 657.147 428.484 658.439 428.484C659.467 428.484 660.348 428.132 661.053 427.456C661.743 426.781 662.095 425.915 662.095 424.872C662.095 423.844 661.787 422.993 661.185 422.332C660.568 421.686 659.746 421.363 658.718 421.363C658.16 421.363 657.675 421.465 657.264 421.686C656.809 421.906 656.442 422.244 656.148 422.714H656.089C656.075 422.625 656.075 422.567 656.075 422.523C656.075 421.495 656.28 420.658 656.706 419.982C657.132 419.263 657.705 418.91 658.439 418.91C659.496 418.91 660.128 419.41 660.348 420.438H661.904C661.64 418.529 660.48 417.589 658.454 417.589ZM658.395 422.655C659.041 422.655 659.57 422.86 659.951 423.272C660.333 423.653 660.524 424.197 660.524 424.872C660.524 425.533 660.318 426.076 659.922 426.517C659.54 426.943 659.026 427.163 658.38 427.163C657.749 427.163 657.235 426.957 656.853 426.546C656.457 426.135 656.266 425.592 656.266 424.916C656.266 424.226 656.457 423.683 656.838 423.272C657.22 422.86 657.734 422.655 658.395 422.655ZM664.703 426.179C664.38 426.179 664.131 426.282 663.94 426.487C663.719 426.693 663.617 426.957 663.617 427.28C663.617 427.574 663.719 427.838 663.94 428.059C664.131 428.249 664.38 428.352 664.703 428.352C664.997 428.352 665.261 428.249 665.482 428.059C665.687 427.838 665.805 427.574 665.805 427.28C665.805 426.957 665.687 426.693 665.482 426.487C665.261 426.282 664.997 426.179 664.703 426.179ZM671.215 417.589C670.187 417.589 669.35 417.868 668.704 418.455C668.014 419.043 667.632 419.85 667.544 420.893H669.115C669.174 420.247 669.394 419.762 669.747 419.439C670.099 419.116 670.598 418.954 671.23 418.954C671.847 418.954 672.331 419.087 672.654 419.38C672.948 419.659 673.109 420.056 673.109 420.584C673.109 421.113 672.933 421.524 672.61 421.803C672.287 422.082 671.802 422.229 671.156 422.229H670.407V423.433H671.171C671.861 423.433 672.39 423.58 672.742 423.874C673.124 424.167 673.315 424.622 673.315 425.239C673.315 425.768 673.124 426.194 672.772 426.546C672.36 426.928 671.817 427.133 671.142 427.133C670.525 427.133 670.026 426.957 669.644 426.605C669.203 426.223 668.983 425.68 668.954 424.975H667.339C667.427 426.15 667.838 427.045 668.572 427.662C669.218 428.205 670.084 428.484 671.156 428.484C672.272 428.484 673.197 428.161 673.902 427.545C674.563 426.928 674.901 426.135 674.901 425.166C674.901 424.549 674.725 424.035 674.372 423.639C674.049 423.257 673.579 422.963 672.963 422.772C674.108 422.39 674.695 421.612 674.695 420.467C674.695 419.571 674.372 418.866 673.755 418.352C673.109 417.838 672.272 417.589 671.215 417.589ZM680.974 417.794L675.805 424.49V426.003H680.916V428.279H682.443V426.003H684.029V424.725H682.443V417.794H680.974ZM680.872 419.821H680.916V424.725H677.112L680.872 419.821ZM695.374 422.537C694.551 422.537 693.92 422.816 693.479 423.404C693.083 423.903 692.892 424.578 692.892 425.415C692.892 426.238 693.083 426.899 693.479 427.427C693.92 427.985 694.551 428.279 695.374 428.279C696.181 428.279 696.798 427.985 697.239 427.427C697.62 426.913 697.826 426.238 697.826 425.415C697.826 424.578 697.62 423.903 697.239 423.404C696.798 422.816 696.181 422.537 695.374 422.537ZM693.92 417.589L688.046 428.484H689.236L695.124 417.589H693.92ZM687.826 417.794C687.004 417.794 686.372 418.073 685.932 418.661C685.535 419.16 685.344 419.835 685.344 420.672C685.344 421.495 685.535 422.156 685.932 422.684C686.372 423.242 687.004 423.536 687.826 423.536C688.634 423.536 689.25 423.242 689.691 422.684C690.073 422.17 690.278 421.495 690.278 420.672C690.278 419.835 690.073 419.16 689.691 418.661C689.25 418.073 688.634 417.794 687.826 417.794ZM695.374 423.551C695.741 423.551 696.005 423.741 696.167 424.138C696.299 424.446 696.372 424.872 696.372 425.415C696.372 425.944 696.299 426.355 696.181 426.664C696.005 427.06 695.741 427.266 695.374 427.266C694.992 427.266 694.713 427.075 694.537 426.693C694.405 426.37 694.346 425.944 694.346 425.415C694.346 424.857 694.405 424.432 694.537 424.123C694.713 423.741 694.992 423.551 695.374 423.551ZM687.826 418.808C688.193 418.808 688.457 418.998 688.619 419.395C688.751 419.703 688.825 420.129 688.825 420.672C688.825 421.201 688.751 421.612 688.634 421.921C688.457 422.317 688.193 422.523 687.826 422.523C687.444 422.523 687.165 422.332 686.989 421.95C686.857 421.627 686.798 421.201 686.798 420.672C686.798 420.114 686.857 419.689 686.989 419.38C687.165 418.998 687.444 418.808 687.826 418.808Z" fill="white"/>
<rect x="447.673" y="413.747" width="17.6209" height="17.6209" rx="8.81046" fill="#FF5C5D"/>
<path d="M259.5 72.5001C281.54 59.775 306.542 53.0751 331.992 53.0738C357.443 53.0724 382.445 59.7697 404.487 72.4925C426.529 85.2153 444.834 103.515 457.562 125.554C470.291 147.593 476.995 172.593 477 198.043L415.186 198.056C415.183 183.456 411.337 169.113 404.035 156.469C396.733 143.826 386.231 133.327 373.586 126.028C360.94 118.729 346.596 114.887 331.996 114.887C317.395 114.888 303.051 118.732 290.407 126.032L259.5 72.5001Z" fill="#3DD2FF"/>
<path d="M247.079 315.604C238.948 309.729 231.449 303.027 224.703 295.604L270.443 254.027C274.314 258.285 278.616 262.131 283.281 265.501L247.079 315.604Z" fill="#61006C"/>
<path d="M224.886 295.806C214.63 284.566 206.208 271.782 199.928 257.922L256.23 232.409C259.833 240.36 264.665 247.694 270.549 254.143L224.886 295.806Z" fill="#A1016F"/>
<path d="M199.907 257.876C191.104 238.431 186.702 217.283 187.016 195.942L248.823 196.85C248.642 209.094 251.168 221.227 256.218 232.382L199.907 257.876Z" fill="#D72466"/>
<path d="M199.907 257.876C191.104 238.431 186.702 217.283 187.016 195.942L248.823 196.85C248.642 209.094 251.168 221.227 256.218 232.382L199.907 257.876Z" fill="#D72466"/>
<path d="M199.907 257.876C191.104 238.431 186.702 217.283 187.016 195.942L248.823 196.85C248.642 209.094 251.168 221.227 256.218 232.382L199.907 257.876Z" fill="#D72466"/>
<path d="M199.907 257.876C191.104 238.431 186.702 217.283 187.016 195.942L248.823 196.85C248.642 209.094 251.168 221.227 256.218 232.382L199.907 257.876Z" fill="#D72466"/>
<path d="M187.006 196.799C187.227 171.65 193.985 146.992 206.617 125.245C219.248 103.498 237.319 85.4104 259.054 72.7584L290.151 126.18C277.682 133.439 267.314 143.816 260.068 156.292C252.821 168.768 248.944 182.915 248.817 197.342L187.006 196.799Z" fill="#FF5C5D"/>
<path d="M417.136 315.449C392.349 333.428 362.506 343.098 331.885 343.074C301.264 343.049 271.437 333.332 246.678 315.314L283.051 265.334C297.255 275.671 314.367 281.246 331.934 281.26C349.501 281.274 366.622 275.726 380.842 265.412L417.136 315.449Z" fill="#00B473"/>
<path d="M477 198.074C477 220.956 471.584 243.514 461.196 263.902C450.808 284.291 435.741 301.931 417.229 315.381L380.896 265.373C391.516 257.657 400.16 247.536 406.12 235.84C412.08 224.143 415.187 211.201 415.187 198.074H477Z" fill="#00F9DB"/>
</svg>
